<svg width="390" height="403" viewBox="0 0 390 403" fill="none" xmlns="http://www.w3.org/2000/svg">
<path d="M61.6671 200.146C61.6671 200.146 53.2766 203.039 61.8283 220.965C70.3799 238.89 76.3927 247.829 76.3927 247.829C76.3927 247.829 77.8838 251.972 74.4099 252.52C70.9361 253.068 63.3516 251.649 61.6993 255.832C59.9825 260.177 63.0615 264.4 69.4208 268.205C75.7801 272.009 89.4257 280.859 90.6508 281.665C91.876 282.471 93.0688 284.397 90.7314 285.147C88.394 285.896 71.2585 287.226 72.3708 295.335C73.483 303.443 92.956 311.116 95.108 312.011C97.26 312.905 97.7114 313.808 97.526 314.977C97.3406 316.145 91.5133 316.041 86.645 316.589C81.7768 317.137 76.2315 318.684 77.2712 323.311C78.311 327.937 89.6917 337.899 117.894 341.438L131.072 342.244L138.487 331.266C153.059 306.86 152.189 291.772 149.207 288.089C146.225 284.405 141.582 287.863 138.132 291.313C134.683 294.762 131.185 299.437 130.137 298.881C129.089 298.325 128.67 297.374 129.274 295.165C129.879 292.957 135.803 272.887 130.08 267.012C124.358 261.136 112.767 273.863 110.736 275.217C108.705 276.571 107.923 274.411 108.044 273.008C108.165 271.606 109.584 255.349 110.462 248.022C111.341 240.696 109.938 235.642 105.457 234.32C101.145 233.047 97.5986 239.89 95.0274 242.292C92.4563 244.694 90.1108 240.97 90.1108 240.97C90.1108 240.97 86.774 230.734 77.8999 212.961C69.0259 195.189 61.4978 200.218 61.4978 200.218" fill="#2E2A39"/>
<path d="M131.604 345.371C125.156 332.29 114.041 308.851 104.409 288.782C94.7776 268.712 86.0405 250.553 79.6409 237.44L72.0484 221.924L69.985 217.701C69.7593 217.225 69.582 216.895 69.4611 216.596C69.3402 216.298 69.2918 216.218 69.2918 216.218C69.2918 216.218 69.3644 216.338 69.4933 216.58L70.0575 217.66L72.1934 221.852C74.0392 225.487 76.6748 230.774 79.8988 237.311C86.3468 250.392 95.1483 268.535 104.78 288.604C114.412 308.674 125.47 332.128 131.87 345.242" fill="#7653BB"/>
<path d="M72.2257 258.242C72.5375 258.307 72.8425 258.402 73.1365 258.525C73.7168 258.734 74.547 259.048 75.5545 259.451C77.5936 260.257 80.3905 261.458 83.4291 262.829L91.2312 266.359L93.5927 267.415C93.8961 267.522 94.1856 267.666 94.4552 267.842C94.1397 267.785 93.8315 267.693 93.5363 267.568C92.956 267.358 92.1339 267.044 91.1183 266.625C89.0953 265.819 86.2823 264.569 83.2679 263.199L75.4497 259.717L73.08 258.678C72.7762 258.574 72.4885 258.427 72.2257 258.242Z" fill="#7653BB"/>
<path d="M95.3821 267.02C95.2773 266.979 97.4857 261.128 100.307 253.946C103.128 246.765 105.505 240.994 105.586 240.994C105.667 240.994 103.482 246.886 100.661 254.067C97.8404 261.249 95.4868 267.06 95.3821 267.02Z" fill="#7653BB"/>
<path d="M108.81 298.51C108.967 298.223 109.153 297.953 109.366 297.704L110.978 295.609C112.348 293.835 114.202 291.377 116.193 288.596C118.184 285.816 119.868 283.236 121.085 281.342L122.528 279.118C122.684 278.826 122.877 278.555 123.1 278.312C122.985 278.616 122.839 278.908 122.665 279.182C122.359 279.73 121.907 280.52 121.327 281.479C120.175 283.398 118.506 286.009 116.491 288.798C114.476 291.587 112.598 294.021 111.18 295.746C110.462 296.608 109.874 297.293 109.455 297.761C109.268 298.033 109.052 298.285 108.81 298.51Z" fill="#7653BB"/>
<path d="M86.0889 295.181C86.389 295.151 86.6914 295.151 86.9916 295.181L89.4096 295.439C91.4649 295.681 94.302 296.036 97.4696 296.455C100.637 296.874 103.426 297.261 105.465 297.583L107.883 297.97C108.183 298 108.477 298.065 108.762 298.164C108.463 298.191 108.162 298.177 107.867 298.123L105.449 297.865C103.402 297.632 100.565 297.277 97.4373 296.858C94.3101 296.439 91.481 296.052 89.4338 295.729L87.0158 295.343C86.7013 295.327 86.39 295.273 86.0889 295.181Z" fill="#7653BB"/>
<path d="M94.3907 324.488C94.7758 324.467 95.162 324.486 95.5433 324.544L98.6625 324.866C101.298 325.157 104.933 325.584 108.947 326.083C112.961 326.583 116.596 327.051 119.215 327.413L122.327 327.865C122.709 327.898 123.088 327.971 123.455 328.082C123.07 328.097 122.684 328.075 122.302 328.018L119.183 327.695C116.548 327.413 112.913 326.986 108.899 326.486C104.885 325.987 101.258 325.519 98.6302 325.157L95.5271 324.705C95.1428 324.665 94.7626 324.592 94.3907 324.488Z" fill="#7653BB"/>
<path d="M122.786 327.8C122.979 327.436 123.206 327.091 123.463 326.769C123.971 326.067 124.632 325.157 125.422 324.036C127.034 321.731 129.339 318.531 131.749 314.936C134.159 311.342 136.254 308.029 137.753 305.619L139.527 302.766C139.733 302.408 139.964 302.066 140.22 301.742C140.071 302.128 139.885 302.498 139.664 302.846C139.285 303.548 138.721 304.547 137.995 305.772C136.561 308.19 134.497 311.559 132.087 315.162C129.677 318.765 127.372 321.941 125.639 324.214C124.785 325.342 124.076 326.253 123.576 326.865C123.34 327.199 123.076 327.512 122.786 327.8Z" fill="#7653BB"/>
<path d="M274.669 302.25C254.22 292.151 246.386 268.817 243.839 247.168C243.412 243.549 242.445 239.817 243.67 236.408C244.895 232.998 248.562 230.226 252.012 231.249C254.881 232.104 256.518 235.03 258.396 237.375C260.92 240.495 264.272 242.842 268.068 244.145C270.534 244.951 273.484 245.282 275.555 243.694C278.392 241.51 278.11 237.166 277.538 233.595L274.362 213.59C273.798 210.019 273.234 206.336 273.83 202.806C274.427 199.275 276.402 195.713 279.658 194.246C282.914 192.779 287.42 194.093 288.677 197.47C289.193 198.881 289.128 200.436 289.483 201.903C289.838 203.37 290.748 204.909 292.223 205.127C293.698 205.345 294.996 204.095 295.899 202.886C299.042 198.719 300.84 193.682 302.476 188.701C304.112 183.72 305.7 178.634 308.416 174.193C311.132 169.752 315.323 165.923 320.401 164.851C325.479 163.779 331.419 166.117 333.483 170.945C335.546 175.772 333.386 181.35 330.799 185.92C326.974 192.7 322.188 198.89 316.589 204.297C315.581 205.264 314.493 206.32 314.267 207.706C313.848 210.213 316.468 212.236 318.942 212.663C321.747 213.147 324.584 212.429 327.438 212.333C330.291 212.236 333.483 213.002 334.933 215.476C336.956 218.91 334.482 223.206 331.854 226.18C326.589 232.144 320.334 237.156 313.365 240.994C310.874 242.356 308.239 243.622 306.401 245.83C304.563 248.038 303.765 251.408 305.434 253.729C307.102 256.05 310.512 256.364 313.187 255.438C315.863 254.511 318.104 252.633 320.578 251.246C325.213 248.643 331.613 248.022 335.409 251.778C337.899 254.261 338.673 258.122 338.133 261.603C337.593 265.085 335.909 268.285 334.055 271.275C327.607 281.753 318.636 290.692 307.836 296.382C297.035 302.073 286.63 304.668 274.669 302.25Z" fill="#2E2A39"/>
<path d="M278.175 287.895C279.967 275.621 282.462 263.46 285.646 251.472C286.479 248.28 287.285 245.131 288.064 242.026C288.87 238.923 289.676 235.852 290.652 232.894C292.527 227.215 294.717 221.645 297.213 216.209C299.558 211.003 301.968 206.151 304.257 201.629C306.546 197.107 308.779 192.94 310.971 189.225C314.405 183.344 318.302 177.746 322.626 172.484C324.149 170.622 325.374 169.212 326.22 168.269C326.632 167.825 326.946 167.463 327.188 167.205C327.292 167.079 327.408 166.963 327.534 166.858C327.447 166.999 327.348 167.131 327.236 167.253L326.317 168.357C325.511 169.333 324.318 170.775 322.827 172.645C318.609 177.962 314.792 183.584 311.406 189.466C309.254 193.19 307.054 197.365 304.781 201.887C302.508 206.409 300.122 211.269 297.801 216.467C295.338 221.889 293.169 227.44 291.305 233.095C290.337 236.037 289.547 239.092 288.733 242.195C287.919 245.298 287.121 248.458 286.315 251.641C283.137 263.612 280.629 275.75 278.803 288" fill="#7653BB"/>
<path d="M290.869 232.821C290.62 232.354 290.425 231.859 290.289 231.346C289.95 230.387 289.483 228.985 288.983 227.244C287.935 223.754 286.654 218.893 285.26 213.542C283.865 208.19 282.519 203.346 281.423 199.888C280.875 198.155 280.424 196.761 280.093 195.794C279.899 195.294 279.762 194.775 279.682 194.246C279.961 194.695 280.188 195.173 280.359 195.673C280.762 196.608 281.286 197.986 281.89 199.703C283.107 203.136 284.534 207.964 285.92 213.34C287.307 218.716 288.508 223.423 289.451 227.091C289.886 228.743 290.257 230.129 290.547 231.249C290.709 231.761 290.817 232.287 290.869 232.821Z" fill="#7653BB"/>
<path d="M335.546 217.233C334.959 217.449 334.355 217.614 333.74 217.725C332.58 218.015 330.895 218.418 328.824 218.982C324.681 220.078 319.015 221.787 312.841 223.955C306.667 226.123 301.17 228.332 297.237 230.049C295.27 230.855 293.69 231.612 292.594 232.104C292.042 232.395 291.465 232.635 290.869 232.821C291.376 232.454 291.915 232.136 292.481 231.87C293.545 231.306 295.093 230.508 297.051 229.613C300.944 227.784 306.433 225.503 312.623 223.318C317.911 221.434 323.291 219.82 328.743 218.482C330.831 217.983 332.54 217.676 333.724 217.443C334.323 217.313 334.933 217.243 335.546 217.233Z" fill="#7653BB"/>
<path d="M278.61 286.936C278.46 286.779 278.328 286.606 278.215 286.42C277.933 286.001 277.586 285.493 277.175 284.873C276.273 283.535 275.031 281.552 273.524 279.086C270.502 274.153 266.544 267.213 262.281 259.492C258.017 251.77 254.124 244.806 251.214 239.817L247.748 233.925L246.813 232.313C246.69 232.131 246.593 231.933 246.523 231.725C246.68 231.878 246.816 232.051 246.926 232.241L247.966 233.78C248.861 235.126 250.11 237.109 251.617 239.575C254.64 244.5 258.597 251.448 262.861 259.169C267.125 266.891 271.009 273.855 273.927 278.844L277.393 284.736C277.764 285.38 278.07 285.912 278.328 286.348C278.451 286.529 278.546 286.727 278.61 286.936Z" fill="#7653BB"/>
<path d="M336.723 257.976C336.545 258.11 336.353 258.223 336.15 258.315C335.699 258.549 335.143 258.839 334.466 259.177L328.244 262.297C322.996 264.932 315.783 268.648 307.819 272.775C299.856 276.901 292.578 280.544 287.291 283.067C284.639 284.333 282.455 285.332 280.972 285.993L279.239 286.743C279.039 286.843 278.828 286.919 278.61 286.968C278.782 286.824 278.975 286.707 279.182 286.622L280.867 285.759L287.081 282.64C292.336 280.012 299.55 276.289 307.513 272.162C315.476 268.035 322.73 264.368 328.042 261.869C330.694 260.604 332.878 259.605 334.353 258.944L336.094 258.194C336.292 258.092 336.504 258.019 336.723 257.976Z" fill="#7653BB"/>
<path d="M89.9254 58.032C91.5534 57.8124 93.2091 57.9248 94.7924 58.3626C96.3758 58.8003 97.854 59.5543 99.138 60.579C101.69 62.6504 103.731 65.2814 105.102 68.2682C107.915 73.9102 108.326 81.2287 107.851 87.5397C100.887 86.5322 95.4868 80.4066 92.9399 77.1342C88.9099 71.9516 84.7993 60.1518 89.9416 57.9917" fill="#2E2A39"/>
<path d="M118.643 92.9237C117.365 91.6082 116.458 89.9784 116.012 88.1994C115.566 86.4203 115.598 84.5551 116.104 82.7923C116.644 81.0393 117.527 79.411 118.702 78.0024C119.876 76.5937 121.32 75.4328 122.947 74.5872C124.43 73.7812 126.228 73.209 127.783 73.8538C128.498 74.1972 129.108 74.726 129.549 75.3852C129.99 76.0445 130.246 76.8099 130.29 77.6017C130.357 79.1912 130.004 80.7702 129.266 82.1798C126.969 87.0883 123.85 91.4246 118.635 92.9237" fill="#2E2A39"/>
<path d="M121.271 108.56C120.603 107.334 120.063 106.043 119.659 104.707C119.154 103.261 118.824 101.759 118.675 100.234C118.438 98.3872 118.322 96.5268 118.329 94.6647C118.349 91.2372 119.216 87.8677 120.852 84.8557C121.362 83.9622 121.964 83.1248 122.649 82.3571C123.157 81.8251 123.455 81.5511 123.495 81.5994C123.536 81.6478 122.464 82.8326 121.287 85.0975C119.833 88.0847 119.065 91.3588 119.038 94.6808C119.032 96.5144 119.129 98.3469 119.328 100.17C119.446 101.655 119.716 103.124 120.134 104.554C120.607 105.861 120.987 107.2 121.271 108.56Z" fill="#7653BB"/>
<path d="M93.8668 66.6965C94.3521 67.2108 94.7916 67.7663 95.1805 68.3569C95.9865 69.453 97.1472 71.0489 98.5577 73.0317C101.371 77.0052 105.207 82.5425 109.286 88.7567C113.364 94.971 116.894 100.71 119.361 104.877C120.602 106.972 121.577 108.689 122.23 109.882C122.601 110.486 122.922 111.119 123.189 111.776C122.738 111.228 122.339 110.64 121.996 110.019L118.933 105.135C116.362 101.008 112.759 95.3256 108.689 89.1114L98.1466 73.346L94.9226 68.51C94.5151 67.9396 94.1616 67.3325 93.8668 66.6965Z" fill="#7653BB"/>
<path d="M113.235 99.2992C110.261 96.8268 106.741 95.0986 102.967 94.2576C99.1921 93.4166 95.2714 93.4871 91.5294 94.4632C89.6272 94.979 87.4994 96.0752 87.2737 98.0096C87.048 99.944 88.8212 101.548 90.5622 102.467C94.2208 104.33 98.3492 105.069 102.427 104.59C106.505 104.111 110.35 102.436 113.477 99.7747" fill="#2E2A39"/>
<path d="M96.1397 97.8968C96.4831 97.7521 96.848 97.6649 97.2197 97.6388C97.929 97.5099 98.9526 97.389 100.234 97.2681C103.582 96.9412 106.962 97.2335 110.204 98.1305C111.99 98.6759 113.676 99.509 115.194 100.597C116.41 101.497 117.496 102.564 118.418 103.764C119.05 104.56 119.603 105.416 120.07 106.319C120.274 106.635 120.426 106.98 120.521 107.343C120.392 107.416 119.659 106.005 118.031 104.079C115.914 101.575 113.113 99.7432 109.971 98.8075C106.801 97.9454 103.514 97.5944 100.234 97.7678C98.8731 97.8925 97.5059 97.9356 96.1397 97.8968Z" fill="#7653BB"/>
<path d="M296.691 85.1731L289.881 108.206C289.253 110.332 290.466 112.565 292.592 113.194L315.626 120.003C317.751 120.632 319.984 119.418 320.613 117.292L327.422 94.2587C328.051 92.1329 326.837 89.9 324.711 89.2716L301.678 82.4619C299.552 81.8334 297.319 83.0473 296.691 85.1731Z" fill="#8043F9"/>
<path d="M315.646 110.486C315.656 110.394 315.675 110.302 315.702 110.212L315.896 109.463L316.661 106.658L319.434 96.72L319.539 96.9134L301.694 91.8356L301.928 91.7067V91.7631V91.884L301.863 92.1177L301.726 92.5772L301.444 93.496C301.267 94.1086 301.089 94.7131 300.92 95.3095L299.832 98.864C299.163 101.161 298.526 103.361 297.938 105.417L297.817 105.207L310.632 108.971L314.284 110.067L315.267 110.366L315.613 110.486L315.291 110.414L314.332 110.164L310.689 109.165L297.72 105.538L297.551 105.489L297.599 105.32C298.188 103.265 298.808 101.064 299.469 98.7592C299.8 97.6066 300.13 96.4218 300.477 95.2208C300.646 94.6244 300.823 94.0199 300.993 93.4073L301.259 92.4885L301.396 92.021L301.46 91.7953V91.6744V91.618L301.702 91.4891L319.531 96.6313L319.684 96.6797L319.643 96.8328C318.418 100.976 317.403 104.409 316.685 106.851C316.331 108.012 316.057 108.939 315.879 109.6C315.783 109.89 315.71 110.124 315.654 110.309C315.654 110.368 315.652 110.428 315.646 110.486Z" fill="#FAFAFA"/>
<path d="M308.488 90.6831C309.034 90.7567 309.573 90.8726 310.1 91.0296C311.1 91.2876 312.518 91.6664 314.203 92.1339H314.292V92.2306C314.542 93.1897 314.816 94.2295 315.098 95.3256L315.186 95.648L314.864 95.5513L313.171 95.0677C310.358 94.2617 307.811 93.5121 305.958 92.9479L305.724 92.8754L305.901 92.7142C307.4 91.3359 308.408 90.538 308.48 90.6589C308.48 90.6589 308.239 90.8523 307.819 91.2392L306.087 92.9157L306.03 92.6819C307.908 93.1817 310.463 93.8909 313.284 94.6969L314.977 95.1886L314.735 95.4143L313.929 92.3192L314.05 92.4401C312.373 91.9485 310.971 91.5132 310.02 91.207C309.495 91.0785 308.982 90.9032 308.488 90.6831Z" fill="#FAFAFA"/>
<path d="M312.003 103.337C312.003 103.337 312.196 103.015 312.422 102.386C312.729 101.499 312.729 100.533 312.422 99.6458C312.187 98.9255 311.757 98.2847 311.179 97.7949C310.601 97.3051 309.898 96.9856 309.149 96.8721C308.4 96.7586 307.634 96.8555 306.937 97.152C306.24 97.4486 305.639 97.9331 305.201 98.5514C304.763 99.1698 304.506 99.8976 304.458 100.654C304.41 101.41 304.574 102.164 304.93 102.833C305.286 103.502 305.821 104.058 306.475 104.44C307.129 104.823 307.876 105.016 308.634 104.998C309.574 104.977 310.481 104.645 311.213 104.055C311.729 103.635 311.938 103.313 311.97 103.337C311.938 103.425 311.892 103.506 311.833 103.579C311.683 103.795 311.507 103.993 311.309 104.167C310.578 104.838 309.633 105.228 308.642 105.272C307.904 105.304 307.169 105.15 306.506 104.825C305.843 104.499 305.272 104.013 304.845 103.41C304.333 102.691 304.052 101.834 304.039 100.952C304.015 100.004 304.297 99.0748 304.845 98.3018C305.393 97.5289 306.176 96.9541 307.078 96.6636C307.635 96.4769 308.225 96.4041 308.811 96.4497C309.397 96.4953 309.968 96.6583 310.49 96.929C311.012 97.1997 311.474 97.5726 311.848 98.0254C312.223 98.4783 312.503 99.0019 312.672 99.5652C312.96 100.512 312.909 101.53 312.527 102.443C312.425 102.688 312.296 102.921 312.14 103.136C312.075 103.281 312.011 103.345 312.003 103.337Z" fill="#FAFAFA"/>
<path d="M99.7547 130.118L65.8878 137.366C63.1151 137.959 61.3484 140.688 61.9418 143.461L69.1899 177.328C69.7833 180.101 72.5121 181.867 75.2849 181.274L109.152 174.026C111.925 173.432 113.691 170.704 113.098 167.931L105.85 134.064C105.256 131.291 102.528 129.525 99.7547 130.118Z" fill="#8043F9"/>
<path d="M81.406 145.419C81.6847 145.506 81.9545 145.619 82.212 145.757L84.4688 146.837H84.5575L84.5091 146.934C83.7676 148.312 82.7762 150.158 81.5833 152.334L81.535 152.124L92.5288 159.177L92.2064 159.249C93.1414 157.637 94.1327 155.953 95.1483 154.196L95.245 154.043L95.4143 154.083C96.8175 154.431 98.1714 154.953 99.4443 155.639C100.835 156.321 101.989 157.405 102.757 158.75C102.932 159.111 103.051 159.497 103.112 159.894L103.2 160.499L103.152 161.111C103.12 161.518 103.028 161.917 102.878 162.296C102.766 162.684 102.609 163.057 102.41 163.408C101.651 164.882 100.416 166.056 98.9043 166.737C97.3853 167.41 95.6926 167.585 94.0683 167.237C93.2802 167.072 92.5183 166.801 91.8034 166.431C91.0941 166.06 90.4816 165.625 89.8287 165.222L82.4699 160.523L75.8204 156.251L74.281 155.268C73.7663 154.961 73.283 154.605 72.8382 154.204C72.4111 153.817 72.0651 153.349 71.8202 152.828C71.5753 152.306 71.4364 151.741 71.4116 151.165C71.3977 150.188 71.6084 149.22 72.0277 148.337C72.4469 147.454 73.0634 146.679 73.8296 146.071C74.9737 145.142 76.3867 144.605 77.8596 144.54C78.7756 144.492 79.6918 144.632 80.5516 144.951C80.7727 145.034 80.9881 145.131 81.1964 145.241C81.2714 145.272 81.3419 145.312 81.406 145.362C80.2887 144.891 79.0784 144.681 77.8677 144.75C76.4572 144.846 75.1138 145.388 74.0311 146.297C73.3205 146.883 72.7519 147.623 72.368 148.461C71.9842 149.298 71.795 150.212 71.8146 151.133C71.8382 151.669 71.9704 152.195 72.2032 152.678C72.4359 153.162 72.7644 153.593 73.1687 153.946C73.6025 154.326 74.0721 154.664 74.5711 154.953L76.1106 155.921L82.7843 160.144L90.1592 164.819C90.804 165.222 91.4407 165.665 92.0936 166.004C92.7658 166.345 93.4818 166.592 94.2214 166.737C95.7299 167.056 97.3003 166.892 98.7108 166.27C100.105 165.637 101.242 164.548 101.935 163.183C102.117 162.853 102.263 162.504 102.37 162.143C102.504 161.802 102.588 161.444 102.62 161.079L102.668 160.539L102.588 160.015C102.536 159.662 102.43 159.32 102.273 159C101.555 157.75 100.48 156.742 99.1864 156.106C97.9544 155.44 96.6438 154.931 95.2853 154.591L95.5513 154.47L92.5772 159.507L92.4482 159.717L92.2548 159.588L81.406 152.431L81.277 152.35L81.3496 152.221L84.3882 146.877V147.014L82.212 145.886C81.9306 145.753 81.661 145.597 81.406 145.419Z" fill="#FAFAFA"/>
<path d="M92.9237 151.189C92.4863 150.038 92.1833 148.84 92.021 147.619C91.7145 146.423 91.5494 145.194 91.5294 143.96C91.963 145.115 92.2658 146.315 92.4321 147.538C92.7341 148.733 92.899 149.958 92.9237 151.189Z" fill="#FAFAFA"/>
<path d="M95.914 146.789C94.7393 147.251 93.5177 147.583 92.2709 147.78C91.0427 148.104 89.7838 148.299 88.5149 148.36C89.6898 147.901 90.9114 147.571 92.158 147.377C93.3842 147.042 94.644 146.844 95.914 146.789Z" fill="#FAFAFA"/>
<path d="M273.17 71.7018H222.174V146.474H273.17V71.7018Z" fill="#2E2A39"/>
<path d="M273.161 146.474C273.161 146.474 273.161 146.345 273.161 146.104C273.161 145.862 273.161 145.507 273.161 145.048C273.161 144.105 273.161 142.735 273.161 140.953C273.161 137.367 273.161 132.152 273.105 125.559C273.105 112.389 273.049 93.7217 273.008 71.7017L273.202 71.8952H222.214L222.424 71.6856C222.424 99.815 222.424 125.776 222.375 146.458L222.214 146.289L259.29 146.378L269.559 146.418H272.259C272.871 146.418 273.194 146.418 273.194 146.418H272.299H269.631L259.395 146.458L222.206 146.547H222.037V146.378C222.037 125.696 222.037 99.7344 221.997 71.605V71.4922H222.206H273.194H273.387V71.734C273.387 93.8023 273.315 112.51 273.29 125.736C273.29 132.305 273.29 137.512 273.242 141.05C273.242 142.815 273.242 144.177 273.242 145.08C273.242 145.531 273.242 145.886 273.242 146.12C273.242 146.353 273.161 146.474 273.161 146.474Z" fill="#35323F"/>
<path d="M226.986 143.621C225.77 143.053 224.743 142.148 224.025 141.015C223.307 139.881 222.929 138.565 222.935 137.224C222.941 135.882 223.331 134.57 224.059 133.442C224.786 132.315 225.822 131.42 227.042 130.862C227.515 130.702 227.939 130.425 228.275 130.056C228.727 129.46 228.549 128.621 228.565 127.872C228.629 126.899 229.052 125.984 229.752 125.304C230.452 124.625 231.379 124.23 232.354 124.197L243.839 128.71V140.8L226.986 143.621Z" fill="#35323F"/>
<path d="M222.786 146.273C222.786 146.273 231.322 139.559 241.8 137.979C252.278 136.399 263.973 137.979 263.973 137.979C267.164 138.57 270.248 139.638 273.121 141.147L273.178 146.442L261.894 146.402L222.786 146.273Z" fill="#8043F9"/>
<path d="M268.342 90.4413C267.245 87.4026 262.055 84.7993 259.202 83.2759C254.938 81.0111 251.069 81.6639 248.724 83.8401C244.282 80.3582 238.479 77.0697 233.071 78.6737C227.663 80.2776 223.399 86.0163 224.6 91.5697C225.293 94.7937 227.655 97.6791 227.631 101.008C227.631 103.273 226.486 105.352 225.599 107.456C224.713 109.56 224.06 111.961 224.979 114.033C225.841 115.959 227.856 117.112 229.009 118.869C229.928 120.32 230.186 122.093 230.79 123.705C233.047 129.661 240.269 132.797 246.507 131.531C252.745 130.266 257.791 125.365 260.588 119.635C263.385 113.904 264.134 107.408 264.263 101.048" fill="#35323F"/>
<path d="M264.021 139.785L263.804 94.9468L244.943 89.2C243.568 89.0112 242.169 89.1023 240.83 89.4677C239.491 89.8332 238.24 90.4655 237.151 91.3267C236.063 92.1879 235.159 93.2602 234.496 94.4793C233.832 95.6983 233.421 97.039 233.289 98.4207C232.612 105.368 232.047 114.105 232.716 119.377C234.03 129.718 241.873 131.273 241.873 131.273C241.873 131.273 241.808 135.11 241.727 139.599C241.68 142.033 242.433 144.414 243.871 146.378H261.869C263.273 144.467 264.027 142.156 264.021 139.785Z" fill="#FFBE9D"/>
<path d="M241.873 131.297C246.723 131.464 251.527 130.313 255.776 127.969C255.776 127.969 252.093 135.319 241.824 134.03L241.873 131.297Z" fill="#EB996E"/>
<path d="M248.248 99.5168C248.377 99.9117 249.804 99.7747 251.472 100.025C253.14 100.274 254.462 100.774 254.696 100.436C254.801 100.274 254.575 99.9037 254.043 99.5087C253.335 99.0239 252.524 98.7119 251.673 98.598C250.825 98.4667 249.957 98.5413 249.143 98.8156C248.522 99.0413 248.248 99.3395 248.248 99.5168Z" fill="#35323F"/>
<path d="M235.15 100.307C235.392 100.637 236.384 100.307 237.568 100.307C238.753 100.307 239.729 100.597 239.986 100.307C240.091 100.145 239.946 99.815 239.519 99.5007C238.947 99.1123 238.272 98.9046 237.581 98.9046C236.889 98.9046 236.214 99.1123 235.642 99.5007C235.199 99.815 235.046 100.145 235.15 100.307Z" fill="#35323F"/>
<path d="M247.885 111.115C247.89 111.214 247.932 111.308 248.005 111.375C248.077 111.443 248.173 111.48 248.272 111.478C248.372 111.474 248.466 111.431 248.535 111.359C248.605 111.287 248.643 111.191 248.643 111.091C248.643 110.991 248.603 110.894 248.532 110.823C248.461 110.752 248.365 110.712 248.264 110.712C248.164 110.712 248.067 110.752 247.996 110.823C247.925 110.894 247.885 110.991 247.885 111.091V111.115Z" fill="#EB996E"/>
<path d="M237.19 109.616C237.182 109.67 237.186 109.725 237.201 109.777C237.216 109.829 237.242 109.878 237.278 109.919C237.313 109.96 237.357 109.993 237.407 110.016C237.456 110.038 237.51 110.05 237.564 110.05C237.619 110.05 237.673 110.038 237.722 110.016C237.772 109.993 237.816 109.96 237.851 109.919C237.887 109.878 237.913 109.829 237.928 109.777C237.943 109.725 237.947 109.67 237.939 109.616C237.935 109.516 237.893 109.422 237.82 109.353C237.748 109.284 237.652 109.245 237.552 109.245C237.456 109.249 237.365 109.29 237.298 109.359C237.23 109.428 237.192 109.52 237.19 109.616Z" fill="#EB996E"/>
<path d="M235.142 110.68C235.147 110.779 235.19 110.872 235.262 110.94C235.334 111.008 235.43 111.045 235.529 111.043C235.63 111.043 235.726 111.003 235.797 110.932C235.868 110.861 235.908 110.764 235.908 110.664C235.908 110.563 235.868 110.467 235.797 110.396C235.726 110.325 235.63 110.285 235.529 110.285C235.478 110.285 235.427 110.295 235.379 110.315C235.332 110.335 235.289 110.364 235.253 110.401C235.217 110.438 235.189 110.482 235.17 110.529C235.151 110.577 235.141 110.628 235.142 110.68Z" fill="#EB996E"/>
<path d="M234.457 109.124C234.459 109.2 234.483 109.273 234.526 109.334C234.57 109.396 234.63 109.443 234.701 109.47C234.771 109.497 234.848 109.502 234.921 109.485C234.994 109.468 235.061 109.43 235.112 109.375C235.164 109.32 235.198 109.251 235.21 109.177C235.222 109.103 235.212 109.026 235.18 108.958C235.149 108.89 235.098 108.832 235.034 108.793C234.97 108.754 234.895 108.734 234.82 108.737C234.721 108.742 234.628 108.784 234.56 108.857C234.492 108.929 234.455 109.025 234.457 109.124Z" fill="#EB996E"/>
<path d="M249.667 112.719C249.668 112.768 249.679 112.817 249.699 112.862C249.719 112.907 249.748 112.948 249.784 112.982C249.82 113.016 249.862 113.042 249.908 113.059C249.955 113.076 250.004 113.084 250.053 113.082C250.129 113.08 250.202 113.056 250.263 113.013C250.325 112.969 250.372 112.909 250.399 112.838C250.426 112.768 250.431 112.691 250.414 112.618C250.397 112.545 250.359 112.478 250.304 112.427C250.249 112.375 250.18 112.341 250.106 112.329C250.032 112.317 249.956 112.327 249.887 112.359C249.819 112.39 249.761 112.441 249.722 112.505C249.683 112.569 249.663 112.644 249.667 112.719Z" fill="#EB996E"/>
<path d="M251.021 111.164C251.024 111.238 251.049 111.311 251.094 111.371C251.138 111.431 251.199 111.477 251.269 111.503C251.34 111.529 251.416 111.533 251.489 111.515C251.562 111.497 251.627 111.458 251.678 111.403C251.729 111.348 251.762 111.279 251.773 111.205C251.785 111.131 251.774 111.055 251.743 110.988C251.711 110.92 251.66 110.863 251.596 110.824C251.532 110.785 251.458 110.765 251.383 110.769C251.284 110.775 251.19 110.819 251.123 110.893C251.055 110.967 251.018 111.064 251.021 111.164Z" fill="#EB996E"/>
<path d="M244.814 87.6283C247.567 85.6841 250.815 84.5612 254.181 84.39C257.547 84.2188 260.892 85.0063 263.828 86.6611C269.671 90.1027 272.855 95.0677 273.161 103.257V113.694C272.855 118.45 273.871 121.206 271.549 122.012C268.325 123.108 265.907 131.781 263.151 131.176C259.758 128.541 259.701 127.001 259.58 121.609C259.451 115.814 257.71 108.923 259.983 105.191C252.488 102.958 246.507 95.785 245.363 87.6364" fill="#35323F"/>
<path d="M234.288 78.3512C234.288 78.4077 235.175 78.4077 236.553 78.722C236.93 78.805 237.302 78.9127 237.665 79.0444C238.087 79.1772 238.502 79.3332 238.906 79.5119C239.829 79.9331 240.706 80.4461 241.526 81.0433C242.336 81.6538 243.081 82.3451 243.751 83.1066C244.041 83.4693 244.339 83.8079 244.557 84.1545C244.782 84.4675 244.989 84.7931 245.177 85.1297C245.886 86.3548 246.144 87.2092 246.193 87.185C246.152 86.9837 246.093 86.7867 246.015 86.5966C245.944 86.3618 245.855 86.1328 245.749 85.9115C245.623 85.6162 245.481 85.3283 245.322 85.0491C245.14 84.7018 244.939 84.3654 244.718 84.0416C244.492 83.687 244.202 83.3404 243.912 82.9616C242.584 81.3758 240.899 80.1273 238.995 79.3185C238.582 79.1409 238.159 78.9848 237.73 78.851C237.356 78.7346 236.977 78.6378 236.593 78.5608C236.277 78.4918 235.956 78.4407 235.634 78.4077C235.394 78.3718 235.152 78.353 234.909 78.3512C234.702 78.3301 234.494 78.3301 234.288 78.3512Z" fill="#8043F9"/>
<path d="M228.3 117.676L228.227 117.595L228.009 117.346C227.724 117.04 227.455 116.72 227.203 116.386C226.775 115.873 226.444 115.286 226.228 114.653C226.106 114.26 226.063 113.847 226.099 113.436C226.148 112.98 226.291 112.538 226.518 112.139C227.103 111.236 227.752 110.377 228.461 109.568C230.043 107.452 231.016 104.943 231.274 102.314C231.386 100.843 231.386 99.3669 231.274 97.8968C231.152 96.4414 231.236 94.9762 231.524 93.5444C231.84 92.2912 232.427 91.1225 233.243 90.1201C234.059 89.1176 235.084 88.3057 236.247 87.7412C237.209 87.2789 238.252 87.0054 239.318 86.9352C240.871 86.8171 242.43 87.0944 243.847 87.7412C244.228 87.9245 244.597 88.1318 244.951 88.3618L245.226 88.5391C245.29 88.5391 245.322 88.6036 245.322 88.5955C244.888 88.2215 244.405 87.907 243.888 87.6606C242.468 86.9595 240.89 86.6427 239.309 86.7417C238.216 86.8006 237.145 87.0745 236.158 87.5477C234.971 88.1256 233.923 88.9547 233.088 89.9776C232.253 91.0005 231.65 92.1928 231.322 93.4718C231.018 94.9232 230.928 96.4113 231.056 97.8887C231.17 99.3476 231.183 100.813 231.096 102.273C230.842 104.864 229.896 107.339 228.356 109.439C227.648 110.257 227.001 111.128 226.422 112.042C226.186 112.465 226.041 112.931 225.994 113.412C225.963 113.841 226.018 114.271 226.156 114.678C226.383 115.32 226.73 115.914 227.179 116.427C227.534 116.854 227.84 117.16 228.042 117.362L228.283 117.595L228.3 117.676Z" fill="#8043F9"/>
<path d="M235.167 106.618C235.32 106.795 236.335 106.078 237.746 106.11C239.156 106.142 240.164 106.868 240.341 106.698C240.518 106.529 240.261 106.311 239.817 105.973C239.215 105.534 238.491 105.294 237.746 105.288C237.009 105.268 236.286 105.485 235.682 105.908C235.239 106.231 235.086 106.537 235.167 106.618Z" fill="#35323F"/>
<path d="M249.618 106.851C249.779 107.021 250.787 106.303 252.205 106.336C253.624 106.368 254.623 107.101 254.801 106.932C254.978 106.763 254.72 106.537 254.269 106.199C253.665 105.764 252.941 105.528 252.197 105.522C251.46 105.499 250.736 105.717 250.134 106.142C249.691 106.465 249.538 106.771 249.618 106.851Z" fill="#35323F"/>
<path d="M244.274 115.387C243.534 115.139 242.765 114.985 241.985 114.928C241.623 114.887 241.284 114.807 241.228 114.557C241.206 114.183 241.298 113.812 241.494 113.493C241.848 112.622 242.219 111.712 242.614 110.761C244.178 106.876 245.314 103.676 245.153 103.611C244.992 103.547 243.605 106.65 242.042 110.543C241.671 111.502 241.308 112.413 240.962 113.291C240.726 113.721 240.652 114.222 240.752 114.702C240.801 114.83 240.879 114.946 240.979 115.04C241.08 115.133 241.201 115.202 241.333 115.242C241.532 115.297 241.738 115.33 241.945 115.339C242.716 115.453 243.499 115.47 244.274 115.387Z" fill="#35323F"/>
<path d="M244.806 118.812C245.083 118.479 245.439 118.221 245.842 118.063C246.246 117.905 246.682 117.853 247.112 117.91C247.427 117.941 247.733 118.037 248.01 118.191C248.287 118.345 248.53 118.553 248.724 118.804C248.908 119.043 249.014 119.333 249.028 119.634C249.043 119.935 248.965 120.234 248.804 120.489C248.573 120.74 248.272 120.915 247.94 120.993C247.608 121.071 247.261 121.047 246.942 120.924C246.277 120.678 245.668 120.3 245.153 119.812C244.995 119.696 244.861 119.551 244.758 119.385C244.705 119.306 244.677 119.214 244.677 119.119C244.677 119.024 244.705 118.931 244.758 118.853" fill="#8043F9"/>
<path d="M248.417 116.451C248.192 116.451 248.159 117.966 246.805 119.03C245.451 120.094 243.839 119.892 243.823 120.11C243.823 120.207 244.178 120.416 244.871 120.449C245.77 120.479 246.651 120.194 247.361 119.643C248.04 119.108 248.485 118.331 248.603 117.474C248.691 116.87 248.522 116.443 248.417 116.451Z" fill="#35323F"/>
<path d="M272.646 100.387C272.263 100.512 271.869 100.596 271.469 100.637C270.38 100.795 269.281 100.871 268.18 100.863C264.531 100.851 260.933 100.007 257.659 98.3955C254.385 96.7837 251.522 94.4465 249.288 91.5616C248.613 90.695 248.004 89.779 247.466 88.8212C247.259 88.4779 247.084 88.1163 246.942 87.7411C247.192 88.0554 247.416 88.3897 247.611 88.7406C248.193 89.6574 248.831 90.5376 249.522 91.3762C251.784 94.1655 254.625 96.4312 257.847 98.0174C261.07 99.6036 264.598 100.473 268.188 100.565C269.264 100.6 270.341 100.57 271.412 100.476C271.821 100.414 272.233 100.384 272.646 100.387Z" fill="#8043F9"/>
<path d="M269.825 123.318C269.825 123.318 270.276 122.778 270.977 121.706C271.947 120.213 272.6 118.537 272.895 116.781C273.29 114.166 272.775 111.494 271.437 109.213C270.659 107.874 269.64 106.69 268.43 105.723C267.106 104.713 265.621 103.934 264.038 103.418C262.426 102.829 260.814 102.386 259.242 101.806C257.751 101.261 256.331 100.542 255.01 99.6619C252.786 98.1599 250.87 96.2445 249.368 94.0199C248.343 92.5273 247.529 90.8998 246.95 89.1839C246.789 88.7218 246.655 88.2508 246.547 87.7734C246.503 87.6066 246.471 87.437 246.451 87.2656C246.499 87.2656 246.652 87.9427 247.103 89.1275C248.663 93.2987 251.505 96.8683 255.22 99.3234C256.523 100.177 257.921 100.875 259.387 101.403C260.902 101.967 262.538 102.41 264.183 103.015C265.81 103.561 267.333 104.379 268.688 105.433C269.934 106.437 270.979 107.667 271.767 109.06C273.135 111.416 273.637 114.175 273.186 116.862C272.861 118.648 272.152 120.343 271.106 121.827C270.828 122.23 270.521 122.613 270.187 122.971C270.079 123.1 269.958 123.216 269.825 123.318Z" fill="#8043F9"/>
<path d="M241.873 131.297C241.873 131.297 241.687 131.394 241.333 131.467C240.82 131.56 240.298 131.598 239.777 131.579C238.053 131.466 236.388 130.91 234.941 129.967C233.476 129.04 232.305 127.715 231.564 126.147C231.343 125.679 231.171 125.191 231.048 124.688C230.986 124.504 230.962 124.31 230.975 124.116C231.048 124.116 231.233 124.922 231.83 126.018C232.613 127.485 233.762 128.723 235.167 129.613C236.573 130.499 238.164 131.051 239.817 131.225C241.067 131.378 241.865 131.225 241.873 131.297Z" fill="#8043F9"/>
<path d="M251.883 174.306C249.755 171.082 248.369 157.936 245.604 158.677C242.074 159.612 247.031 173.612 247.378 174.894C247.724 176.175 245.87 176.667 245.62 175.498C245.266 173.814 241.316 157.371 237.875 158.629C235.965 159.33 237.19 162.812 237.19 162.812C237.19 162.812 242.783 178.811 241.139 179.343C239.495 179.875 236.303 170.55 235.215 167.253C234.191 164.085 232.491 163.183 231.314 164.666C230.137 166.149 233.095 175.708 234.062 178.932C235.03 182.156 237.851 190.837 232.95 187.58C228.05 184.324 223.077 183.615 221.618 184.356C220.159 185.098 220.699 187.379 222.496 187.677C224.414 188.198 226.252 188.976 227.961 189.99C229.316 190.821 230.574 191.803 231.709 192.916C233.21 194.294 234.471 195.912 235.441 197.704C236.229 199.109 237.306 200.332 238.601 201.292C239.896 202.252 241.379 202.927 242.953 203.273L244.428 209.294L261.184 203.056L258.396 191.675C256.187 182.986 256.098 176.764 255.591 171.38C254.785 162.788 253.656 162.828 252.681 163.142C250.545 163.787 253.963 177.425 251.883 174.306Z" fill="#FFBE9D"/>
<path d="M254.946 185.38C254.184 185.739 253.449 186.151 252.746 186.613C251.099 187.81 249.884 189.506 249.28 191.449C249.098 192.034 248.979 192.637 248.925 193.247V193.537L248.667 193.416C247.203 192.754 245.64 192.337 244.041 192.183C242.84 192.062 242.114 192.102 242.106 192.046C242.745 191.895 243.404 191.851 244.057 191.917C245.706 191.993 247.327 192.375 248.836 193.045L248.546 193.214C248.599 192.572 248.721 191.937 248.909 191.32C249.254 190.219 249.8 189.191 250.521 188.29C251.111 187.556 251.813 186.919 252.6 186.404C253.133 186.073 253.701 185.803 254.293 185.598C254.496 185.486 254.717 185.413 254.946 185.38Z" fill="#EB996E"/>
<path d="M255.889 198.123C253.554 200.045 250.695 201.222 247.684 201.5C247.684 201.379 249.618 200.968 251.883 200.017C254.148 199.066 255.816 198.018 255.889 198.123Z" fill="#EB996E"/>
<path d="M260.773 282.197C257.082 281.842 253.586 280.368 250.755 277.973L223.713 255.115L223.955 281.463L229.315 281.85L227.808 301.444H144.089V300.977C138.938 296.592 135.771 289.983 134.65 282.769C132.611 269.728 131.854 248.474 130.032 233.45C128.759 222.875 131.088 209.181 140.51 204.184L147.764 201.323L170.638 192.312L200.025 193.666L219.643 199.171C225.084 201.234 229.775 207.755 233.119 212.558L249.473 235.312C249.296 231.596 242.525 209.173 242.082 208.166L262.071 199.888C262.071 199.888 282.696 245.717 279.924 265.521C277.611 282.019 260.773 282.197 260.773 282.197Z" fill="#35323F"/>
<path d="M221.771 245.443C221.771 245.322 223.601 245.564 226.462 245.145C230.117 244.635 233.572 243.164 236.472 240.881C239.173 238.692 241.141 235.731 242.114 232.394C242.433 231.04 242.667 229.667 242.816 228.283C242.928 228.648 242.969 229.031 242.937 229.412C242.941 230.449 242.819 231.483 242.574 232.491C241.713 235.972 239.731 239.074 236.932 241.316C233.939 243.685 230.337 245.157 226.542 245.564C225.379 245.696 224.205 245.721 223.036 245.637C222.608 245.629 222.182 245.564 221.771 245.443Z" fill="white"/>
<path d="M223.931 281.85C224.132 281.85 224.358 270.752 224.447 257.074C224.535 243.396 224.447 232.289 224.253 232.281C224.06 232.273 223.834 243.372 223.738 257.058C223.641 270.743 223.738 281.842 223.931 281.85Z" fill="#8043F9"/>
<path d="M153.519 290.015C153.644 289.069 153.954 288.157 154.43 287.331C155.463 285.276 156.896 283.448 158.646 281.954C160.395 280.461 162.426 279.332 164.617 278.634C165.506 278.291 166.454 278.127 167.406 278.151C167.406 278.255 166.375 278.465 164.779 279.077C160.592 280.678 157.085 283.672 154.849 287.557C153.994 289.04 153.624 290.047 153.519 290.015Z" fill="#8043F9"/>
<path d="M163.392 253.39C163.504 253.425 163.612 253.471 163.715 253.527L164.609 254.003C165.771 254.584 166.969 255.09 168.196 255.518C172.713 257.101 177.556 257.517 182.277 256.727C189.289 255.468 195.552 251.568 199.775 245.83C202.297 242.517 203.879 238.586 204.353 234.449C204.587 232.277 204.359 230.079 203.684 228.001C202.975 225.877 201.729 223.972 200.065 222.472C198.44 220.933 196.38 219.931 194.165 219.603C193.119 219.414 192.044 219.465 191.02 219.752C189.997 220.04 189.052 220.557 188.257 221.263C187.899 221.611 187.612 222.027 187.414 222.486C187.216 222.945 187.111 223.439 187.105 223.939C187.126 224.937 187.464 225.903 188.072 226.696C189.356 228.226 191.193 229.185 193.182 229.363C196.916 229.851 200.713 229.308 204.16 227.792C206.918 226.625 209.384 224.865 211.383 222.636C213.383 220.407 214.865 217.764 215.726 214.896C216.33 212.936 216.652 210.901 216.685 208.851C216.699 207.553 216.604 206.256 216.403 204.974C216.33 204.571 216.266 204.24 216.218 203.982C216.185 203.87 216.171 203.753 216.177 203.636C216.729 205.318 217.002 207.08 216.983 208.851C216.999 210.931 216.711 213.003 216.129 215C215.366 217.66 214.084 220.142 212.357 222.303C210.061 225.102 207.095 227.276 203.734 228.623C200.374 229.97 196.728 230.447 193.134 230.008C190.977 229.816 188.986 228.775 187.597 227.115C186.901 226.212 186.514 225.11 186.492 223.971C186.499 222.798 186.968 221.674 187.798 220.844C188.662 220.066 189.691 219.495 190.808 219.174C191.926 218.853 193.101 218.79 194.246 218.99C196.594 219.337 198.78 220.395 200.509 222.021C202.256 223.601 203.566 225.605 204.313 227.84C205.014 230.004 205.248 232.293 204.998 234.554C204.509 238.805 202.87 242.843 200.259 246.233C196.677 251.119 191.594 254.698 185.787 256.422C179.98 258.147 173.767 257.923 168.099 255.784C166.434 255.193 164.851 254.388 163.392 253.39Z" fill="white"/>
<path d="M130.491 240.543C130.709 240.164 130.98 239.819 131.297 239.519C132.119 238.644 133.027 237.853 134.006 237.157C137.299 234.888 141.133 233.529 145.12 233.216C147.303 232.974 149.51 233.066 151.665 233.49C153.419 233.852 155.116 234.449 156.711 235.263C157.782 235.804 158.809 236.429 159.781 237.133C160.154 237.368 160.493 237.653 160.789 237.98C160.716 238.092 159.177 236.956 156.509 235.699C152.987 234.065 149.082 233.438 145.225 233.885C141.344 234.2 137.598 235.456 134.312 237.544C131.813 239.205 130.572 240.639 130.491 240.543Z" fill="white"/>
<path d="M138.527 206.11C139.745 207.257 141.098 208.25 142.557 209.068C144.174 209.889 145.928 210.402 147.732 210.584C149.933 210.845 152.165 210.538 154.214 209.691C156.263 208.844 158.06 207.487 159.435 205.748C160.581 204.346 161.458 202.745 162.022 201.024C162.493 199.409 162.763 197.741 162.828 196.059C162.961 196.501 163.018 196.961 162.997 197.422C163.026 198.687 162.858 199.948 162.498 201.161C161.979 202.974 161.108 204.667 159.935 206.143C158.517 207.982 156.639 209.415 154.491 210.298C152.344 211.181 150.001 211.482 147.7 211.172C145.828 210.96 144.017 210.379 142.372 209.463C141.262 208.857 140.251 208.085 139.374 207.174C139.036 206.868 138.75 206.509 138.527 206.11Z" fill="white"/>
<path d="M181.277 275.91C181.283 275.59 181.318 275.272 181.382 274.959C181.56 274.055 181.858 273.18 182.269 272.355C183.284 270.195 185.807 267.479 189.789 265.827C193.77 264.175 199.114 263.723 204.555 265.303C207.215 266.109 210.261 267.068 212.252 269.655C212.761 270.32 213.082 271.109 213.181 271.94C213.28 272.771 213.154 273.613 212.816 274.379C212.041 275.878 210.779 277.069 209.238 277.756C207.757 278.491 206.135 278.896 204.482 278.94C202.842 279.022 201.225 278.52 199.92 277.522C199.315 277.007 198.82 276.375 198.468 275.662C198.116 274.95 197.914 274.173 197.873 273.379C197.785 271.898 198.019 270.417 198.558 269.035C200.509 264.326 204.223 260.566 208.907 258.557C212.009 257.178 215.405 256.596 218.789 256.864C220.021 256.955 221.235 257.21 222.4 257.622C222.4 257.71 221.118 257.283 218.773 257.122C215.445 256.958 212.127 257.6 209.101 258.992C207.017 259.94 205.109 261.234 203.459 262.82C201.566 264.631 200.09 266.831 199.13 269.268C198.635 270.571 198.42 271.964 198.502 273.355C198.539 274.06 198.72 274.751 199.033 275.384C199.346 276.018 199.785 276.58 200.323 277.038C201.513 277.932 202.98 278.377 204.466 278.296C206.017 278.25 207.54 277.87 208.931 277.183C210.331 276.557 211.482 275.482 212.204 274.129C212.486 273.473 212.589 272.755 212.502 272.047C212.416 271.339 212.143 270.667 211.712 270.099C210.812 268.963 209.661 268.05 208.351 267.431C207.073 266.821 205.743 266.327 204.377 265.956C199.05 264.344 193.819 264.666 189.966 266.327C186.828 267.461 184.185 269.656 182.495 272.533C181.953 273.605 181.545 274.739 181.277 275.91Z" fill="white"/>
<path d="M132.579 265.98C132.768 265.871 132.971 265.789 133.183 265.738C133.586 265.601 134.191 265.416 134.973 265.222C137.202 264.627 139.512 264.391 141.816 264.521C143.419 264.643 144.991 265.033 146.466 265.674C148.187 266.411 149.685 267.587 150.811 269.083C152.045 270.774 152.642 272.846 152.495 274.935C152.421 276.041 152.09 277.114 151.528 278.07C150.941 279.092 150.009 279.871 148.9 280.27C148.326 280.466 147.71 280.507 147.114 280.389C146.519 280.272 145.965 280 145.507 279.601C144.704 278.753 144.262 277.626 144.274 276.458C144.204 274.403 144.607 272.36 145.451 270.486C146.15 268.899 147.157 267.468 148.415 266.275C149.673 265.082 151.156 264.152 152.777 263.538C154.957 262.716 157.314 262.482 159.612 262.861C160.229 262.961 160.836 263.114 161.426 263.32C161.639 263.38 161.842 263.47 162.03 263.586C162.03 263.651 161.168 263.312 159.612 263.119C157.369 262.85 155.094 263.147 152.995 263.981C149.882 265.227 147.39 267.656 146.063 270.735C145.271 272.524 144.896 274.47 144.967 276.426C144.943 277.411 145.291 278.37 145.942 279.11C146.315 279.424 146.762 279.637 147.241 279.728C147.719 279.818 148.214 279.783 148.675 279.626C149.629 279.268 150.43 278.59 150.94 277.707C151.458 276.841 151.769 275.868 151.85 274.862C151.988 272.924 151.444 271 150.311 269.422C149.265 268.021 147.877 266.911 146.281 266.198C144.867 265.562 143.359 265.162 141.816 265.013C139.558 264.843 137.289 265.003 135.078 265.488C133.457 265.811 132.595 266.044 132.579 265.98Z" fill="white"/>
<path d="M257.114 269.849C256.99 269.766 256.876 269.669 256.775 269.559C256.465 269.27 256.169 268.966 255.889 268.648C254.856 267.473 253.971 266.177 253.253 264.787C252.188 262.726 251.4 260.534 250.908 258.267C250.317 255.501 249.98 252.687 249.9 249.86C249.779 246.854 249.9 243.976 249.804 241.397C249.688 239.101 249.438 236.813 249.054 234.546C248.748 232.604 248.433 231.048 248.248 229.968C248.143 229.468 248.063 229.057 247.998 228.727C247.957 228.585 247.935 228.439 247.934 228.291C248.003 228.423 248.052 228.564 248.079 228.711C248.159 228.985 248.272 229.396 248.401 229.936C248.675 231 249.03 232.555 249.376 234.49C249.796 236.764 250.065 239.063 250.182 241.373C250.279 243.984 250.182 246.837 250.311 249.836C250.379 252.645 250.698 255.442 251.262 258.194C251.735 260.428 252.485 262.594 253.495 264.642C254.181 266.027 255.016 267.332 255.986 268.535C256.687 269.389 257.114 269.817 257.114 269.849Z" fill="#8043F9"/>
<path d="M253.084 264.948C249.566 266.769 246.437 269.257 243.871 272.275C244.118 271.741 244.448 271.248 244.847 270.816C245.74 269.715 246.751 268.715 247.861 267.834C248.97 266.949 250.173 266.19 251.448 265.569C251.958 265.279 252.51 265.069 253.084 264.948Z" fill="white"/>
<path d="M276.748 240.551C276.395 240.728 276.029 240.876 275.652 240.994C274.943 241.236 273.903 241.582 272.646 242.066C269.365 243.299 266.23 244.888 263.296 246.805C259.863 249.054 257.211 251.69 255.123 253.431C254.325 254.161 253.387 254.723 252.367 255.083C252.085 255.173 251.792 255.222 251.496 255.228C251.295 255.228 251.19 255.228 251.19 255.228C251.57 255.156 251.947 255.064 252.318 254.954C253.289 254.539 254.177 253.952 254.938 253.221C256.945 251.456 259.588 248.756 263.07 246.483C266.018 244.531 269.2 242.957 272.541 241.8C273.814 241.349 274.87 241.042 275.596 240.849C275.969 240.71 276.355 240.61 276.748 240.551Z" fill="white"/>
<path d="M268.583 215.806C268.305 215.899 268.014 215.954 267.721 215.968L265.359 216.322C263.369 216.629 260.628 217.128 257.622 217.757C254.615 218.386 251.923 219.103 250.013 219.732C248.103 220.36 246.983 220.9 246.95 220.844C247.18 220.655 247.435 220.501 247.708 220.385C248.427 220.034 249.164 219.722 249.916 219.45C252.405 218.578 254.95 217.876 257.533 217.346C260.548 216.701 263.312 216.258 265.319 216.024C266.327 215.911 267.141 215.839 267.737 215.806C268.018 215.772 268.302 215.772 268.583 215.806Z" fill="white"/>
<path d="M213.356 114.807C208.262 113.428 203.16 118.127 197.946 117.289C194.778 116.773 192.304 114.347 189.475 112.88C185.211 110.68 179.287 110.462 175.087 112.816C170.888 115.169 168.212 117.539 167.833 122.319C163.868 120.215 157.549 125.333 155.502 130.129C153.454 134.924 154.172 139.801 155.59 144.806C158.059 153.472 162.205 161.57 167.793 168.639C168.285 169.26 169.067 169.945 169.768 169.582C169.99 169.42 170.17 169.206 170.292 168.959C170.414 168.712 170.474 168.439 170.469 168.164C171.057 163.505 170.308 158.806 169.752 154.147C169.196 149.489 168.833 144.685 170.155 140.188C171.477 135.69 174.829 131.507 179.391 130.443C182.769 129.637 186.331 130.645 189.41 132.24C192.489 133.836 195.213 136.004 198.155 137.882C201.097 139.76 204.377 141.227 207.827 141.26C211.277 141.292 214.944 139.543 216.314 136.359C217.685 133.175 215.879 128.775 212.47 128.178C214.034 127.978 215.48 127.242 216.562 126.094C217.643 124.947 218.294 123.46 218.401 121.887C218.508 120.313 218.067 118.752 217.151 117.468C216.236 116.184 214.903 115.258 213.38 114.847L213.356 114.807Z" fill="#35323F"/>
<path d="M162.876 145.983L169.663 198.139C169.936 200.24 170.633 202.264 171.712 204.087C172.791 205.91 174.23 207.495 175.94 208.746C177.65 209.996 179.597 210.886 181.662 211.362C183.726 211.837 185.866 211.887 187.951 211.511C191.907 210.795 195.436 208.586 197.808 205.341C200.18 202.096 201.213 198.063 200.694 194.077C200.178 190.152 199.751 186.879 199.727 186.468C199.727 186.468 212.84 183.494 212.091 170.227C211.728 163.819 209.907 150.674 208.117 138.793C207.179 132.652 203.967 127.089 199.117 123.207C194.268 119.325 188.136 117.408 181.938 117.837L180.657 117.926C166.915 119.659 160.741 132.305 162.876 145.983Z" fill="#FFBE9D"/>
<path d="M199.727 186.275C193.631 186.803 187.516 185.51 182.156 182.559C182.156 182.559 186.895 191.812 200.041 189.708L199.727 186.275Z" fill="#EB996E"/>
<path d="M203.16 148.304C203.201 148.797 203.046 149.286 202.73 149.666C202.413 150.046 201.96 150.286 201.468 150.335C201.226 150.37 200.979 150.356 200.743 150.293C200.506 150.23 200.285 150.12 200.092 149.969C199.899 149.819 199.739 149.631 199.621 149.417C199.503 149.202 199.429 148.966 199.404 148.723C199.366 148.231 199.522 147.743 199.838 147.363C200.154 146.984 200.606 146.743 201.097 146.692C201.339 146.656 201.586 146.669 201.823 146.732C202.06 146.794 202.282 146.904 202.475 147.055C202.668 147.206 202.828 147.394 202.946 147.609C203.064 147.824 203.137 148.06 203.16 148.304Z" fill="#35323F"/>
<path d="M205.715 145.507C205.498 145.765 203.991 144.806 201.951 144.951C199.912 145.096 198.494 146.216 198.252 145.983C198.139 145.886 198.349 145.419 198.961 144.903C199.803 144.232 200.829 143.835 201.903 143.766C202.962 143.69 204.018 143.953 204.917 144.516C205.578 144.959 205.82 145.386 205.715 145.507Z" fill="#35323F"/>
<path d="M183.567 149.65C183.605 150.143 183.45 150.632 183.134 151.013C182.818 151.394 182.366 151.636 181.874 151.689C181.634 151.724 181.39 151.711 181.156 151.651C180.921 151.591 180.701 151.484 180.508 151.338C180.316 151.192 180.154 151.008 180.033 150.799C179.911 150.589 179.833 150.358 179.803 150.117C179.764 149.624 179.919 149.135 180.235 148.755C180.551 148.374 181.003 148.131 181.495 148.078C181.735 148.043 181.979 148.056 182.213 148.116C182.448 148.177 182.668 148.283 182.861 148.429C183.054 148.576 183.215 148.759 183.336 148.969C183.458 149.178 183.536 149.41 183.567 149.65Z" fill="#35323F"/>
<path d="M185.719 147.264C185.501 147.53 183.994 146.571 181.955 146.716C179.915 146.861 178.497 147.982 178.263 147.748C178.142 147.643 178.352 147.184 178.972 146.668C179.809 145.994 180.834 145.597 181.906 145.531C182.965 145.454 184.021 145.717 184.921 146.281C185.582 146.692 185.823 147.151 185.719 147.264Z" fill="#35323F"/>
<path d="M194.149 161.861C194.149 161.748 195.382 161.442 197.422 161.055C197.937 160.966 198.421 160.829 198.486 160.467C198.492 159.925 198.334 159.394 198.034 158.943C197.454 157.726 196.849 156.437 196.221 155.091C193.69 149.602 191.828 145.072 192.046 144.975C192.263 144.878 194.464 149.239 197.027 154.736C197.631 156.09 198.22 157.38 198.776 158.613C199.143 159.219 199.289 159.934 199.187 160.636C199.122 160.822 199.015 160.991 198.876 161.131C198.736 161.27 198.567 161.377 198.381 161.442C198.096 161.539 197.801 161.601 197.502 161.627C195.447 161.877 194.165 162.006 194.149 161.861Z" fill="#35323F"/>
<path d="M188.257 163.682C188.588 163.642 188.741 165.851 190.74 167.293C192.739 168.736 195.076 168.325 195.117 168.631C195.117 168.768 194.625 169.099 193.633 169.196C192.339 169.303 191.049 168.949 189.99 168.196C188.974 167.475 188.275 166.389 188.04 165.166C187.895 164.247 188.104 163.682 188.257 163.682Z" fill="#35323F"/>
<path d="M185.694 139.253C185.533 139.817 183.478 139.696 181.108 140.147C178.739 140.599 176.853 141.389 176.498 140.953C176.345 140.728 176.643 140.147 177.384 139.591C178.377 138.858 179.525 138.363 180.739 138.143C181.954 137.924 183.202 137.986 184.389 138.326C185.291 138.576 185.759 138.979 185.694 139.253Z" fill="#35323F"/>
<path d="M204.555 139.664C204.232 140.147 202.798 139.768 201.105 139.857C199.412 139.946 198.01 140.389 197.647 139.922C197.486 139.704 197.647 139.22 198.276 138.737C199.078 138.154 200.035 137.823 201.025 137.786C202.015 137.749 202.994 138.007 203.837 138.527C204.474 138.962 204.724 139.438 204.555 139.664Z" fill="#35323F"/>
<path d="M164.634 155.727C164.4 155.639 155.34 153.656 156.259 162.699C157.178 171.742 166.036 168.954 166.036 168.696C166.036 168.438 164.634 155.727 164.634 155.727Z" fill="#FFBE9D"/>
<path d="M162.941 165.552C162.941 165.552 162.796 165.673 162.538 165.826C162.178 166.023 161.758 166.074 161.361 165.972C160.378 165.714 159.419 164.279 159.209 162.659C159.108 161.884 159.179 161.097 159.419 160.354C159.476 160.063 159.602 159.79 159.787 159.558C159.973 159.326 160.211 159.143 160.483 159.024C160.659 158.957 160.853 158.955 161.032 159.016C161.21 159.078 161.361 159.201 161.458 159.362C161.603 159.604 161.563 159.789 161.611 159.806C161.659 159.822 161.788 159.628 161.684 159.266C161.609 159.045 161.461 158.857 161.264 158.734C161.133 158.654 160.987 158.6 160.835 158.577C160.683 158.553 160.527 158.56 160.378 158.597C160.014 158.706 159.684 158.907 159.42 159.181C159.156 159.455 158.967 159.792 158.871 160.16C158.562 160.983 158.463 161.869 158.581 162.739C158.822 164.553 159.927 166.165 161.273 166.407C161.523 166.453 161.78 166.442 162.026 166.375C162.272 166.308 162.499 166.187 162.691 166.02C162.949 165.77 162.973 165.56 162.941 165.552Z" fill="#EB996E"/>
<path d="M210.729 135.859C207.845 136.816 204.775 137.074 201.772 136.612C198.769 136.149 195.919 134.98 193.456 133.2C190.047 130.693 187.282 126.937 183.164 125.946C181.76 125.672 180.315 125.681 178.915 125.972C177.515 126.262 176.186 126.829 175.007 127.638C172.656 129.27 170.667 131.369 169.163 133.804C172.186 140.365 170.985 147.998 169.727 155.115C169.67 155.915 169.35 156.675 168.817 157.275C167.801 158.177 166.149 157.646 165.149 156.727C163.537 155.268 162.812 153.092 162.28 150.988C161 146.197 160.685 141.2 161.353 136.287C162.043 131.356 164.161 126.736 167.447 122.996C171.736 118.45 177.622 115.749 183.865 115.459C190.088 115.217 196.229 116.946 201.411 120.4C203.883 121.88 205.946 123.952 207.416 126.429" fill="#35323F"/>
<path d="M217.386 117.732C217.442 117.998 217.442 118.273 217.386 118.538C217.221 119.296 216.821 119.982 216.242 120.497C215.312 121.289 214.155 121.766 212.937 121.859C212.188 121.948 211.43 121.948 210.68 121.859C209.807 121.78 208.971 121.466 208.262 120.948C207.872 120.66 207.551 120.286 207.325 119.857C207.099 119.427 206.973 118.951 206.957 118.466C206.994 117.938 207.18 117.431 207.492 117.003C207.804 116.576 208.23 116.245 208.722 116.048C209.226 115.815 209.779 115.704 210.334 115.725C210.919 115.758 211.48 115.966 211.946 116.322C212.422 116.685 212.814 117.148 213.092 117.679C213.371 118.209 213.53 118.794 213.558 119.393C213.617 120.647 213.187 121.876 212.357 122.818C211.507 123.778 210.42 124.498 209.205 124.906C206.644 125.679 203.897 125.571 201.403 124.6C198.948 123.68 196.606 122.482 194.423 121.029C192.409 119.699 190.287 118.54 188.08 117.563C186.086 116.699 183.913 116.329 181.745 116.483C179.863 116.671 178.046 117.274 176.425 118.248C174.069 119.688 172.126 121.712 170.783 124.124C170.406 124.774 170.065 125.444 169.76 126.131C169.665 126.374 169.555 126.611 169.429 126.84C169.435 126.774 169.451 126.708 169.478 126.647C169.526 126.526 169.582 126.332 169.679 126.099C169.947 125.392 170.265 124.705 170.63 124.043C171.935 121.553 173.883 119.457 176.272 117.974C177.909 116.946 179.753 116.294 181.672 116.064C183.901 115.884 186.139 116.252 188.193 117.136C190.438 118.103 192.596 119.263 194.641 120.602C196.787 122.03 199.088 123.212 201.5 124.124C203.899 125.064 206.543 125.175 209.012 124.438C210.153 124.069 211.176 123.404 211.978 122.512C212.36 122.091 212.655 121.599 212.846 121.063C213.036 120.528 213.12 119.96 213.09 119.393C213.074 118.857 212.941 118.331 212.702 117.851C212.462 117.371 212.122 116.948 211.704 116.612C211.301 116.314 210.824 116.133 210.325 116.089C209.825 116.045 209.324 116.14 208.875 116.362C208.433 116.524 208.046 116.808 207.76 117.182C207.475 117.557 207.302 118.005 207.263 118.474C207.275 118.909 207.385 119.335 207.586 119.72C207.787 120.106 208.074 120.44 208.424 120.698C209.072 121.187 209.841 121.49 210.648 121.577C211.376 121.661 212.112 121.661 212.84 121.577C214.018 121.511 215.146 121.076 216.064 120.336C216.626 119.848 217.033 119.207 217.233 118.49C217.299 118.241 217.35 117.988 217.386 117.732Z" fill="#8043F9"/>
<path d="M154.381 138.044C155.303 138.308 156.248 138.486 157.202 138.576C158.232 138.597 159.256 138.417 160.217 138.044C161.396 137.586 162.502 136.955 163.497 136.174C165.299 134.741 166.586 132.76 167.164 130.532C167.363 129.593 167.497 128.643 167.567 127.687C167.655 127.946 167.69 128.22 167.672 128.493C167.688 129.21 167.621 129.927 167.471 130.628C166.968 132.982 165.663 135.088 163.779 136.585C162.743 137.395 161.588 138.04 160.354 138.495C159.341 138.865 158.262 139.019 157.186 138.946C156.465 138.891 155.756 138.728 155.082 138.463C154.827 138.364 154.59 138.222 154.381 138.044Z" fill="#8043F9"/>
<path d="M155.228 144.572C155.228 144.492 156.308 144.653 158.016 144.443C160.235 144.176 162.342 143.319 164.117 141.961C165.892 140.603 167.27 138.794 168.107 136.722C168.76 135.11 168.913 134.054 168.962 134.07C169.008 134.32 169.008 134.577 168.962 134.828C168.852 135.511 168.679 136.183 168.446 136.835C167.664 139.011 166.272 140.917 164.435 142.322C162.598 143.727 160.394 144.573 158.089 144.758C157.4 144.822 156.706 144.822 156.017 144.758C155.745 144.745 155.477 144.682 155.228 144.572Z" fill="#8043F9"/>
<path d="M179.553 156.364C179.506 156.383 179.454 156.388 179.405 156.377C179.355 156.367 179.31 156.341 179.275 156.304C179.24 156.267 179.218 156.221 179.21 156.171C179.202 156.121 179.21 156.069 179.232 156.024C179.255 155.978 179.29 155.94 179.334 155.916C179.378 155.891 179.429 155.88 179.48 155.884C179.53 155.889 179.578 155.909 179.617 155.941C179.656 155.973 179.684 156.017 179.698 156.066C179.708 156.095 179.712 156.126 179.71 156.156C179.709 156.187 179.701 156.217 179.687 156.245C179.674 156.273 179.655 156.298 179.632 156.318C179.609 156.338 179.582 156.354 179.553 156.364Z" fill="#EB996E"/>
<path d="M183.381 155.244C183.329 155.273 183.268 155.286 183.208 155.279C183.148 155.273 183.091 155.248 183.046 155.208C183.001 155.168 182.969 155.115 182.956 155.056C182.942 154.997 182.947 154.936 182.971 154.88C182.994 154.824 183.034 154.777 183.085 154.745C183.136 154.713 183.196 154.698 183.256 154.701C183.317 154.705 183.374 154.727 183.421 154.765C183.468 154.803 183.502 154.855 183.518 154.913C183.531 154.944 183.538 154.977 183.538 155.01C183.539 155.043 183.532 155.077 183.519 155.107C183.507 155.138 183.488 155.166 183.464 155.189C183.44 155.213 183.412 155.231 183.381 155.244Z" fill="#EB996E"/>
<path d="M185.993 154.994C185.872 154.994 185.743 154.881 185.702 154.679C185.662 154.478 185.702 154.301 185.856 154.276C186.009 154.252 186.105 154.389 186.146 154.591C186.186 154.792 186.113 154.97 185.993 154.994Z" fill="#EB996E"/>
<path d="M181.632 158.701C181.503 158.701 181.398 158.653 181.398 158.572C181.398 158.492 181.487 158.427 181.608 158.419C181.729 158.411 181.842 158.468 181.842 158.548C181.842 158.629 181.753 158.693 181.632 158.701Z" fill="#EB996E"/>
<path d="M185.138 157.629C185.088 157.643 185.035 157.642 184.985 157.625C184.936 157.608 184.893 157.576 184.862 157.534C184.831 157.492 184.813 157.442 184.811 157.39C184.81 157.338 184.824 157.286 184.852 157.242C184.88 157.198 184.921 157.164 184.969 157.143C185.017 157.123 185.07 157.118 185.121 157.128C185.172 157.139 185.219 157.165 185.255 157.202C185.291 157.24 185.315 157.288 185.324 157.339C185.332 157.371 185.334 157.403 185.329 157.435C185.324 157.467 185.312 157.498 185.295 157.525C185.277 157.552 185.254 157.576 185.227 157.594C185.2 157.612 185.17 157.624 185.138 157.629Z" fill="#EB996E"/>
<path d="M203.563 154.131C203.515 154.152 203.462 154.158 203.41 154.148C203.359 154.138 203.312 154.112 203.275 154.075C203.238 154.037 203.214 153.989 203.206 153.937C203.197 153.885 203.205 153.832 203.227 153.785C203.25 153.737 203.286 153.698 203.332 153.671C203.377 153.645 203.429 153.634 203.482 153.638C203.534 153.642 203.584 153.663 203.624 153.696C203.665 153.73 203.694 153.775 203.708 153.825C203.72 153.855 203.725 153.886 203.724 153.918C203.723 153.95 203.715 153.981 203.702 154.009C203.688 154.038 203.669 154.064 203.645 154.085C203.621 154.106 203.593 154.121 203.563 154.131Z" fill="#EB996E"/>
<path d="M206.199 153.704C206.078 153.704 205.957 153.616 205.925 153.462C205.908 153.397 205.916 153.328 205.949 153.269C205.983 153.21 206.037 153.167 206.102 153.148C206.223 153.148 206.344 153.237 206.368 153.39C206.378 153.422 206.382 153.455 206.378 153.488C206.375 153.521 206.365 153.553 206.35 153.583C206.334 153.612 206.312 153.638 206.287 153.659C206.261 153.679 206.231 153.695 206.199 153.704Z" fill="#EB996E"/>
<path d="M201.226 154.357C201.199 154.371 201.17 154.379 201.14 154.381C201.109 154.382 201.079 154.377 201.051 154.365C201.024 154.353 200.999 154.335 200.979 154.312C200.959 154.289 200.945 154.262 200.936 154.233C200.928 154.204 200.927 154.173 200.932 154.144C200.938 154.114 200.95 154.086 200.968 154.061C200.985 154.037 201.008 154.017 201.035 154.002C201.062 153.988 201.091 153.98 201.121 153.978C201.148 153.964 201.177 153.956 201.208 153.954C201.238 153.953 201.268 153.959 201.296 153.971C201.324 153.982 201.348 154 201.368 154.023C201.388 154.046 201.403 154.073 201.411 154.102C201.419 154.131 201.42 154.162 201.415 154.192C201.409 154.221 201.397 154.249 201.38 154.274C201.362 154.298 201.339 154.319 201.312 154.333C201.286 154.347 201.256 154.356 201.226 154.357Z" fill="#EB996E"/>
<path d="M203.37 156.872C203.341 156.885 203.311 156.893 203.279 156.894C203.248 156.895 203.216 156.889 203.187 156.878C203.158 156.867 203.131 156.85 203.108 156.828C203.086 156.806 203.068 156.78 203.056 156.751C203.037 156.725 203.024 156.695 203.017 156.663C203.011 156.632 203.011 156.599 203.019 156.568C203.026 156.536 203.04 156.507 203.06 156.481C203.079 156.456 203.104 156.435 203.133 156.419C203.161 156.404 203.193 156.395 203.225 156.393C203.257 156.392 203.289 156.396 203.319 156.408C203.35 156.42 203.377 156.437 203.399 156.46C203.422 156.483 203.439 156.511 203.451 156.541C203.483 156.596 203.493 156.661 203.478 156.723C203.463 156.785 203.424 156.838 203.37 156.872Z" fill="#EB996E"/>
<path d="M205.611 156.267C205.583 156.264 205.556 156.256 205.532 156.242C205.508 156.229 205.486 156.211 205.469 156.189C205.452 156.167 205.439 156.142 205.432 156.116C205.424 156.089 205.422 156.061 205.425 156.034C205.428 155.988 205.444 155.944 205.472 155.907C205.5 155.871 205.538 155.844 205.582 155.83C205.626 155.816 205.672 155.816 205.716 155.829C205.76 155.843 205.799 155.869 205.827 155.905C205.856 155.941 205.873 155.985 205.876 156.03C205.879 156.076 205.868 156.122 205.844 156.161C205.821 156.2 205.786 156.232 205.744 156.251C205.702 156.27 205.656 156.275 205.611 156.267Z" fill="#EB996E"/>
<path d="M159.483 168.261C159.32 168.941 159.284 169.646 159.378 170.34C159.513 171.067 159.912 171.719 160.499 172.17C160.844 172.443 161.25 172.628 161.682 172.71C162.115 172.791 162.561 172.766 162.981 172.637C163.389 172.49 163.752 172.239 164.034 171.91C164.317 171.581 164.509 171.185 164.593 170.759C164.663 170.024 164.478 169.287 164.069 168.672C163.714 168.067 163.223 167.554 162.635 167.172C162.635 167.108 163.57 167.326 164.343 168.502C164.837 169.171 165.072 169.995 165.004 170.824C164.917 171.335 164.694 171.812 164.358 172.207C164.021 172.601 163.585 172.897 163.094 173.064C162.603 173.217 162.083 173.244 161.579 173.144C161.075 173.044 160.604 172.82 160.209 172.492C159.559 171.969 159.137 171.215 159.032 170.388C158.949 169.847 158.999 169.294 159.177 168.776C159.33 168.454 159.459 168.252 159.483 168.261Z" fill="#35323F"/>
<path d="M159.403 166.729C159.403 166.681 159.741 166.818 159.951 167.309C160.057 167.607 160.057 167.931 159.951 168.228C159.886 168.415 159.779 168.584 159.64 168.723C159.5 168.863 159.331 168.969 159.145 169.034C158.952 169.097 158.747 169.112 158.547 169.077C158.348 169.042 158.16 168.958 158 168.833C157.869 168.733 157.764 168.604 157.694 168.455C157.624 168.306 157.591 168.143 157.597 167.978C157.638 167.414 158.008 167.245 158.024 167.293C158.041 167.342 157.863 167.567 157.92 167.97C157.931 168.077 157.966 168.18 158.022 168.272C158.077 168.364 158.153 168.443 158.242 168.502C158.351 168.575 158.475 168.622 158.605 168.64C158.735 168.659 158.867 168.647 158.992 168.607C159.119 168.56 159.235 168.487 159.332 168.393C159.429 168.299 159.505 168.185 159.556 168.059C159.647 167.846 159.67 167.609 159.62 167.382C159.588 166.995 159.354 166.778 159.403 166.729Z" fill="#35323F"/>
<path d="M229.097 284.365L227.558 301.444H235.618L242.743 301.331C245.457 301.626 248.19 301.699 250.916 301.549C251.047 301.551 251.178 301.52 251.295 301.46C251.717 301.402 252.133 301.302 252.536 301.162C253.261 300.896 254.011 300.428 253.898 299.63C253.543 297.212 252.093 296.987 252.093 296.987L251.359 296.938L251.303 296.729C252.407 296.729 253.334 296.729 253.826 296.648C254.059 296.648 254.188 296.592 254.204 296.56C254.22 296.527 257.058 296.221 256.84 294.714C256.493 292.296 255.035 292.07 255.035 292.07L252.689 291.917C253.826 291.917 254.793 291.917 255.301 291.836C255.526 291.836 255.663 291.788 255.679 291.756C255.695 291.724 258.533 291.409 258.315 289.902C257.96 287.484 256.51 287.266 256.51 287.266L254.567 287.129C255.486 287.129 256.252 287.129 256.679 287.057C256.913 287.057 257.041 287 257.058 286.968C257.074 286.936 259.911 286.63 259.693 285.122C259.347 282.704 257.888 282.479 257.888 282.479C257.888 282.479 253.398 282.156 250.319 282.036C250.319 282.036 246.821 278.876 245.483 279.021C243.428 279.239 231.459 283.664 231.459 283.664L229.097 284.365Z" fill="#FFBE9D"/>
<path d="M244.218 296.406C244.218 296.552 246.015 296.721 248.208 296.793C250.4 296.866 252.173 296.793 252.157 296.664C252.141 296.535 250.36 296.35 248.167 296.278C245.975 296.205 244.218 296.269 244.218 296.406Z" fill="#EB996E"/>
<path d="M244.17 291.579C244.17 291.716 246.709 291.925 249.812 292.038C252.915 292.151 255.454 292.119 255.502 291.982C255.55 291.845 252.963 291.627 249.86 291.522C246.757 291.417 244.218 291.433 244.17 291.579Z" fill="#EB996E"/>
<g opacity="0.78">
<path d="M244.581 286.662C244.581 286.807 247.112 287.017 250.223 287.121C253.334 287.226 255.913 287.21 255.913 287.065C255.913 286.92 253.382 286.718 250.271 286.606C247.16 286.493 244.581 286.525 244.581 286.662Z" fill="#EB996E"/>
</g>
<path d="M251.617 282.052C251.022 282.161 250.417 282.207 249.812 282.189L245.451 282.334L241.091 282.487C240.488 282.559 239.88 282.559 239.277 282.487C239.864 282.326 240.467 282.234 241.075 282.213C242.187 282.1 243.734 281.987 245.435 281.931C247.136 281.874 248.659 281.874 249.812 281.931C250.416 281.896 251.023 281.936 251.617 282.052Z" fill="#EB996E"/>
<path d="M229.315 281.85H229.033L228.227 281.81L225.084 281.624L213.534 280.915C203.773 280.319 190.289 279.472 175.394 278.715L167.414 278.352H167.221V278.159C167.1 274.935 166.802 271.759 166.568 268.728C166.334 265.698 166.06 262.788 165.818 260.032C165.335 254.519 164.9 249.602 164.529 245.483C164.158 241.365 163.884 238.1 163.723 235.811C163.626 234.699 163.562 233.829 163.505 233.208C163.505 232.926 163.505 232.7 163.465 232.531C163.458 232.453 163.458 232.375 163.465 232.297C163.489 232.37 163.503 232.446 163.505 232.523C163.505 232.7 163.554 232.918 163.594 233.2C163.658 233.821 163.755 234.691 163.876 235.803C164.11 238.092 164.44 241.381 164.851 245.475C165.262 249.57 165.714 254.503 166.238 259.983C166.479 262.74 166.737 265.625 167.044 268.68C167.35 271.735 167.592 274.854 167.721 278.143L167.519 277.933L175.507 278.288C190.401 279.045 203.886 279.94 213.638 280.609L225.188 281.415L228.324 281.673L229.13 281.753L229.315 281.85Z" fill="#8043F9"/>
<path d="M173 301.444C172.828 301.173 172.693 300.88 172.597 300.574C172.448 300.231 172.324 299.878 172.226 299.518C172.07 299.045 171.943 298.563 171.847 298.075C171.711 297.485 171.612 296.888 171.549 296.286C171.468 295.598 171.423 294.907 171.412 294.214C171.377 291.018 172.089 287.858 173.492 284.985C173.798 284.364 174.137 283.758 174.507 283.172C174.827 282.659 175.174 282.164 175.547 281.689C175.844 281.269 176.167 280.868 176.514 280.488C176.759 280.197 177.029 279.927 177.32 279.682C177.545 279.453 177.79 279.245 178.054 279.061C178.118 279.126 177.086 280.029 175.805 281.794C175.454 282.273 175.128 282.771 174.83 283.285C174.483 283.825 174.193 284.445 173.862 285.082C172.514 287.93 171.81 291.039 171.799 294.19C171.797 294.871 171.829 295.551 171.896 296.229C171.942 296.822 172.023 297.411 172.137 297.994C172.54 300.122 173.08 301.38 173 301.444Z" fill="white"/>
<path d="M279.182 301.508C279.182 301.621 245.62 301.718 204.224 301.718C162.828 301.718 129.266 301.621 129.266 301.508C129.266 301.396 162.82 301.299 204.224 301.299C245.629 301.299 279.182 301.388 279.182 301.508Z" fill="#35323F"/>
<path d="M261.354 37.882L146.289 37.7772C142.994 37.7751 139.731 38.4227 136.686 39.683C133.641 40.9433 130.875 42.7915 128.545 45.1219C126.216 47.4523 124.368 50.2192 123.109 53.2643C121.85 56.3093 121.203 59.5728 121.206 62.868L121.15 351.352C121.156 357.993 123.798 364.361 128.494 369.058C133.191 373.754 139.558 376.396 146.2 376.402L261.273 376.466C264.564 376.469 267.824 375.822 270.866 374.564C273.907 373.307 276.671 371.462 279 369.136C281.328 366.809 283.175 364.047 284.436 361.007C285.697 357.966 286.347 354.707 286.348 351.416L286.404 62.9325C286.402 56.2893 283.762 49.9189 279.065 45.2215C274.367 40.5241 267.997 37.8841 261.354 37.882ZM278.723 347.217C278.72 349.522 278.262 351.803 277.377 353.932C276.492 356.06 275.196 357.993 273.564 359.62C271.931 361.247 269.994 362.537 267.863 363.415C265.732 364.293 263.449 364.743 261.144 364.739L146.305 364.675C144 364.674 141.717 364.219 139.588 363.335C137.458 362.452 135.524 361.158 133.894 359.527C132.265 357.897 130.973 355.961 130.092 353.83C129.21 351.7 128.757 349.417 128.758 347.112L128.815 65.5359C128.814 63.2296 129.267 60.9457 130.15 58.8149C131.032 56.684 132.326 54.748 133.957 53.1176C135.588 51.4872 137.525 50.1943 139.656 49.313C141.787 48.4316 144.071 47.9791 146.378 47.9812H173.782C175.247 48.015 176.639 48.6275 177.654 49.6847C178.669 50.7419 179.224 52.1579 179.198 53.6232V57.6532C179.172 59.1185 179.727 60.5345 180.742 61.5917C181.757 62.6489 183.149 63.2613 184.614 63.2952H228.138C229.606 63.2655 231.001 62.6547 232.018 61.5968C233.035 60.5389 233.591 59.1205 233.563 57.6532V53.6232C233.535 52.1573 234.089 50.7401 235.104 49.6824C236.12 48.6247 237.513 48.0129 238.979 47.9812H261.289C263.595 47.9896 265.877 48.4523 268.004 49.3429C270.131 50.2334 272.062 51.5343 273.686 53.1712C275.31 54.8082 276.596 56.7491 277.47 58.8831C278.344 61.0171 278.789 63.3024 278.779 65.6084L278.723 347.217Z" fill="#35323F"/>
<path d="M237.262 301.508H177.554V328.09H237.262V301.508Z" fill="#35323F"/>
<path d="M278.731 301.508H227.373C227.373 312.833 217.701 322.045 205.901 322.045C194.101 322.045 184.437 312.833 184.437 301.508H128.823V347.571C128.825 352.22 130.671 356.678 133.956 359.968C137.241 363.257 141.697 365.109 146.345 365.118L261.184 365.182C263.491 365.185 265.775 364.732 267.906 363.851C270.037 362.969 271.974 361.676 273.605 360.046C275.236 358.416 276.53 356.48 277.412 354.349C278.294 352.218 278.748 349.934 278.747 347.628L278.731 301.508Z" fill="#8043F9"/>
<path d="M187.435 329.718H190.949C193.48 329.718 195.221 331.25 195.221 333.587C195.221 335.925 193.48 337.456 190.949 337.456H187.435V329.718ZM190.861 335.989C191.202 336.033 191.548 336.005 191.877 335.904C192.206 335.804 192.51 335.635 192.768 335.408C193.026 335.181 193.233 334.902 193.375 334.588C193.517 334.275 193.59 333.935 193.59 333.591C193.59 333.247 193.517 332.908 193.375 332.594C193.233 332.281 193.026 332.002 192.768 331.775C192.51 331.548 192.206 331.379 191.877 331.278C191.548 331.178 191.202 331.149 190.861 331.193H189.249V335.989H190.861Z" fill="white"/>
<path d="M201.702 334.063V337.456H200.09V336.723C199.886 337.006 199.611 337.231 199.292 337.372C198.974 337.514 198.623 337.568 198.276 337.529C196.882 337.529 196.051 336.723 196.051 335.731C196.051 334.74 196.793 333.95 198.606 333.95H199.977C199.977 333.208 199.533 332.781 198.606 332.781C197.993 332.776 197.394 332.968 196.898 333.329L196.277 332.128C197.04 331.636 197.933 331.383 198.84 331.403C200.694 331.419 201.702 332.265 201.702 334.063ZM199.977 335.578V334.974H198.8C197.994 334.974 197.736 335.272 197.736 335.667C197.736 336.062 198.099 336.384 198.703 336.384C198.974 336.404 199.244 336.336 199.473 336.191C199.702 336.046 199.879 335.831 199.977 335.578Z" fill="white"/>
<path d="M209.342 334.055V337.456H207.618V334.321C207.618 333.362 207.174 332.918 206.409 332.918C205.643 332.918 204.982 333.426 204.982 334.53V337.464H203.257V331.524H204.869V332.217C205.122 331.952 205.428 331.743 205.766 331.604C206.105 331.465 206.47 331.4 206.836 331.411C208.278 331.419 209.342 332.241 209.342 334.055Z" fill="white"/>
<path d="M210.688 329.718C210.691 329.584 210.722 329.451 210.778 329.328C210.834 329.205 210.915 329.096 211.016 329.006C211.116 328.916 211.234 328.848 211.362 328.805C211.491 328.763 211.626 328.747 211.76 328.759C211.893 328.745 212.026 328.758 212.153 328.797C212.28 328.837 212.398 328.902 212.498 328.989C212.599 329.076 212.681 329.183 212.738 329.303C212.795 329.423 212.828 329.553 212.832 329.686C212.833 329.824 212.805 329.96 212.75 330.086C212.695 330.213 212.615 330.326 212.514 330.42C212.414 330.514 212.295 330.586 212.165 330.631C212.035 330.677 211.898 330.696 211.76 330.686C211.626 330.697 211.49 330.68 211.362 330.637C211.234 330.593 211.116 330.524 211.015 330.434C210.915 330.343 210.834 330.233 210.778 330.11C210.722 329.987 210.691 329.854 210.688 329.718ZM210.898 331.516H212.623V337.456H210.898V331.516Z" fill="white"/>
<path d="M220.038 334.974H215.541C215.638 335.341 215.862 335.662 216.173 335.881C216.484 336.099 216.863 336.2 217.241 336.166C217.516 336.178 217.79 336.134 218.046 336.035C218.303 335.937 218.536 335.787 218.732 335.594L219.651 336.586C219.341 336.911 218.965 337.165 218.547 337.331C218.13 337.496 217.682 337.569 217.233 337.545C215.178 337.545 213.84 336.255 213.84 334.482C213.835 334.069 213.915 333.66 214.073 333.28C214.232 332.899 214.467 332.555 214.764 332.268C215.06 331.981 215.412 331.758 215.798 331.612C216.184 331.466 216.595 331.4 217.007 331.419C217.412 331.408 217.814 331.48 218.19 331.631C218.566 331.781 218.906 332.008 219.19 332.296C219.474 332.584 219.696 332.927 219.842 333.305C219.988 333.682 220.055 334.086 220.038 334.49C220.038 334.643 220.038 334.829 220.038 334.974ZM215.516 333.966H218.426C218.363 333.623 218.182 333.312 217.914 333.089C217.646 332.865 217.308 332.742 216.959 332.742C216.61 332.742 216.272 332.865 216.004 333.089C215.736 333.312 215.555 333.623 215.492 333.966H215.516Z" fill="white"/>
<path d="M221.199 329.259H222.923V337.456H221.199V329.259Z" fill="white"/>
<path d="M198.51 343.017V347.555H198.179V343.356H197.075V343.058L198.51 343.017Z" fill="white"/>
<path d="M199.662 345.29C199.662 343.872 200.396 342.985 201.435 342.985C202.475 342.985 203.217 343.872 203.217 345.29C203.217 346.709 202.483 347.588 201.435 347.588C200.388 347.588 199.662 346.709 199.662 345.29ZM202.886 345.29C202.886 344.025 202.298 343.292 201.435 343.292C200.573 343.292 199.993 344.025 199.993 345.29C199.993 346.556 200.581 347.281 201.435 347.281C202.29 347.281 202.886 346.58 202.886 345.29Z" fill="white"/>
<path d="M203.918 344.42C203.911 344.381 203.913 344.34 203.923 344.302C203.934 344.263 203.953 344.227 203.978 344.197C204.004 344.166 204.036 344.142 204.072 344.125C204.109 344.108 204.148 344.099 204.188 344.099C204.228 344.099 204.267 344.108 204.304 344.125C204.34 344.142 204.372 344.166 204.398 344.197C204.423 344.227 204.442 344.263 204.453 344.302C204.463 344.34 204.465 344.381 204.458 344.42C204.465 344.459 204.463 344.5 204.453 344.538C204.442 344.577 204.423 344.613 204.398 344.643C204.372 344.674 204.34 344.698 204.304 344.715C204.267 344.732 204.228 344.741 204.188 344.741C204.148 344.741 204.109 344.732 204.072 344.715C204.036 344.698 204.004 344.674 203.978 344.643C203.953 344.613 203.934 344.577 203.923 344.538C203.913 344.5 203.911 344.459 203.918 344.42ZM203.918 347.305C203.911 347.266 203.913 347.226 203.923 347.187C203.934 347.149 203.953 347.113 203.978 347.082C204.004 347.052 204.036 347.027 204.072 347.01C204.109 346.993 204.148 346.985 204.188 346.985C204.228 346.985 204.267 346.993 204.304 347.01C204.34 347.027 204.372 347.052 204.398 347.082C204.423 347.113 204.442 347.149 204.453 347.187C204.463 347.226 204.465 347.266 204.458 347.305C204.465 347.345 204.463 347.385 204.453 347.424C204.442 347.462 204.423 347.498 204.398 347.529C204.372 347.559 204.34 347.584 204.304 347.601C204.267 347.618 204.228 347.626 204.188 347.626C204.148 347.626 204.109 347.618 204.072 347.601C204.036 347.584 204.004 347.559 203.978 347.529C203.953 347.498 203.934 347.462 203.923 347.424C203.913 347.385 203.911 347.345 203.918 347.305Z" fill="white"/>
<path d="M205.224 345.29C205.224 343.872 205.957 342.985 207.005 342.985C208.053 342.985 208.778 343.872 208.778 345.29C208.778 346.709 208.045 347.588 207.005 347.588C205.965 347.588 205.224 346.709 205.224 345.29ZM208.448 345.29C208.448 344.025 207.859 343.292 207.005 343.292C206.151 343.292 205.554 344.025 205.554 345.29C205.554 346.556 206.151 347.281 207.005 347.281C207.859 347.281 208.448 346.58 208.448 345.29Z" fill="white"/>
<path d="M213.284 346.298H212.325V347.555H211.978V346.298H209.391V346.056L211.857 343.017H212.228L209.81 346.008H211.978V344.895H212.292V346.008H213.251L213.284 346.298Z" fill="white"/>
<path d="M157.976 323.021H147.708C145.727 323.021 144.121 324.626 144.121 326.607V336.876C144.121 338.857 145.727 340.462 147.708 340.462H157.976C159.957 340.462 161.563 338.857 161.563 336.876V326.607C161.563 324.626 159.957 323.021 157.976 323.021Z" fill="#FAFAFA"/>
<path d="M261.652 339.27H251.98C250.976 339.267 250.013 338.868 249.303 338.158C248.593 337.448 248.194 336.485 248.192 335.481V325.809C248.194 324.806 248.594 323.845 249.304 323.136C250.014 322.427 250.976 322.029 251.98 322.029H261.652C262.655 322.029 263.617 322.427 264.328 323.136C265.038 323.845 265.438 324.806 265.44 325.809V335.481C265.438 336.485 265.038 337.448 264.328 338.158C263.618 338.868 262.656 339.267 261.652 339.27ZM251.98 322.424C251.083 322.424 250.224 322.78 249.589 323.413C248.954 324.046 248.597 324.905 248.595 325.801V335.473C248.597 336.37 248.954 337.23 249.588 337.865C250.223 338.499 251.083 338.856 251.98 338.859H261.652C262.55 338.859 263.411 338.502 264.045 337.867C264.68 337.232 265.037 336.371 265.037 335.473V325.801C265.035 324.905 264.677 324.046 264.043 323.413C263.408 322.78 262.548 322.424 261.652 322.424H251.98Z" fill="white"/>
<path d="M156.017 328.904H149.658C149.444 328.904 149.239 328.989 149.088 329.14C148.937 329.292 148.852 329.497 148.852 329.71V333.918C148.852 334.132 148.937 334.337 149.088 334.488C149.239 334.639 149.444 334.724 149.658 334.724H150.198V336.578L152.342 334.724H156.017C156.231 334.724 156.436 334.639 156.587 334.488C156.738 334.337 156.823 334.132 156.823 333.918V329.735C156.827 329.627 156.808 329.519 156.769 329.419C156.73 329.318 156.671 329.226 156.596 329.149C156.521 329.072 156.431 329.01 156.332 328.968C156.232 328.926 156.125 328.904 156.017 328.904ZM150.819 332.612C150.694 332.614 150.571 332.578 150.466 332.509C150.362 332.441 150.28 332.343 150.231 332.228C150.183 332.112 150.17 331.985 150.194 331.863C150.218 331.74 150.278 331.627 150.366 331.539C150.455 331.45 150.567 331.39 150.69 331.366C150.813 331.342 150.94 331.356 151.055 331.404C151.17 331.453 151.268 331.534 151.337 331.639C151.405 331.744 151.441 331.866 151.439 331.991C151.439 332.156 151.374 332.314 151.258 332.43C151.141 332.547 150.983 332.612 150.819 332.612ZM152.753 332.612C152.628 332.612 152.507 332.575 152.403 332.505C152.299 332.436 152.219 332.337 152.172 332.222C152.124 332.107 152.112 331.98 152.137 331.858C152.162 331.736 152.223 331.624 152.311 331.536C152.4 331.448 152.513 331.389 152.635 331.366C152.758 331.342 152.885 331.356 152.999 331.405C153.114 331.454 153.212 331.536 153.28 331.64C153.348 331.744 153.383 331.867 153.382 331.991C153.38 332.157 153.312 332.315 153.195 332.431C153.077 332.547 152.918 332.612 152.753 332.612ZM154.825 332.612C154.7 332.612 154.578 332.575 154.474 332.505C154.371 332.436 154.29 332.337 154.243 332.222C154.196 332.107 154.184 331.98 154.209 331.858C154.233 331.736 154.294 331.624 154.383 331.536C154.472 331.448 154.584 331.389 154.707 331.366C154.829 331.342 154.956 331.356 155.071 331.405C155.185 331.454 155.283 331.536 155.351 331.64C155.419 331.744 155.455 331.867 155.453 331.991C155.451 332.157 155.384 332.315 155.266 332.431C155.149 332.547 154.99 332.612 154.825 332.612Z" fill="#8043F9"/>
<path d="M254.599 332.878C254.55 332.876 254.503 332.856 254.467 332.822C254.432 332.788 254.41 332.742 254.406 332.693C253.922 328.663 256.921 327.397 256.953 327.389C257.001 327.37 257.055 327.37 257.103 327.39C257.151 327.409 257.189 327.447 257.211 327.494C257.223 327.518 257.229 327.544 257.23 327.571C257.231 327.598 257.227 327.625 257.217 327.65C257.207 327.675 257.192 327.698 257.173 327.717C257.154 327.736 257.131 327.75 257.106 327.76C256.993 327.808 254.357 328.945 254.801 332.652C254.804 332.678 254.802 332.705 254.795 332.73C254.788 332.755 254.775 332.779 254.759 332.799C254.742 332.82 254.722 332.836 254.698 332.849C254.675 332.861 254.65 332.868 254.623 332.87L254.599 332.878Z" fill="white"/>
<path d="M254.599 332.878C254.541 332.875 254.486 332.849 254.446 332.805L253.181 331.314C253.161 331.296 253.146 331.273 253.135 331.248C253.124 331.223 253.119 331.196 253.119 331.169C253.119 331.142 253.124 331.115 253.135 331.09C253.146 331.066 253.161 331.043 253.181 331.024C253.219 330.989 253.27 330.97 253.322 330.97C253.374 330.97 253.424 330.989 253.463 331.024L254.567 332.33L255.542 331.032C255.56 331.013 255.582 330.998 255.606 330.987C255.631 330.977 255.657 330.971 255.683 330.971C255.71 330.971 255.736 330.977 255.76 330.987C255.784 330.998 255.806 331.013 255.824 331.032C255.846 331.048 255.863 331.068 255.877 331.091C255.89 331.114 255.899 331.139 255.903 331.165C255.907 331.191 255.905 331.218 255.899 331.243C255.892 331.269 255.881 331.293 255.865 331.314L254.736 332.805C254.718 332.829 254.695 332.848 254.668 332.862C254.642 332.876 254.613 332.884 254.583 332.886L254.599 332.878Z" fill="white"/>
<path d="M256.598 333.926C256.558 333.925 256.519 333.913 256.486 333.89C256.453 333.867 256.427 333.834 256.413 333.797C256.394 333.749 256.394 333.695 256.413 333.647C256.433 333.599 256.47 333.56 256.518 333.539C256.63 333.491 259.266 332.346 258.823 328.646C258.819 328.62 258.821 328.593 258.828 328.567C258.836 328.542 258.848 328.518 258.864 328.497C258.881 328.476 258.901 328.458 258.925 328.445C258.948 328.432 258.974 328.424 259 328.421C259.053 328.418 259.105 328.434 259.146 328.467C259.188 328.5 259.216 328.546 259.226 328.598C259.701 332.628 256.703 333.894 256.671 333.91L256.598 333.926Z" fill="white"/>
<path d="M257.92 330.315C257.876 330.316 257.833 330.302 257.799 330.275C257.756 330.243 257.728 330.195 257.721 330.142C257.713 330.089 257.727 330.035 257.759 329.993L258.887 328.501C258.905 328.477 258.928 328.457 258.954 328.443C258.981 328.429 259.01 328.421 259.04 328.421C259.099 328.424 259.154 328.45 259.193 328.493L260.459 329.984C260.496 330.022 260.517 330.073 260.517 330.126C260.517 330.178 260.496 330.229 260.459 330.267C260.42 330.304 260.368 330.325 260.314 330.325C260.26 330.325 260.208 330.304 260.169 330.267L259.065 328.961L258.089 330.25C258.069 330.275 258.043 330.293 258.013 330.305C257.983 330.316 257.951 330.32 257.92 330.315Z" fill="white"/>
<path d="M152.713 90.9571C159.265 90.9571 164.577 85.6453 164.577 79.0928C164.577 72.5403 159.265 67.2285 152.713 67.2285C146.16 67.2285 140.848 72.5403 140.848 79.0928C140.848 85.6453 146.16 90.9571 152.713 90.9571Z" fill="#2E2A39"/>
<path d="M152.076 82.5586C152.021 82.5561 151.97 82.5331 151.931 82.4941L148.836 79.2701C148.801 79.2315 148.781 79.1812 148.781 79.1291C148.781 79.0769 148.801 79.0266 148.836 78.988L151.931 75.764C151.97 75.7266 152.022 75.7057 152.076 75.7057C152.13 75.7057 152.182 75.7266 152.221 75.764C152.241 75.7828 152.256 75.8053 152.267 75.8303C152.277 75.8552 152.283 75.882 152.283 75.9091C152.283 75.9362 152.277 75.963 152.267 75.9879C152.256 76.0128 152.241 76.0354 152.221 76.0542L149.263 79.1653L152.221 82.2845C152.241 82.3033 152.256 82.3259 152.267 82.3508C152.277 82.3757 152.283 82.4025 152.283 82.4296C152.283 82.4567 152.277 82.4835 152.267 82.5085C152.256 82.5334 152.241 82.5559 152.221 82.5747C152.172 82.585 152.121 82.5793 152.076 82.5586Z" fill="#BCBBC0"/>
<path d="M157.452 79.2943H148.981C148.928 79.2943 148.876 79.2731 148.839 79.2353C148.801 79.1975 148.78 79.1462 148.78 79.0928C148.782 79.04 148.803 78.9899 148.841 78.9525C148.878 78.9151 148.928 78.8933 148.981 78.8913H157.452C157.506 78.8913 157.557 78.9125 157.595 78.9503C157.632 78.9881 157.654 79.0393 157.654 79.0928C157.654 79.1462 157.632 79.1975 157.595 79.2353C157.557 79.2731 157.506 79.2943 157.452 79.2943Z" fill="#BCBBC0"/>
<path d="M269.641 288.279C270.589 282.462 266.643 276.978 260.826 276.03C255.009 275.081 249.525 279.028 248.576 284.845C247.628 290.662 251.575 296.146 257.391 297.094C263.208 298.043 268.693 294.096 269.641 288.279Z" fill="#8043F9"/>
<path d="M259.097 288.935C258.587 288.935 258.098 288.733 257.737 288.374C257.376 288.014 257.173 287.526 257.17 287.017V282.817C257.17 282.306 257.373 281.816 257.735 281.455C258.096 281.094 258.586 280.891 259.097 280.891C259.608 280.891 260.098 281.094 260.459 281.455C260.82 281.816 261.023 282.306 261.023 282.817V287.017C261.021 287.526 260.817 288.014 260.456 288.374C260.095 288.733 259.606 288.935 259.097 288.935ZM259.097 281.302C258.694 281.302 258.308 281.461 258.022 281.745C257.737 282.029 257.576 282.415 257.573 282.817V287.017C257.573 287.421 257.734 287.808 258.02 288.094C258.305 288.379 258.693 288.54 259.097 288.54C259.501 288.54 259.888 288.379 260.174 288.094C260.46 287.808 260.62 287.421 260.62 287.017V282.817C260.62 282.413 260.46 282.026 260.174 281.74C259.888 281.454 259.501 281.294 259.097 281.294V281.302Z" fill="white"/>
<path d="M259.097 290.289C258.596 290.317 258.095 290.235 257.629 290.05C257.162 289.865 256.742 289.581 256.397 289.217C255.622 288.196 255.257 286.923 255.373 285.646C255.378 285.593 255.405 285.544 255.446 285.51C255.488 285.476 255.541 285.46 255.595 285.465C255.648 285.47 255.697 285.497 255.731 285.538C255.765 285.58 255.781 285.633 255.776 285.687C255.678 286.85 256.005 288.009 256.695 288.951C257.006 289.273 257.383 289.523 257.801 289.685C258.218 289.846 258.666 289.915 259.113 289.886C259.559 289.906 260.004 289.833 260.42 289.672C260.836 289.511 261.214 289.266 261.531 288.951C262.279 288.024 262.67 286.861 262.635 285.671C262.635 285.619 262.655 285.568 262.691 285.531C262.727 285.493 262.776 285.471 262.829 285.469C262.855 285.468 262.881 285.472 262.906 285.481C262.931 285.49 262.954 285.504 262.973 285.522C262.993 285.54 263.009 285.562 263.02 285.586C263.031 285.61 263.037 285.636 263.038 285.663C263.081 286.961 262.649 288.231 261.821 289.233C261.465 289.589 261.039 289.866 260.57 290.048C260.101 290.23 259.599 290.312 259.097 290.289Z" fill="white"/>
<path d="M259.097 293.239C259.043 293.239 258.992 293.218 258.954 293.18C258.917 293.142 258.895 293.091 258.895 293.037V290.087C258.895 290.034 258.917 289.983 258.954 289.945C258.992 289.907 259.043 289.886 259.097 289.886C259.15 289.886 259.201 289.907 259.239 289.945C259.277 289.983 259.298 290.034 259.298 290.087V293.037C259.298 293.091 259.277 293.142 259.239 293.18C259.201 293.218 259.15 293.239 259.097 293.239Z" fill="white"/>
<path d="M205.901 319.353C216.264 319.353 224.664 310.953 224.664 300.59C224.664 290.227 216.264 281.826 205.901 281.826C195.538 281.826 187.137 290.227 187.137 300.59C187.137 310.953 195.538 319.353 205.901 319.353Z" fill="#8043F9"/>
<path d="M204.232 295.399C203.864 295.107 203.436 294.898 202.979 294.789C202.522 294.679 202.046 294.671 201.585 294.765C201.125 294.858 200.69 295.052 200.312 295.331C199.934 295.611 199.621 295.969 199.396 296.382C199.181 296.776 199.108 297.231 199.191 297.672C199.273 298.113 199.505 298.511 199.848 298.8C201.573 300.493 205.191 303.886 206.763 305.361C207.188 305.766 207.698 306.069 208.256 306.249C208.815 306.429 209.406 306.481 209.987 306.401C210.443 306.335 210.88 306.175 211.271 305.933C211.662 305.69 211.999 305.369 212.26 304.99C214.041 302.572 209.786 300.654 209.786 300.654L207.924 302.605L203.588 298.422L205.49 296.326L204.232 295.399Z" fill="white"/>
</svg>
