<svg xmlns="http://www.w3.org/2000/svg" viewBox="0 0 500 500"><g id="freepik--background-simple--inject-1"><g id="freepik--group--inject-1"><path id="freepik--path--inject-1" d="M367.66,308.3C276,374.31,149.81,324.35,173,197.08,184.92,131.47,24.78,141.39,84.6,80.7c82.45-83.63,125.82,70.11,186.81,97.24,41.81,18.59,92.13-42.76,136.08,10.4C442.24,230.37,405.76,280.85,367.66,308.3Z" style="fill:#8043F9"></path><path id="freepik--path--inject-1" d="M367.66,308.3C276,374.31,149.81,324.35,173,197.08,184.92,131.47,24.78,141.39,84.6,80.7c82.45-83.63,125.82,70.11,186.81,97.24,41.81,18.59,92.13-42.76,136.08,10.4C442.24,230.37,405.76,280.85,367.66,308.3Z" style="fill:#fff;opacity:0.9"></path></g></g><g id="freepik--Character--inject-1"><path d="M261.82,125.63c8,19.11,33.12,57.91,2.41,63.42s-43-3.56-45.48-15.83S228.37,103.85,261.82,125.63Z" style="fill:#263238"></path><path d="M292.6,272.13a74.35,74.35,0,0,1-4.94-7.95c-5.61-12-7.12-10.56-9.48-23.26-6.26-33.67-14.86-45.13-14.86-45.13l-26.24,4.54L222.61,222s25.26,32.74,38.33,58.6a43.71,43.71,0,0,0,7.69,11.3,15.59,15.59,0,0,0,24-19.78Z" style="fill:#263238"></path><path d="M293,276.2c-4.4-3.5-13.91-1.23-19.29,5.59S272.5,293,272.5,293C297,317.09,310.23,324.79,318,336.53l11.81-8C317,310.35,313.37,292.48,293,276.2Z" style="fill:#ff8b7b"></path><path d="M331.67,341.1a8.8,8.8,0,0,1-12-1.54c-9.56-11.74-23.75-21.91-25.28-23.47C291.15,312.83,312.9,298,314,300.16c1.34,2.72,11.62,17,19.86,28.66a8.78,8.78,0,0,1-2,12.14Z" style="fill:#e0e0e0"></path><path d="M221.69,136.28c-4.05-.32-8-.74-12-1.21s-8-1-11.94-1.63-8-1.29-12-2.09c-2-.41-4-.82-6.09-1.33-1-.23-2.1-.54-3.14-.81s-2.22-.68-3.32-1l-.2-.06a6.23,6.23,0,0,1-.79-.33c-3.13-1.68-6-3.48-8.78-5.31s-5.5-3.75-8.19-5.67-5.29-4-7.87-6-5.11-4.13-7.59-6.36a4.12,4.12,0,0,1,4.48-6.8l0,0c2.93,1.36,5.85,2.82,8.75,4.25l8.65,4.33c2.86,1.47,5.74,2.88,8.57,4.28s5.68,2.73,8.4,3.9l-1-.4c.81.17,1.53.37,2.41.53s1.74.34,2.67.48l2.77.44,2.83.4q5.72.75,11.54,1.42l11.67,1.29,11.67,1.32a8.22,8.22,0,0,1-1.55,16.37Z" style="fill:#ff8b7b"></path><path d="M230,118.88c-6.48-7-19.94-5.45-30.68-3.51-4.79,5.86.33,23.27.33,23.27,3.46.28,12.34,3.89,21.13.46C233.63,134.09,233.5,122.69,230,118.88Z" style="fill:#8043F9"></path><path d="M146.93,99.91l-5.55-8.5-7.93,9.25s6,7.09,10.25,4.53Z" style="fill:#ff8b7b"></path><path d="M131.07,89.16l-2.23,3.71a3.52,3.52,0,0,0,.74,4.5l3.87,3.29,7.93-9.25L136,88A3.52,3.52,0,0,0,131.07,89.16Z" style="fill:#ff8b7b"></path><path d="M250.39,200.46s-49.4-9.52-76-21a43.21,43.21,0,0,0-13.12-3.73,15.59,15.59,0,0,0-5.71,30.54,76.24,76.24,0,0,1,8.88,2.93c12,5.62,23.31,10.13,34,17.37,1,.68,1.94,1.41,2.95,2,17.05,10.37,35.81,18.78,51,8.57Z" style="fill:#263238"></path><path d="M271.59,132.33c.45,22.19-3.85,52.68-5.74,66.37a8.48,8.48,0,0,1-7.31,7.28c-26,3.09-42.88-8.92-48-14.69.34-21.15.48-45.76-.63-62.37a11.94,11.94,0,0,1,10.1-12.59,212.31,212.31,0,0,1,33.37-2A18.36,18.36,0,0,1,271.59,132.33Z" style="fill:#8043F9"></path><path d="M209.94,149.61s-.9,8.72,0,11.33c9.44-4.61,16.44-33.83,15-48a12.75,12.75,0,0,0-4.56.13S218.43,134,209.94,149.61Z" style="fill:#263238"></path><path d="M241.56,109.1a16.38,16.38,0,0,0,4.28,8.65c-.23,4.62-5,14.39-13.36,15.22-12.49,1.24-5.15-9.7-5.15-9.7Z" style="fill:#ff8b7b"></path><path d="M240.27,110.38l-12.94,12.89s-2.2,3.27-2.14,6A12.64,12.64,0,0,0,238.68,123C241,119,241.06,115.21,240.27,110.38Z" style="opacity:0.2"></path><path d="M240.11,97.8c2,9.63,3.69,15.16.18,21.34-5.28,9.29-18.31,8.18-23.2-.65-4.4-7.94-7-22.35,1.41-28.68A13.59,13.59,0,0,1,240.11,97.8Z" style="fill:#ff8b7b"></path><path d="M233.74,94.34c-2.76,3.2-.44,7.16,2.12,7.46-3.19,2.94-1,5.56,5.27,4.5,3.87-5,4.71-8.76,1.51-13C238.5,88.8,234.3,92.65,233.74,94.34Z" style="fill:#263238"></path><path d="M224.34,115.89a9.57,9.57,0,0,1-1.51.33.25.25,0,0,1-.28-.24.29.29,0,0,1,.25-.31,7.82,7.82,0,0,0,5.66-3.66.26.26,0,0,1,.36-.13.27.27,0,0,1,.1.37A8.17,8.17,0,0,1,224.34,115.89Z" style="fill:#263238"></path><path d="M247,107.19a9.32,9.32,0,0,1-3.81,6c-2.63,1.8-4.92-.45-5-3.59-.07-2.82,1.22-7.15,4.25-7.69S247.54,104.18,247,107.19Z" style="fill:#ff8b7b"></path><path d="M225.09,104.42c.17.79-.11,1.52-.63,1.63s-1.08-.45-1.25-1.24.11-1.52.63-1.63S224.92,103.63,225.09,104.42Z" style="fill:#263238"></path><path d="M215.83,106.66c.17.79-.11,1.52-.63,1.63s-1.08-.45-1.25-1.24.11-1.52.63-1.62S215.66,105.87,215.83,106.66Z" style="fill:#263238"></path><path d="M219.22,106.38s-.37,4.75-1.88,7.37c3.35.7,4.09-.2,4.09-.2Z" style="fill:#ff5652"></path><path d="M226.93,101.78a.52.52,0,0,0,.2-.14.48.48,0,0,0,0-.67,4.79,4.79,0,0,0-4.19-1.19.47.47,0,0,0-.34.58.49.49,0,0,0,.59.34h0a3.79,3.79,0,0,1,3.3,1A.5.5,0,0,0,226.93,101.78Z" style="fill:#263238"></path><path d="M211.77,104.24a.48.48,0,0,0,.37-.25,3.7,3.7,0,0,1,2.77-2,.47.47,0,0,0,.43-.51.48.48,0,0,0-.51-.44,4.68,4.68,0,0,0-3.53,2.51.47.47,0,0,0,.2.64A.51.51,0,0,0,211.77,104.24Z" style="fill:#263238"></path><path d="M263.22,119.83c5.79,3.29,11.68,6.75,17.49,10,2.92,1.62,5.82,3.23,8.69,4.69,1.43.73,2.86,1.41,4.2,2,.67.29,1.33.57,1.91.79.28.11.58.23.79.29l.51.17c.2.08.1,0-.49.21a3.67,3.67,0,0,0-1.78,1.44c-.29.57-.18.63-.11.43a4.32,4.32,0,0,0,.21-1.18,23.09,23.09,0,0,0-.16-4c-.17-1.47-.46-3-.77-4.56-1.29-6.23-3.29-12.78-5.25-19.13l0-.11a4.1,4.1,0,0,1,7.36-3.45,104.06,104.06,0,0,1,5.33,9.3,96.18,96.18,0,0,1,4.41,9.94,56.09,56.09,0,0,1,1.74,5.45,32.07,32.07,0,0,1,1.08,6.26,18.72,18.72,0,0,1-.15,3.95,12.49,12.49,0,0,1-1.93,5.21,10.71,10.71,0,0,1-5.88,4.37,13.54,13.54,0,0,1-5.6.45,20.11,20.11,0,0,1-2-.34c-.63-.13-1.14-.27-1.69-.41-1.06-.29-2-.6-3-.91-1.86-.63-3.57-1.33-5.26-2-3.38-1.42-6.6-2.94-9.76-4.53-6.32-3.19-12.38-6.54-18.38-10.31a8.22,8.22,0,0,1,8.42-14.12Z" style="fill:#ff8b7b"></path><path d="M244.84,130.26c4.47,8.44,16.16,14.58,30,20.36,1.79-8.68,9.46-19.67,9.46-19.67S270.6,119.09,259,115.29C246.83,111.33,242.42,125.67,244.84,130.26Z" style="fill:#8043F9"></path><path d="M296.13,108.13l-3.31-6-8.56,8.67a20.82,20.82,0,0,0,4.21,4.18,5.3,5.3,0,0,0,7.35-1.25h0A5.28,5.28,0,0,0,296.13,108.13Z" style="fill:#ff8b7b"></path><path d="M282.7,99.2l-2.49,3.54a3.52,3.52,0,0,0,.42,4.54l3.63,3.56,8.56-8.67-5.16-3.79A3.53,3.53,0,0,0,282.7,99.2Z" style="fill:#ff8b7b"></path><path d="M191.93,260.51c-7.23-21.06-6.68-41.47-21.74-69.81a13.8,13.8,0,0,0-13.62-7.26h0a13.8,13.8,0,0,0-10.65,20.42c16.71,30,28.22,47.55,32.41,61Z" style="fill:#ff8b7b"></path><path d="M189.19,274.13a8.81,8.81,0,0,1-10.86-5.42c-5.17-14.22-17-34.52-17.93-36.5-2-4.13,22.91-9.44,23.2-7,.37,3,7.71,24.33,11.68,38a8.8,8.8,0,0,1-5.85,10.83Z" style="fill:#e0e0e0"></path><path d="M191.59,261.9a5.5,5.5,0,0,1,7.24,3.67l2.91,10.4a2.16,2.16,0,0,1-1.16,2.94c-6.25,2.46-5.51,1.77-11.6,4.06-7.11,2.67-8.23,3.29-16.57,6.43-5,1.9-6.44-2.16-6.09-4.49,1-6.32,6.3-10.81,8.18-14.85,0,0-5.31-3.8-2.22-6.54s11.76-5,14.33-2.85a7,7,0,0,1,1.69,3.06A14.54,14.54,0,0,1,191.59,261.9Z" style="fill:#263238"></path><path d="M167.86,289.1c-1.41.3,2.18,3.38,2.18,3.38s13.38-2.4,21.29-6.13c10.63-5,11.2-7.45,11.2-7.45a6.18,6.18,0,0,0-1.05-3.86C202.24,275.87,185.46,285.36,167.86,289.1Z" style="fill:#e0e0e0"></path><path d="M331.69,329.84c.57-4.74,4.09-1.33,6.22,1.09,0,0,3.55,2.61,5.19,4s1.27,3.9.75,6.28c-.84,3.88-.53,6.69-1.83,13.06-1.52,7.45-2.42,12.25-10.28,16.46-4.75,2.55-8.62-1.39-9.31-3.65C320.54,361,318,350,318,345.55c0,0-7.18,1.23-6.3-2.8s6.58-10.95,9.91-10.74a38.89,38.89,0,0,1,6.06,1.84S331.09,334.91,331.69,329.84Z" style="fill:#263238"></path><path d="M325.23,370.1c-1.22.75,3.55,2.56,3.55,2.56a30.48,30.48,0,0,0,12.68-8.92,19.87,19.87,0,0,0,3.43-6.62c1.21-4,2-17.94,2-17.94a12.27,12.27,0,0,0-3.76-4.25c.7.26-.19,19.85-4.57,25.26C333.81,366,327,369,325.23,370.1Z" style="fill:#e0e0e0"></path><path d="M209.13,99.44c-9.2,2-18.35,6.13-3.43,4.23,15.17-1.93,31.38-8.52,31.38-8.52Z" style="fill:#8043F9"></path><path d="M209.13,99.44c-9.2,2-18.35,6.13-3.43,4.23,15.17-1.93,31.38-8.52,31.38-8.52Z" style="fill:#fff;opacity:0.4"></path><path d="M242.64,93.34s-19.32,6.89-31.85,6.62c-1.17-5.15,1.41-11.22,1.41-11.22s7.52-5.87,11.63-6.68a2.81,2.81,0,0,1,.65,0,121.39,121.39,0,0,1,13.43,1.78,2.53,2.53,0,0,1,1.82,1.32C240.67,86.91,242.41,90.53,242.64,93.34Z" style="fill:#8043F9"></path><path d="M286,344.64,179.64,277.55,173,271.42c-5.1-4.7-11.92-4.26-15.24,1h0c-3.31,5.25-1.86,13.32,3.25,18h0a99.06,99.06,0,0,0,14.31,11l91,57.4a99.25,99.25,0,0,0,16.07,8.2h0c6.44,2.58,14.35.42,17.66-4.83h0c3.31-5.25.78-11.6-5.67-14.18Z" style="fill:#8043F9"></path><path d="M286,344.64,179.64,277.55,173,271.42c-5.1-4.7-11.92-4.26-15.24,1h0c-3.31,5.25-1.86,13.32,3.25,18h0a99.06,99.06,0,0,0,14.31,11l91,57.4a99.25,99.25,0,0,0,16.07,8.2h0c6.44,2.58,14.35.42,17.66-4.83h0c3.31-5.25.78-11.6-5.67-14.18Z" style="opacity:0.30000000000000004"></path><path d="M285.25,345.8,178.91,278.71l-6.56-6.26c-5-4.81-12.08-4-15.72,1.75h0c-3.64,5.77-2.51,14.35,2.53,19.16h0a91,91,0,0,0,14.23,11.1l91,57.41a90.16,90.16,0,0,0,16.15,8.06h0c6.51,2.48,14.74-.2,18.38-6h0c3.64-5.77,1.32-12.46-5.19-14.94Z" style="fill:#8043F9"></path><path d="M182.82,310.43l-3.64,5.72a2.91,2.91,0,0,1-2.74,1.12,9.2,9.2,0,0,1-7.07-4.46,3,3,0,0,1-.18-3l3.64-5.73a3,3,0,0,0,.17,3,9.21,9.21,0,0,0,7.08,4.46A3,3,0,0,0,182.82,310.43Z" style="fill:#8043F9"></path><path d="M182.82,310.43l-3.64,5.72a2.91,2.91,0,0,1-2.74,1.12,9.2,9.2,0,0,1-7.07-4.46,3,3,0,0,1-.18-3l3.64-5.73a3,3,0,0,0,.17,3,9.21,9.21,0,0,0,7.08,4.46A3,3,0,0,0,182.82,310.43Z" style="opacity:0.4"></path><path d="M182.64,307.43c1.25,2.37.1,4.21-2.56,4.11a9.21,9.21,0,0,1-7.08-4.46c-1.24-2.37-.09-4.21,2.57-4.12A9.21,9.21,0,0,1,182.64,307.43Z" style="fill:#8043F9"></path><path d="M182.64,307.43c1.25,2.37.1,4.21-2.56,4.11a9.21,9.21,0,0,1-7.08-4.46c-1.24-2.37-.09-4.21,2.57-4.12A9.21,9.21,0,0,1,182.64,307.43Z" style="opacity:0.2"></path><path d="M177.3,308.08h0a1.79,1.79,0,0,1-.56-2.47l7-11.14a1.79,1.79,0,0,1,2.47-.56h0a1.8,1.8,0,0,1,.57,2.47l-7,11.14A1.8,1.8,0,0,1,177.3,308.08Z" style="fill:#fff"></path><path d="M191.77,296.24,188.13,302a3,3,0,0,1-2.74,1.12,9.21,9.21,0,0,1-7.07-4.47,3,3,0,0,1-.18-3l3.64-5.73a3,3,0,0,0,.17,3,9.25,9.25,0,0,0,7.08,4.47A3,3,0,0,0,191.77,296.24Z" style="fill:#8043F9"></path><path d="M191.77,296.24,188.13,302a3,3,0,0,1-2.74,1.12,9.21,9.21,0,0,1-7.07-4.47,3,3,0,0,1-.18-3l3.64-5.73a3,3,0,0,0,.17,3,9.25,9.25,0,0,0,7.08,4.47A3,3,0,0,0,191.77,296.24Z" style="opacity:0.4"></path><path d="M191.59,293.24c1.25,2.37.1,4.21-2.56,4.12a9.25,9.25,0,0,1-7.08-4.47c-1.24-2.36-.1-4.21,2.57-4.11A9.23,9.23,0,0,1,191.59,293.24Z" style="fill:#8043F9"></path><path d="M191.59,293.24c1.25,2.37.1,4.21-2.56,4.12a9.25,9.25,0,0,1-7.08-4.47c-1.24-2.36-.1-4.21,2.57-4.11A9.23,9.23,0,0,1,191.59,293.24Z" style="opacity:0.2"></path><path d="M265.67,362.69,262,368.42a2.91,2.91,0,0,1-2.73,1.12,9.23,9.23,0,0,1-7.08-4.47,3,3,0,0,1-.18-3l3.64-5.73a3,3,0,0,0,.17,3,9.26,9.26,0,0,0,7.08,4.46A2.93,2.93,0,0,0,265.67,362.69Z" style="fill:#8043F9"></path><path d="M265.67,362.69,262,368.42a2.91,2.91,0,0,1-2.73,1.12,9.23,9.23,0,0,1-7.08-4.47,3,3,0,0,1-.18-3l3.64-5.73a3,3,0,0,0,.17,3,9.26,9.26,0,0,0,7.08,4.46A2.93,2.93,0,0,0,265.67,362.69Z" style="opacity:0.4"></path><path d="M265.5,359.7c1.24,2.36.09,4.21-2.57,4.11a9.26,9.26,0,0,1-7.08-4.46c-1.24-2.37-.09-4.22,2.57-4.12A9.25,9.25,0,0,1,265.5,359.7Z" style="fill:#8043F9"></path><path d="M265.5,359.7c1.24,2.36.09,4.21-2.57,4.11a9.26,9.26,0,0,1-7.08-4.46c-1.24-2.37-.09-4.22,2.57-4.12A9.25,9.25,0,0,1,265.5,359.7Z" style="opacity:0.2"></path><path d="M260.15,360.35h0a1.81,1.81,0,0,1-.56-2.48l7-11.14a1.81,1.81,0,0,1,2.48-.56h0a1.82,1.82,0,0,1,.56,2.48l-7,11.14A1.81,1.81,0,0,1,260.15,360.35Z" style="fill:#fff"></path><path d="M274.62,348.51,271,354.23a2.91,2.91,0,0,1-2.74,1.12,9.2,9.2,0,0,1-7.07-4.46,3,3,0,0,1-.18-3l3.64-5.73a3,3,0,0,0,.17,3,9.21,9.21,0,0,0,7.08,4.46A3,3,0,0,0,274.62,348.51Z" style="fill:#8043F9"></path><path d="M274.62,348.51,271,354.23a2.91,2.91,0,0,1-2.74,1.12,9.2,9.2,0,0,1-7.07-4.46,3,3,0,0,1-.18-3l3.64-5.73a3,3,0,0,0,.17,3,9.21,9.21,0,0,0,7.08,4.46A3,3,0,0,0,274.62,348.51Z" style="opacity:0.4"></path><path d="M274.44,345.51c1.25,2.37.1,4.21-2.56,4.11a9.21,9.21,0,0,1-7.08-4.46c-1.24-2.37-.09-4.21,2.57-4.12A9.21,9.21,0,0,1,274.44,345.51Z" style="fill:#8043F9"></path><path d="M274.44,345.51c1.25,2.37.1,4.21-2.56,4.11a9.21,9.21,0,0,1-7.08-4.46c-1.24-2.37-.09-4.21,2.57-4.12A9.21,9.21,0,0,1,274.44,345.51Z" style="opacity:0.2"></path><path d="M259.15,114.8c-5.22,17.42-4,34.57,11.19,52.1.47,3.91-1.13,9.61-1.13,9.61s-19.36-9.93-22.13-36.4c-1.36-13.05,5.54-26.24,5.54-26.24C254,113.24,258.24,113.61,259.15,114.8Z" style="fill:#263238"></path></g></svg>