<svg xmlns="http://www.w3.org/2000/svg" viewBox="0 0 750 500"><g id="freepik--background-complete--inject-4"><circle cx="644.6" cy="374.42" r="42.47" transform="translate(-45.99 655.1) rotate(-52.27)" style="fill:#e0e0e0"></circle><path d="M632.92,377.46l-3.35-15.95a3.7,3.7,0,0,1,4.77-4.27l15.49,5.08,15.49,5.08a3.7,3.7,0,0,1,1.31,6.27l-12.14,10.87-12.14,10.87a3.7,3.7,0,0,1-6.09-2Z" style="fill:#fff"></path><rect x="456.3" y="356.29" width="53.21" height="66.55" transform="translate(-26.93 743.15) rotate(-73.64)" style="fill:#f5f5f5"></rect><rect x="459.61" y="358.61" width="46.51" height="61.88" transform="translate(-26.95 743.1) rotate(-73.64)" style="fill:#ebebeb"></rect><polygon points="446.63 403.15 475.51 381.5 483.26 402.63 494.7 395.91 506 420.58 446.63 403.15" style="fill:#e0e0e0"></polygon><path d="M494.81,383.47a4.87,4.87,0,1,1-3.31-6A4.88,4.88,0,0,1,494.81,383.47Z" style="fill:#e0e0e0"></path><path d="M164.59,236.18a6.22,6.22,0,0,1,2.55-5.52,17,17,0,0,1,5.76-2.6,52.8,52.8,0,0,1,9.66-2.14,10.31,10.31,0,0,1,4.85.39c3.32,1.31,4.84,5.25,4.9,8.81a5.86,5.86,0,0,1-1.08,4,6.27,6.27,0,0,1-1.83,1.34,42.39,42.39,0,0,1-18.75,5.24c-2,.07-4.3-.19-5.26-1.91" style="fill:#e0e0e0"></path><path d="M105.57,245.62a6.17,6.17,0,0,0-4.42-4.17,17,17,0,0,0-6.32-.27,52.9,52.9,0,0,0-9.76,1.62A10.27,10.27,0,0,0,80.72,245c-2.59,2.45-2.53,6.67-1.26,10a5.84,5.84,0,0,0,2.48,3.28,6.56,6.56,0,0,0,2.2.57,42.42,42.42,0,0,0,19.35-2.14c1.85-.66,3.92-1.78,4.17-3.73" style="fill:#e0e0e0"></path><path d="M135.67,242.79c-11.73,2.58-26.89,3.82-31.11,3.45S82,244.08,75.24,253.88s-4.67,65.65-1.93,76.76,18.52,16.16,26.13,9.56,14.91-32.1,17.69-33,11.7,1.29,16.29-3.55a51.32,51.32,0,0,0,6.67-8.39s10.58-2.44,11.53-2.63,6,6.35,11.4,6.88,14.2-4.13,15.42-5,13.55,15,24.38,21.93,26.73-1.61,25-15.69-27.66-61.36-34.57-67.53-26.3-.24-34.2,3.85S143.05,241.16,135.67,242.79Z" style="fill:#ebebeb"></path><path d="M201.09,307.51c-10.83-7-23.16-22.76-24.38-21.93s-10,5.48-15.42,4.95-10.45-7-11.4-6.87-11.53,2.62-11.53,2.62a51.59,51.59,0,0,1-6.67,8.4c-4.59,4.84-13.51,2.61-16.29,3.54s-10.09,26.43-17.69,33c-7.14,6.2-21.47,2.14-25.48-7.57a60.62,60.62,0,0,0,1.08,7c2.74,11.12,18.52,16.16,26.13,9.56s14.91-32.1,17.69-33,11.7,1.29,16.29-3.55a51.32,51.32,0,0,0,6.67-8.39s10.58-2.44,11.53-2.63,6,6.35,11.4,6.88,14.2-4.13,15.42-5,13.55,15,24.38,21.93,26.73-1.61,25-15.69a35.82,35.82,0,0,0-1.6-6.39C225.87,306.9,211.24,314.06,201.09,307.51Z" style="fill:#e0e0e0"></path><circle cx="100.32" cy="271.11" r="17.19" transform="translate(-107.75 70.43) rotate(-25.73)" style="fill:#e0e0e0"></circle><path d="M115.25,266.64A17.19,17.19,0,1,1,95.11,253,17.19,17.19,0,0,1,115.25,266.64Z" style="fill:#f5f5f5"></path><path d="M198.87,253a17.19,17.19,0,1,1-20.14-13.61A17.2,17.2,0,0,1,198.87,253Z" style="fill:#e0e0e0"></path><circle cx="183.3" cy="253.48" r="17.19" transform="translate(-129.45 259.74) rotate(-55.27)" style="fill:#f5f5f5"></circle><path d="M175.78,281.34a11.57,11.57,0,1,1-13.56-9.16A11.57,11.57,0,0,1,175.78,281.34Z" style="fill:#f5f5f5"></path><path d="M134.43,289.34a11.57,11.57,0,1,1-13.56-9.17A11.57,11.57,0,0,1,134.43,289.34Z" style="fill:#f5f5f5"></path><path d="M106.28,263.52l-4.13.8-.8-4.13a3.5,3.5,0,0,0-4.1-2.77l-2.49.48A3.5,3.5,0,0,0,92,262l.8,4.13-4.14.8a3.51,3.51,0,0,0-2.77,4.1l.49,2.5a3.51,3.51,0,0,0,4.09,2.77l4.14-.8.8,4.13a3.51,3.51,0,0,0,4.1,2.77l2.49-.48a3.51,3.51,0,0,0,2.77-4.1l-.8-4.14,4.14-.79a3.51,3.51,0,0,0,2.77-4.1l-.49-2.5A3.5,3.5,0,0,0,106.28,263.52Z" style="fill:#e0e0e0"></path><path d="M186.79,244a5.06,5.06,0,1,1-5.93-4A5.06,5.06,0,0,1,186.79,244Z" style="fill:#e0e0e0"></path><path d="M198.53,250.84a5.06,5.06,0,1,1-5.93-4A5.06,5.06,0,0,1,198.53,250.84Z" style="fill:#e0e0e0"></path><path d="M190,260.85a5.06,5.06,0,1,1-5.93-4A5.06,5.06,0,0,1,190,260.85Z" style="fill:#e0e0e0"></path><path d="M178.05,255a5.06,5.06,0,1,1-5.94-4A5.07,5.07,0,0,1,178.05,255Z" style="fill:#e0e0e0"></path><path d="M159,237.08c-7.89,4.09-16,4.08-23.37,5.71A175.45,175.45,0,0,1,115,245.84a17.73,17.73,0,0,0,.61,2.09q2.58,7.41,5.15,14.83a6.32,6.32,0,0,0,1.82,3.11c1.17.9,2.79.85,4.26.75a172.18,172.18,0,0,0,18.38-2.31c4.26-.77,8.56-1.73,12.36-3.8a3.76,3.76,0,0,0,1.46-1.18,4.18,4.18,0,0,0,.48-1.56,72,72,0,0,0,.2-21C159.51,236.86,159.26,237,159,237.08Z" style="fill:#e0e0e0"></path><path d="M78.62,250a4.16,4.16,0,0,1,0,.84c0,.63,0,1.43-.07,2.39-.09,2.2-.21,5.17-.35,8.8-.27,7.43-.51,17.69-.4,29s.57,21.61,1,29c.22,3.62.39,6.59.53,8.79.05,1,.09,1.75.12,2.39a3.22,3.22,0,0,1,0,.84,3.11,3.11,0,0,1-.15-.83c-.08-.63-.17-1.42-.28-2.38-.23-2.07-.5-5.07-.79-8.78-.57-7.41-1.11-17.69-1.24-29.05s.22-21.64.64-29.07c.21-3.71.42-6.72.61-8.79.09-1,.17-1.75.23-2.39A2.79,2.79,0,0,1,78.62,250Z" style="fill:#e0e0e0"></path><path d="M225.09,307.16a10.42,10.42,0,0,1-1.21-1.72c-.75-1.13-1.79-2.79-3-4.85-2.53-4.13-5.92-9.89-9.51-16.34s-6.69-12.38-8.86-16.7c-1.08-2.16-1.94-3.92-2.51-5.15a9.79,9.79,0,0,1-.82-1.94,10.37,10.37,0,0,1,1.1,1.8c.72,1.33,1.64,3,2.74,5,2.3,4.26,5.48,10.13,9.06,16.58s6.9,12.24,9.3,16.44l2.82,5A10.19,10.19,0,0,1,225.09,307.16Z" style="fill:#e0e0e0"></path><path d="M512.49,88.4l16.44,23.5a4.43,4.43,0,0,0,7.35-.12l15.91-24.45Z" style="fill:#e0e0e0"></path><rect x="495.1" y="49.04" width="72" height="52.36" rx="11.56" style="fill:#e0e0e0"></rect><path d="M545.2,70.41c-2.3-4.22-6.13-4.87-8.7-3.91a8.84,8.84,0,0,0-4.25,3.91A8.84,8.84,0,0,0,528,66.5c-2.57-1-6.4-.31-8.71,3.91-4.81,8.8,13,20.26,13,20.26S550,79.21,545.2,70.41Z" style="fill:#fff"></path><path d="M53.52,166.71,68.69,188.4a4.1,4.1,0,0,0,6.79-.11l14.69-22.56Z" style="fill:#e0e0e0"></path><rect x="37.47" y="130.38" width="66.46" height="48.33" rx="11.56" style="fill:#e0e0e0"></rect><path d="M83.72,150.11c-2.13-3.9-5.66-4.5-8-3.62a8.22,8.22,0,0,0-3.92,3.62,8.22,8.22,0,0,0-3.92-3.62c-2.38-.88-5.91-.28-8,3.62-4.44,8.12,12,18.7,12,18.7S88.16,158.23,83.72,150.11Z" style="fill:#fff"></path><path d="M482.64,147.55l-2.45.31-6.29-6.78-.62-4.9s-3.82.25-2.57,6.6.57,4.78.57,4.78-8,1.05-8.63,1.83c-.42.57.37,8.59.83,12.94a4.74,4.74,0,0,0,3.92,4.31,3.7,3.7,0,0,0,.88,0c2-.25,12.06-3.17,12.06-3.17l4.23-.54Z" style="fill:#e0e0e0"></path><polygon points="489.49 145.33 490.09 162.29 485.89 162.81 483.82 146.38 489.49 145.33" style="fill:#e0e0e0"></polygon><polygon points="607.53 236.58 596.56 270.38 604.4 270.38 615.29 236.58 607.53 236.58" style="fill:#e0e0e0"></polygon><polygon points="620.84 236.66 609.89 270.38 617.73 270.39 628.59 236.66 620.84 236.66" style="fill:#e0e0e0"></polygon><polygon points="594.85 249.46 597.5 241.93 632.92 241.93 630.6 249.46 594.85 249.46" style="fill:#e0e0e0"></polygon><polygon points="591.57 263.37 594.22 255.84 629.64 255.84 627.32 263.37 591.57 263.37" style="fill:#e0e0e0"></polygon><path d="M663.1,77.54a18.5,18.5,0,1,0-34.44,9.35h0l.05.07c.71,1.19,1.6,2.05,2.5,3.3l10.74,14.23a3.34,3.34,0,0,0,5.33,0l10.56-14a40.47,40.47,0,0,0,2.69-3.56l0,0h0A18.42,18.42,0,0,0,663.1,77.54ZM644.6,85.6a8.15,8.15,0,1,1,8.15-8.14A8.15,8.15,0,0,1,644.6,85.6Z" style="fill:#f5f5f5"></path></g><g id="freepik--Floor--inject-4"><path d="M42.82,463.8c0-.15,147-.26,328.16-.26s328.2.11,328.2.26-146.91.26-328.2.26S42.82,463.94,42.82,463.8Z" style="fill:#263238"></path></g><g id="freepik--Post--inject-4"><rect x="253.45" y="30.93" width="185.62" height="226.99" style="fill:#fff"></rect><rect x="253.45" y="68.95" width="185.62" height="151.87" style="fill:#ebebeb"></rect><path d="M439.07,257.92c0-2-.1-92-.23-227l.23.24-185.6,0h0l.26-.26c0,84,0,162-.05,227l-.21-.21,185.62.21-185.62.22h-.22v-.22c0-64.94,0-143,0-227v-.26h.28l185.6,0h.23v.23C439.16,165.93,439.07,255.9,439.07,257.92Z" style="fill:#263238"></path><path d="M253.45,220.82l48.85-65.43A16.68,16.68,0,0,1,326.83,153l7.27,6.55a7.11,7.11,0,0,0,10.64-1.27L365,128.66a16.68,16.68,0,0,1,28.5,1.6c17.79,33.54,45.57,90.56,45.57,90.56Z" style="fill:#e0e0e0"></path><path d="M284.58,231.24a3.77,3.77,0,0,0-4.63-2.08,4.69,4.69,0,0,0-2.25,2.08,4.68,4.68,0,0,0-2.26-2.08,3.77,3.77,0,0,0-4.63,2.08c-2.56,4.68,6.89,10.76,6.89,10.76S287.14,235.92,284.58,231.24Z" style="fill:#FF725E"></path><circle cx="276.79" cy="53.97" r="7.03" style="fill:#e0e0e0"></circle><rect x="302.31" y="50.69" width="50.71" height="6.56" rx="3.13" style="fill:#e0e0e0"></rect><path d="M420.94,47.4a1.75,1.75,0,1,1-1.75-1.74A1.75,1.75,0,0,1,420.94,47.4Z" style="fill:#e0e0e0"></path><path d="M420.94,52.48a1.75,1.75,0,1,1-1.75-1.74A1.75,1.75,0,0,1,420.94,52.48Z" style="fill:#e0e0e0"></path><path d="M420.94,57.56a1.75,1.75,0,1,1-1.75-1.74A1.75,1.75,0,0,1,420.94,57.56Z" style="fill:#e0e0e0"></path></g><g id="freepik--Icons--inject-4"><path d="M657.2,292.32a24,24,0,0,0,13,3.81c15.77,0,24.67-13.31,24.13-25.25a17.22,17.22,0,0,0,4.24-4.4,17,17,0,0,1-4.88,1.34,8.5,8.5,0,0,0,3.74-4.7,16.84,16.84,0,0,1-5.39,2.06,8.5,8.5,0,0,0-14.47,7.75,24.15,24.15,0,0,1-17.5-8.87,8.5,8.5,0,0,0,2.63,11.33,8.52,8.52,0,0,1-3.85-1.06,8.5,8.5,0,0,0,6.81,8.43,8.48,8.48,0,0,1-3.83.15,8.49,8.49,0,0,0,7.93,5.89A17.08,17.08,0,0,1,657.2,292.32Z" style="fill:#455a64"></path><path d="M134.64,105h0a28.86,28.86,0,0,1-28.86-28.86h0a28.86,28.86,0,0,1,28.86-28.86h0A28.86,28.86,0,0,1,163.5,76.18h0A28.86,28.86,0,0,1,134.64,105Z" style="fill:#455a64"></path><path d="M130.24,93.63h7V76h4.9l.52-5.89h-5.42V66.79c0-1.39.28-1.94,1.62-1.94h3.8V58.74h-4.86c-5.23,0-7.59,2.3-7.59,6.71v4.69h-3.65v6h3.65Z" style="fill:#fff"></path><path d="M64.62,409.39h0a19.1,19.1,0,0,1-19.1-19.11h0a19.11,19.11,0,0,1,19.1-19.11h0a19.11,19.11,0,0,1,19.11,19.11h0A19.1,19.1,0,0,1,64.62,409.39Z" style="fill:#455a64"></path><path d="M75.1,389.75a10.29,10.29,0,0,0-20.57-.18c0,.14,0,.29,0,.44A10.11,10.11,0,0,0,56,395.29l-1.86,5.48,5.7-1.82A10.3,10.3,0,0,0,75.11,390,2.35,2.35,0,0,0,75.1,389.75ZM64.81,398.6a8.59,8.59,0,0,1-4.75-1.42l-3.33,1.06,1.08-3.19a8.5,8.5,0,0,1-1.65-5,7.55,7.55,0,0,1,.05-.83,8.65,8.65,0,0,1,17.23.16c0,.23,0,.45,0,.67A8.64,8.64,0,0,1,64.81,398.6Z" style="fill:#fff;fill-rule:evenodd"></path><path d="M69.53,392.07c-.25-.12-1.49-.73-1.72-.81s-.4-.12-.57.13-.66.81-.8,1-.3.19-.55.07a6.92,6.92,0,0,1-2-1.25,7.25,7.25,0,0,1-1.4-1.73c-.15-.25,0-.38.11-.51s.25-.29.38-.43l.09-.13a2.52,2.52,0,0,0,.16-.29.45.45,0,0,0,0-.44c-.06-.13-.57-1.36-.78-1.86s-.42-.42-.57-.42l-.48,0a.92.92,0,0,0-.67.31,2.81,2.81,0,0,0-.89,2.09,3.58,3.58,0,0,0,.13.86,5.56,5.56,0,0,0,.91,1.73,10.28,10.28,0,0,0,4.3,3.78c2.57,1,2.57.67,3,.62a2.45,2.45,0,0,0,1.7-1.19,1.94,1.94,0,0,0,.15-1.19C70,392.26,69.78,392.2,69.53,392.07Z" style="fill:#fff;fill-rule:evenodd"></path></g><g id="freepik--letter-z--inject-4"><path d="M500.82,405.79v57.67H319.44V418l91.05-117.38H322V243.31H497.19V288.4L406.14,405.79Z" style="fill:#FF725E"></path><g style="opacity:0.30000000000000004"><path d="M500.82,405.79v57.67H319.44V418l91.05-117.38H322V243.31H497.19V288.4L406.14,405.79Z"></path></g><path d="M482.91,405.79v57.67H301.53V418l91.05-117.38H304.07V243.31H479.28V288.4l-91,117.39Z" style="fill:#FF725E"></path></g><g id="freepik--Symbol--inject-4"><polygon points="186.35 150.07 172.48 192.78 182.4 192.78 196.15 150.07 186.35 150.07" style="fill:#FF725E"></polygon><polygon points="203.16 150.17 189.32 192.78 199.24 192.8 212.96 150.17 203.16 150.17" style="fill:#FF725E"></polygon><polygon points="170.33 166.35 173.68 156.84 218.43 156.84 215.51 166.35 170.33 166.35" style="fill:#FF725E"></polygon><polygon points="166.18 183.92 169.53 174.41 214.29 174.41 211.36 183.92 166.18 183.92" style="fill:#FF725E"></polygon></g><g id="freepik--speech-bubble-2--inject-4"><path d="M630.5,181.44l18.37,26.27a5,5,0,0,0,8.21-.14l17.78-27.31Z" style="fill:#FF725E"></path><rect x="611.07" y="137.47" width="80.46" height="58.51" rx="11.56" style="fill:#FF725E"></rect><path d="M634.89,184.2h35.58s-3.44-13.64-18-13.64C637.2,170.56,634.89,184.2,634.89,184.2Z" style="fill:#fff"></path><path d="M662.41,159a9.77,9.77,0,1,1-9.77-9.76A9.76,9.76,0,0,1,662.41,159Z" style="fill:#fff"></path></g><g id="freepik--speech-bubble-1--inject-4"><path d="M266.48,121.07l10.59,15.13a2.85,2.85,0,0,0,4.73-.08L292,120.39Z" style="fill:#FF725E"></path><rect x="209.35" y="83.22" width="134.66" height="42.2" rx="11" style="fill:#FF725E"></rect><path d="M276.67,101.09A3,3,0,0,0,273,99.46a3.74,3.74,0,0,0-1.78,1.63,3.69,3.69,0,0,0-1.77-1.63,3,3,0,0,0-3.64,1.63c-2,3.68,5.41,8.47,5.41,8.47S278.68,104.77,276.67,101.09Z" style="fill:#fff"></path><path d="M316,104.32a5.41,5.41,0,1,0-2.93,4.79h0l2.93.45-.78-2.48A5.32,5.32,0,0,0,316,104.32Z" style="fill:#fff"></path><path d="M224.57,109.56H235a5.47,5.47,0,0,0-5.29-4A5,5,0,0,0,224.57,109.56Z" style="fill:#fff"></path><path d="M232.65,102.17a2.87,2.87,0,1,1-2.86-2.87A2.87,2.87,0,0,1,232.65,102.17Z" style="fill:#fff"></path><path d="M243,106.58c0,1.5-1,2.66-3.14,2.66a4.31,4.31,0,0,1-3.16-1.21l.34-.5a3.75,3.75,0,0,0,2.8,1.1c1.66,0,2.5-.83,2.5-2s-.78-2.07-3.22-2.07h-1.82l.48-4.34h4.76v.59h-4.21L238,104h1.29C242,104,243,105,243,106.58Z" style="fill:#fff"></path><path d="M244.24,104.69c0-2.81,1.45-4.56,3.51-4.56s3.51,1.75,3.51,4.56-1.45,4.55-3.51,4.55S244.24,107.49,244.24,104.69Zm6.37,0c0-2.51-1.17-4-2.86-4s-2.86,1.44-2.86,4,1.17,3.94,2.86,3.94S250.61,107.19,250.61,104.69Z" style="fill:#fff"></path><path d="M255.71,105.6,254,107.19v2h-.64V99.66H254v6.73l4.28-3.91h.82l-2.88,2.7,3.16,4h-.79Z" style="fill:#fff"></path><path d="M287,108.69v.61h-6.37v-.48l3.92-3.89c1.1-1.1,1.32-1.75,1.32-2.45,0-1.17-.81-1.9-2.35-1.9a3.31,3.31,0,0,0-2.66,1.08l-.48-.43a4.1,4.1,0,0,1,3.19-1.27c1.82,0,3,.94,3,2.45,0,.89-.29,1.67-1.51,2.88l-3.41,3.4Z" style="fill:#fff"></path><path d="M291.44,105.6l-1.8,1.65v2H289V99.47h.67v7l4.42-4h.85l-3,2.79,3.27,4.12h-.82Z" style="fill:#fff"></path><path d="M325.24,107c0,1.53-1.11,2.67-3.24,2.67a4.45,4.45,0,0,1-3.27-1.24l.34-.52A4,4,0,0,0,322,109c1.67,0,2.55-.8,2.55-2.05s-.84-2.06-2.7-2.06h-.58v-.49L324,100.9h-4.94v-.61h5.81v.48l-2.78,3.56C324.21,104.39,325.24,105.45,325.24,107Z" style="fill:#fff"></path><path d="M329.81,105.87l-1.8,1.64v2h-.66V99.74H328v7l4.43-4h.84l-3,2.8,3.28,4.11h-.83Z" style="fill:#fff"></path></g><g id="freepik--character-3--inject-4"><path d="M560,268.43,504.5,279.6a220.91,220.91,0,0,0-8.25,67.07,506.48,506.48,0,0,0,80.81-8.86A84.15,84.15,0,0,0,560,268.43Z" style="fill:#455a64"></path><path d="M557.82,436.61l5.12,21L571.78,473a2.22,2.22,0,0,1-.95,3.09h0a2.21,2.21,0,0,1-2-.05c-4-2.19-18.67-10.34-19-11.9-.34-1.8-6.87-21.75-6.87-21.75Z" style="fill:#455a64"></path><path d="M570.83,476.08l-21.37-13.36.24.89a3.32,3.32,0,0,0,1.32,1.88c1.74,1.2,6.62,4.4,17.72,10.56a2.21,2.21,0,0,0,2.09,0Z" style="fill:#263238"></path><g style="opacity:0.6000000000000001"><path d="M551.93,454.85a1.34,1.34,0,0,1,.81,1.59,1.29,1.29,0,0,1-1.57.82,1.41,1.41,0,0,1-.85-1.69,1.34,1.34,0,0,1,1.73-.67" style="fill:#fff"></path></g><path d="M563.61,468.25a6.87,6.87,0,0,1,1.4-2.11,6.59,6.59,0,0,1,2.27-1.1c0-.06-.3-.15-.81-.09a3.49,3.49,0,0,0-2.83,2.49C563.51,467.93,563.56,468.25,563.61,468.25Z" style="fill:#fff"></path><path d="M565.85,470.64c.12.07.61-.79,1.6-1.39a19.08,19.08,0,0,1,2-.81,2.47,2.47,0,0,0-2.21.41C566.08,469.54,565.73,470.62,565.85,470.64Z" style="fill:#fff"></path><path d="M559.89,465.42a22,22,0,0,1,2.33-2.32,21.63,21.63,0,0,1,2.9-1.55,6,6,0,0,0-5.23,3.87Z" style="fill:#fff"></path><path d="M557.8,459.17c.09.11,1.11-.68,2.6-1.13s2.76-.42,2.77-.56a4.27,4.27,0,0,0-2.92.11A4.33,4.33,0,0,0,557.8,459.17Z" style="fill:#fff"></path><path d="M556.14,453.06a7,7,0,0,1,5.62-1.31c0-.05-.28-.25-.83-.4a4.73,4.73,0,0,0-2.23,0,4.8,4.8,0,0,0-2,1C556.28,452.71,556.1,453,556.14,453.06Z" style="fill:#fff"></path><path d="M558.46,450.65a1.8,1.8,0,0,0-.18-.8A5.69,5.69,0,0,0,557.1,448a2.51,2.51,0,0,0-1.36-.88.89.89,0,0,0-.91.45,1.42,1.42,0,0,0-.08,1,3.14,3.14,0,0,0,3.4,2.08,3.63,3.63,0,0,0,2.94-2.76,1.27,1.27,0,0,0-.21-1,.88.88,0,0,0-1-.21,3,3,0,0,0-1.18,1.08,6.17,6.17,0,0,0-1,2,2.23,2.23,0,0,0-.13.81,9.87,9.87,0,0,1,1.38-2.6,2.9,2.9,0,0,1,1-.92.46.46,0,0,1,.55.11.83.83,0,0,1,.1.68,3.24,3.24,0,0,1-2.58,2.36,2.71,2.71,0,0,1-2.91-1.73,1.1,1.1,0,0,1,0-.72.49.49,0,0,1,.51-.25,2.26,2.26,0,0,1,1.16.72A8.35,8.35,0,0,1,558.46,450.65Z" style="fill:#fff"></path><path d="M528.72,436.27l-3.6,21.25-7.69,16a2.2,2.2,0,0,0,1.17,3h0a2.17,2.17,0,0,0,2-.19c3.83-2.47,17.86-11.64,18-13.21.2-1.82,5.28-22.17,5.28-22.17Z" style="fill:#455a64"></path><path d="M518.6,476.51l20.32-14.83-.17.9a3.34,3.34,0,0,1-1.18,2c-1.65,1.32-6.28,4.87-16.9,11.79a2.16,2.16,0,0,1-2.07.18Z" style="fill:#263238"></path><g style="opacity:0.6000000000000001"><path d="M535.9,454a1.35,1.35,0,0,0-.69,1.65,1.29,1.29,0,0,0,1.62.7,1.41,1.41,0,0,0,.72-1.75,1.33,1.33,0,0,0-1.77-.54" style="fill:#fff"></path></g><path d="M525.22,468.2a4.79,4.79,0,0,0-3.89-2.94c0-.06.29-.17.8-.14a3.51,3.51,0,0,1,3,2.27C525.3,467.87,525.27,468.19,525.22,468.2Z" style="fill:#fff"></path><path d="M523.16,470.74c-.12.08-.66-.74-1.7-1.27a15.14,15.14,0,0,0-2-.66,2.42,2.42,0,0,1,2.23.24C522.86,469.66,523.28,470.71,523.16,470.74Z" style="fill:#fff"></path><path d="M528.73,465.11a11.37,11.37,0,0,0-5.49-3.48,4.88,4.88,0,0,1,3.25.94A5,5,0,0,1,528.73,465.11Z" style="fill:#fff"></path><path d="M530.36,458.74c-.08.12-1.16-.6-2.67-.95s-2.78-.21-2.8-.35a4.21,4.21,0,0,1,2.91-.11A4.27,4.27,0,0,1,530.36,458.74Z" style="fill:#fff"></path><path d="M531.57,452.53a10.59,10.59,0,0,0-2.75-1.06,10.92,10.92,0,0,0-2.94.16c0-.05.26-.27.8-.46a4.82,4.82,0,0,1,2.22-.17,4.74,4.74,0,0,1,2.06.85C531.41,452.19,531.62,452.49,531.57,452.53Z" style="fill:#fff"></path><path d="M529.09,450.29a1.76,1.76,0,0,1,.13-.8,5.58,5.58,0,0,1,1-2,2.57,2.57,0,0,1,1.28-1,.92.92,0,0,1,1,.38,1.54,1.54,0,0,1,.15,1,3.13,3.13,0,0,1-3.24,2.32,3.61,3.61,0,0,1-3.13-2.53,1.29,1.29,0,0,1,.14-1,.87.87,0,0,1,1-.28,3.18,3.18,0,0,1,1.26,1,6.16,6.16,0,0,1,1.12,1.92,2.14,2.14,0,0,1,.19.79,10.47,10.47,0,0,0-1.56-2.49,2.88,2.88,0,0,0-1.12-.84.44.44,0,0,0-.53.15.85.85,0,0,0-.06.68,3.24,3.24,0,0,0,2.75,2.17,2.71,2.71,0,0,0,2.77-1.93,1,1,0,0,0-.08-.71.46.46,0,0,0-.51-.22,2.2,2.2,0,0,0-1.11.8A8.37,8.37,0,0,0,529.09,450.29Z" style="fill:#fff"></path><path d="M551.71,268.15s21.78,18.74,21.52,45.84-11.39,41.28-17.47,74.45-12.89,69.41-12.89,69.41l-19.42-4.14s5-52.86,5.46-71.09,4.56-67.42,4.56-67.42l-8.36-32.62Z" style="fill:#263238"></path><path d="M504.38,284s-5.95,32.64,4.41,60.75c9.18,24.9,35.59,113.11,35.59,113.11l18.55-5.54-13-61.33s-14-75.74-15.23-75.74-9.63-32.62-9.63-32.62Z" style="fill:#263238"></path><path d="M533.09,309.86a7.28,7.28,0,0,1-1.93-.38c-1.18-.31-2.79-.8-4.53-1.44s-3.28-1.32-4.37-1.85a8.42,8.42,0,0,1-1.72-1,8.69,8.69,0,0,1,1.85.67c1.12.45,2.67,1.07,4.4,1.71s3.31,1.18,4.46,1.56A10.79,10.79,0,0,1,533.09,309.86Z" style="fill:#455a64"></path><path d="M543.75,300.53l-.48.62c-.33.43-.81,1-1.44,1.83l-5.61,7,0,0c-1.89,21.63-6.19,70.85-11.18,128.09q-.7,7.95-1.39,15.67l-.18-.24,19.43,4.14-.26.18c6.44-33.76,11.92-62.46,15.43-80.85h0c2.07-6.94,3.7-12.41,4.82-16.15l1.29-4.25c.15-.47.26-.83.34-1.09l.12-.36a3.25,3.25,0,0,1-.09.37c-.07.26-.17.62-.31,1.1L563,360.84c-1.1,3.75-2.69,9.22-4.71,16.17h0c-3.47,18.41-8.88,47.12-15.24,80.89l0,.22-.22-.05-19.43-4.13-.19,0v-.2q.69-7.71,1.39-15.67c5.11-57.23,9.51-106.44,11.45-128.06v0l0,0,5.68-7,1.48-1.8C543.57,300.72,543.75,300.53,543.75,300.53Z" style="fill:#455a64"></path><path d="M514.89,151.93a48.91,48.91,0,0,0-7.67,7.41,16.49,16.49,0,0,0-3.74,9.81c0,2.78.95,5.56.52,8.3-.47,3-2.47,5.45-3.57,8.25s-.9,6.67,1.79,8a7.86,7.86,0,0,0,3.41.53l12.92.06Z" style="fill:#263238"></path><path d="M554.92,178c-.7-2.17-2-4.1-2.69-6.27-1-3.17-.48-6.56-.49-9.87s-.73-7-3.34-9c-2.24-1.74-5-3-7.19-4.78a29.28,29.28,0,0,1-4.58-4.86,12,12,0,0,0-9.11-4.26,19.62,19.62,0,0,0-9.9,2.73l5.06,51.4,30.54-.63C554.82,187.84,556.43,182.76,554.92,178Z" style="fill:#263238"></path><path d="M542.1,154.76a25.21,25.21,0,0,0-14.77-13.28c-6.49-2-19.09-.64-20.4,5.58l27,34.61c5-1.76,7.64-6.1,9-11.22S544.38,159.53,542.1,154.76Z" style="fill:#FF725E"></path><polygon points="503.06 198.88 513.17 197.72 534.18 200.43 543.84 204.84 530.74 215.95 513.58 213.03 506.04 208.31 503.06 198.88" style="fill:#ffbf9d"></polygon><path d="M534.17,158.48c-.71-1.84-.44-3.91-.72-5.86-.61-4.31-4.08-7.77-8.1-9.45-3.74-1.56-8.3-1.22-12.8.23a17.19,17.19,0,0,0-8,5.25A13.53,13.53,0,0,0,502,160.8l22.06-3.21a24.34,24.34,0,0,0,6.68,4.4,4.57,4.57,0,0,0,2.3.37,2.07,2.07,0,0,0,1.72-1.42A4.45,4.45,0,0,0,534.17,158.48Z" style="fill:#263238"></path><path d="M512.08,149.49l19.25,4.08a3.6,3.6,0,0,1,3.36,3.52l-.24,41.67a13,13,0,0,1-2.71,7.86L529.9,209A9.5,9.5,0,0,1,514,207.8a4.42,4.42,0,0,1-.44-1.09,7.83,7.83,0,0,1-.19-.94l-.36-4.06c-.19-3.71-.22-7.48-.22-7.45s-7.88-1-9.9-11.14c-1-5.05-1.07-13.39-.9-20.22C502.18,156.76,505.94,149.08,512.08,149.49Z" style="fill:#ffbf9d"></path><path d="M506.08,171.69A1.32,1.32,0,0,0,507.4,173a1.25,1.25,0,0,0,1.3-1.24,1.31,1.31,0,0,0-1.31-1.27A1.26,1.26,0,0,0,506.08,171.69Z" style="fill:#263238"></path><path d="M504,167.16c.17.17,1.14-.6,2.55-.65s2.47.61,2.61.43-.1-.38-.57-.69a3.55,3.55,0,0,0-2.1-.56,3.48,3.48,0,0,0-2,.74C504.05,166.78,503.92,167.09,504,167.16Z" style="fill:#263238"></path><path d="M518.45,171.41a1.31,1.31,0,0,0,1.31,1.28,1.26,1.26,0,0,0,1.31-1.24,1.32,1.32,0,0,0-1.32-1.27A1.25,1.25,0,0,0,518.45,171.41Z" style="fill:#263238"></path><path d="M517.39,166.82c.17.17,1.13-.61,2.54-.66s2.47.62,2.62.44-.1-.38-.57-.69a3.57,3.57,0,0,0-2.1-.56,3.45,3.45,0,0,0-2,.73C517.44,166.43,517.31,166.75,517.39,166.82Z" style="fill:#263238"></path><path d="M513.16,177.54a9.81,9.81,0,0,0-2.31-.32c-.36,0-.7-.08-.77-.33a1.77,1.77,0,0,1,.2-1.07c.3-.89.62-1.81,1-2.78,1.32-4,2.27-7.22,2.11-7.27s-1.37,3.12-2.69,7.08l-.92,2.8a2.11,2.11,0,0,0-.13,1.42.91.91,0,0,0,.61.5,2.39,2.39,0,0,0,.62.06A9.16,9.16,0,0,0,513.16,177.54Z" style="fill:#263238"></path><path d="M512.83,194.26a26,26,0,0,0,13.54-4.18s-3.16,7.21-13.42,6.65Z" style="fill:#ff9a6c"></path><path d="M513.89,180.92a2.51,2.51,0,0,1,2.24-1,2.32,2.32,0,0,1,1.63.79,1.48,1.48,0,0,1,.18,1.68,1.72,1.72,0,0,1-1.83.54,5.36,5.36,0,0,1-1.84-1,1.46,1.46,0,0,1-.42-.4.47.47,0,0,1,0-.52" style="fill:#ff9a6c"></path><path d="M517.35,178.36c-.23,0-.18,1.52-1.45,2.66s-2.9,1-2.9,1.25.37.28,1.06.27a3.8,3.8,0,0,0,2.43-.95,3.31,3.31,0,0,0,1.11-2.23C517.64,178.72,517.45,178.34,517.35,178.36Z" style="fill:#263238"></path><path d="M516.74,161.39c.15.38,1.56.14,3.22.28s3,.53,3.22.18c.09-.17-.15-.52-.71-.87a5.61,5.61,0,0,0-4.9-.35C517,160.9,516.67,161.21,516.74,161.39Z" style="fill:#263238"></path><path d="M504.17,161c.26.31,1.22-.06,2.39-.12s2.16.13,2.38-.21c.09-.17-.08-.48-.52-.77a3.39,3.39,0,0,0-2-.45,3.35,3.35,0,0,0-1.88.72C504.18,160.5,504.06,160.83,504.17,161Z" style="fill:#263238"></path><path d="M537.69,155.51c-2-5.86-10.71-13.85-16.88-13.3l-9.74,6.12a9.53,9.53,0,0,0,6.6,7.15c1.76.5,3.86.6,4.93,2.08s.51,3.75,1.53,5.31c1.41,2.16,5.14,2,6.21,4.33.47,1,.26,2.27.75,3.29.65,1.35,4.14,3,5.57,2.53s.83.75,1.42-.48c1.42-2.95,1.76-7.75,1.37-10.55A27.17,27.17,0,0,0,537.69,155.51Z" style="fill:#263238"></path><path d="M532.46,174.32c0-.76.78-2.59,1.52-2.74,2-.39,5.62-.37,5.85,4.72.32,7-6.74,5.85-6.76,5.65S532.55,176.94,532.46,174.32Z" style="fill:#ffbf9d"></path><path d="M535.08,179.22s.12.07.33.16a1.24,1.24,0,0,0,.91,0,3,3,0,0,0,1.27-2.76,4,4,0,0,0-.42-1.72,1.41,1.41,0,0,0-1-.89.63.63,0,0,0-.7.36c-.08.2,0,.34-.07.35s-.15-.11-.11-.4a.8.8,0,0,1,.25-.44.9.9,0,0,1,.67-.21,1.68,1.68,0,0,1,1.31,1,4.12,4.12,0,0,1,.51,1.92,3.16,3.16,0,0,1-1.63,3.09,1.33,1.33,0,0,1-1.12-.13C535.1,179.38,535.05,179.23,535.08,179.22Z" style="fill:#ff9a6c"></path><path d="M513.09,146.22c-.64,2.83-5,6.47-6.84,8.68-3.61,4.21-4.32,5.61-4.28,15a18.91,18.91,0,0,1-2-10,19.19,19.19,0,0,1,4.93-11.1c2.55-2.64,4.56-3.08,8.19-2.55" style="fill:#263238"></path><path d="M539.59,202.4c.72.18,14.08,2.85,17.29,5.52S566.69,224,566.69,224L551.2,238.05,549,233.23l-1.25,25.49s9.32,11.9,8.79,13.07a20.15,20.15,0,0,1-2.32,3.87,28,28,0,0,1-10.52,8.51c-8.17,3.9-25.58,10.1-39.7.91l-3.39-23.14s-8.29-15.69-8.29-24.61c0-2-.07-5.17.14-8.77.73-12.24,2.53-30.08,2.53-30.08H507s8.18,13.9,18.8,11.23S539.59,202.4,539.59,202.4Z" style="fill:#e0e0e0"></path><path d="M495,198.48c-6.27,1-10.62,6.24-18.42,18.45L495,228.08Z" style="fill:#e0e0e0"></path><path d="M543.08,260.32s-.23.24-.71.61-1.19.87-2.09,1.48A73.48,73.48,0,0,1,533,266.7a72.42,72.42,0,0,1-7.7,3.43c-1,.38-1.83.67-2.41.84a3.82,3.82,0,0,1-.91.24,4,4,0,0,1,.85-.4l2.36-1c2-.83,4.69-2,7.6-3.54s5.47-3,7.29-4.16l2.16-1.35A4.32,4.32,0,0,1,543.08,260.32Z" style="fill:#263238"></path><path d="M550.51,215.16a2.82,2.82,0,0,1,.08.81c0,.52,0,1.27,0,2.2,0,1.86-.14,4.42-.44,7.25s-.71,5.35-1.08,7.17c-.18.92-.34,1.65-.47,2.15a3.18,3.18,0,0,1-.24.78,22.45,22.45,0,0,1,.4-3c.28-1.83.65-4.36.94-7.17s.47-5.36.57-7.21A24.93,24.93,0,0,1,550.51,215.16Z" style="fill:#263238"></path><path d="M495,208.7a4.56,4.56,0,0,1-.13,1c-.14.72-.31,1.62-.51,2.68-.43,2.26-1,5.39-1.44,8.87a81.74,81.74,0,0,0-.56,9c0,1.07,0,2,0,2.72a4.72,4.72,0,0,1,0,1,4.34,4.34,0,0,1-.14-1c-.06-.64-.11-1.57-.15-2.73a63.59,63.59,0,0,1,.43-9,84.39,84.39,0,0,1,1.58-8.89c.25-1.12.48-2,.65-2.65A4.1,4.1,0,0,1,495,208.7Z" style="fill:#263238"></path><path d="M512.07,208.27,514.46,234a1.64,1.64,0,0,0,1.78,1.45l16.53-1.25a1.65,1.65,0,0,0,1.56-1.72l-1.56-27a1.63,1.63,0,0,0-1.9-1.49l-17.36,2.57A1.66,1.66,0,0,0,512.07,208.27Z" style="fill:#263238"></path><path d="M525.09,219.37s8.4-.19,9,.21,13.06,10.69,13.06,10.69l2.91,1.85-4.93,9.54-1.44-.52L533.63,238a15.27,15.27,0,0,0-3.09-.39s-9.53.26-10.33-.71-.49-1.28.17-1.56a56.12,56.12,0,0,1,7.59-.68,19.67,19.67,0,0,0,3.7-.66s-4-.18-4.94-.32-9.89-.44-10-2,.85-2.25,6.51-1.81a40.73,40.73,0,0,0,9.36-.22l-12.66-1.87s-5.09-.63-3.78-2.23,12.12-.72,12.12-.72l4.85.84-1.76-2.42s-6.81-.69-7.76-1.16c-1.16-.59-1.44-1.28-.78-2.06S525.09,219.37,525.09,219.37Z" style="fill:#ffbf9d"></path><path d="M565.11,226.11l-13.93,4.72.7,3.25-2.76-2.57-4,10.15s3.14,5.88,4.84,9.13c4.56,8.71,11.15,18.19,16.85,16.62,6.83-1.88,8.9-9.72,7.85-14.83C573.72,247.93,565.11,226.11,565.11,226.11Z" style="fill:#ffbf9d"></path><path d="M547.16,230.23l-.34-.3-1-.87-3.95-3.28-6.25-5.14-.94-.76c-.16-.13-.32-.26-.49-.38a1.66,1.66,0,0,0-.66-.17c-.86-.09-1.75-.11-2.66-.12-1.83,0-3.75,0-5.78,0h0a4.4,4.4,0,0,0-1.52.21,2.25,2.25,0,0,0-.71.39,1.7,1.7,0,0,0-.47.68,1,1,0,0,0,.06.83,2.08,2.08,0,0,0,.58.6,2.87,2.87,0,0,0,.74.38c.26.08.53.14.8.2,2.15.39,4.42.64,6.76.89l-.1-.06,1.76,2.42.16-.24-4.86-.83h0c-2-.15-4.14-.25-6.29-.24-1.07,0-2.15,0-3.25.16a9.55,9.55,0,0,0-1.65.3,2.92,2.92,0,0,0-.8.34,1.14,1.14,0,0,0-.52.77,1,1,0,0,0,.44.81,3.56,3.56,0,0,0,.76.42,9.49,9.49,0,0,0,1.63.48c1.12.24,2.25.35,3.38.53l6.86,1,3.73.54v-.32a42.12,42.12,0,0,1-8.67.28,37.62,37.62,0,0,0-4.24-.14,6.08,6.08,0,0,0-2.1.37,1.58,1.58,0,0,0-.85.72,1.88,1.88,0,0,0-.13,1.07.77.77,0,0,0,.36.47,2.42,2.42,0,0,0,.47.26,8.47,8.47,0,0,0,1,.32c.66.16,1.32.27,2,.37,1.31.19,2.61.31,3.89.4l1.91.14c.62,0,1.25.14,1.87.16,1.24.08,2.45.14,3.65.19l0-.28a16,16,0,0,1-4,.68c-1.36.05-2.67.15-4,.26-.64.06-1.27.11-1.9.19l-.93.13a3.36,3.36,0,0,0-.48.12,2.52,2.52,0,0,0-.42.24.62.62,0,0,0-.28.45.85.85,0,0,0,.1.48,2.55,2.55,0,0,0,.24.39l.14.17a.65.65,0,0,0,.2.17,5.49,5.49,0,0,0,1.73.4,60,60,0,0,0,6.43.21l1.46,0a10.7,10.7,0,0,1,1.39,0,10,10,0,0,1,2.53.4l7.27,2.23,1.92.57.5.14c.11,0,.17.05.17,0l-.17-.06-.48-.16-1.91-.62-7.24-2.3a17.5,17.5,0,0,0-5.44-.44,62.4,62.4,0,0,1-6.4-.24,5.4,5.4,0,0,1-1.63-.38.35.35,0,0,1-.13-.11l-.13-.16a3.37,3.37,0,0,1-.22-.35.46.46,0,0,1,.1-.64,1.94,1.94,0,0,1,.38-.2,4.11,4.11,0,0,1,.41-.1l.92-.13q.93-.11,1.89-.18c1.28-.11,2.6-.2,3.94-.25a16.8,16.8,0,0,0,4.12-.67.14.14,0,0,0,.1-.18.13.13,0,0,0-.13-.1h0c-1.2-.06-2.41-.12-3.65-.2-.62,0-1.22-.12-1.86-.17l-1.91-.14c-1.27-.1-2.57-.21-3.87-.4-.65-.1-1.3-.21-1.94-.37a6,6,0,0,1-.93-.31c-.28-.12-.6-.29-.64-.51a1.5,1.5,0,0,1,.11-.86,1.22,1.22,0,0,1,.68-.57,5.84,5.84,0,0,1,2-.34,37.4,37.4,0,0,1,4.21.14,42.16,42.16,0,0,0,8.74-.28.16.16,0,0,0,0-.32h0l-3.72-.55L522,228c-1.13-.18-2.26-.3-3.35-.52a8.92,8.92,0,0,1-1.57-.47,3,3,0,0,1-.69-.37.64.64,0,0,1-.31-.54c0-.44.56-.7,1.07-.83a12.34,12.34,0,0,1,1.59-.29c1.08-.11,2.16-.15,3.22-.16,2.14,0,4.23.08,6.26.23h0l4.86.82a.15.15,0,0,0,.18-.11.12.12,0,0,0,0-.12l-1.77-2.41a.17.17,0,0,0-.1-.06c-2.34-.24-4.61-.48-6.74-.87-.26-.05-.53-.11-.77-.18a2.68,2.68,0,0,1-.67-.35c-.41-.27-.72-.7-.54-1.13a1.5,1.5,0,0,1,1-.91,4.38,4.38,0,0,1,1.43-.2h0c2,0,3.94-.07,5.76,0,.91,0,1.8,0,2.64.11a1.71,1.71,0,0,1,.56.13l.49.37.94.75,6.29,5.1,4,3.23,1,.83Z" style="fill:#ff9a6c"></path><path d="M549.65,232c-.08.09,5.07,4.42,11.51,9.66s11.72,9.42,11.8,9.32-5.07-4.41-11.5-9.66S549.73,231.91,549.65,232Z" style="fill:#ff9a6c"></path><path d="M500.57,274.48A14.94,14.94,0,0,0,502.42,290c10.66-1.62,27.25-5.88,37-10.47-10.84-.36-27.77-1.86-37.58-6.47Z" style="fill:#455a64"></path><path d="M557.36,263.15a7.72,7.72,0,0,0-4-1.59c-2.21-.07-4.13,1.44-5.77,2.92-5.18,4.69-17,13-21.06,18.66,11.09-.12,25.21-3.66,35.78-7A12.29,12.29,0,0,0,557.36,263.15Z" style="fill:#455a64"></path><path d="M531.46,274.55a6.38,6.38,0,0,0-7.38,2.19,5.92,5.92,0,0,0,.87,7.55,7.6,7.6,0,0,0,6.85,1.23,5.93,5.93,0,0,0,3.2-1.8,5,5,0,0,0,.59-5A8.16,8.16,0,0,0,532.1,275" style="fill:#455a64"></path><path d="M546.81,300.54a57.47,57.47,0,0,0-13.73-19l-2.75.5c-1.09,4.16-.33,8.58.91,12.7s3,8.1,3.84,12.3.84,8.82-1.29,12.55a42.35,42.35,0,0,0,11.79-.34,6.09,6.09,0,0,0,2.83-1c1.41-1.1,1.68-3.1,1.65-4.88A33.49,33.49,0,0,0,546.81,300.54Z" style="fill:#455a64"></path><path d="M516,297.35a50.69,50.69,0,0,1,12.1-16.71l2.41.44c1,3.66.3,7.56-.79,11.18s-2.61,7.14-3.39,10.84-.73,7.76,1.14,11a37.3,37.3,0,0,1-10.39-.3,5.42,5.42,0,0,1-2.49-.9c-1.23-1-1.48-2.73-1.45-4.3A29.38,29.38,0,0,1,516,297.35Z" style="fill:#455a64"></path><path d="M483.16,240.58l8.21-14.74-13.23-8c-.75.76-7.79,14.25-9.45,17.35-3.77,7.06-2.46,12.1.54,14.1,4.18,2.81,35.27,21.22,35.27,21.22l4.61-7.06S484.64,242.07,483.16,240.58Z" style="fill:#ffbf9d"></path><path d="M508,262.65s4.13,2.77,5.87,6a113.21,113.21,0,0,1,4.9,11.75c.11.54-.54,8.81-.54,8.81L515.43,296s-2,.22-1-2.5a41,41,0,0,0,1.41-4.71l-.32-5.51-1.09,5.51-5,7.22a2,2,0,0,1-1.08-2.73c.76-2.06,2.17-5.76,2.17-5.76l-3.7,4.57a1.35,1.35,0,0,1-1.08-1.85,25.16,25.16,0,0,1,.87-2.72s-1.68.22-.95-1.52a19.65,19.65,0,0,0,1.06-3.48l-.44-5.23s-2.39-4.46-2.61-7S508,262.65,508,262.65Z" style="fill:#ffbf9d"></path></g><g id="freepik--character-2--inject-4"><path d="M431.07,57.3a4.39,4.39,0,0,1,5-3.77,5.61,5.61,0,0,1,7.41-2.26c1.2.67,2.1,1.77,3.27,2.48a38.87,38.87,0,0,0,3.63,1.56,4,4,0,0,1,2.47,2.86,3.46,3.46,0,0,1-2.35,3.34,10.17,10.17,0,0,1-4.33.39,1.53,1.53,0,0,1,.45,2,3.06,3.06,0,0,1-1.69,1.36A6.66,6.66,0,0,1,438.09,64l-2.74-2.1A4.37,4.37,0,0,1,431.07,57.3Z" style="fill:#263238"></path><path d="M437.91,66.44a1.45,1.45,0,0,0,1.93,0,2,2,0,0,0,.46-2A3,3,0,0,0,439,62.81,7.49,7.49,0,0,0,437,62a14.18,14.18,0,0,0-3.23-.61,2.63,2.63,0,0,0-1.15.14,1.12,1.12,0,0,0-.7.86c0,.55.44,1,.88,1.3a32.73,32.73,0,0,0,5.22,3.17" style="fill:#FF725E"></path><path d="M439.51,66.16c2.59-2.89,9.05-2.51,10.59-.62a4.93,4.93,0,0,1,6.46,2.09l6.87,1.45a7.24,7.24,0,0,1,3.31,1.31,2.46,2.46,0,0,1,.6,3.2,3.73,3.73,0,0,1,1.61,6,2.59,2.59,0,0,1-.36,3.77,25.84,25.84,0,0,1,4.48,7.61,5.29,5.29,0,0,1,.37,3.61c-.42,1.17-1.95,2-2.95,1.26a3,3,0,0,1,.16,3.29c1.16,0,1.52,1.81.73,2.66a4.23,4.23,0,0,1-3.25.93,5.59,5.59,0,0,0-3.37.6,1.09,1.09,0,0,0,.39.73,4.78,4.78,0,0,1,1.11,6.5c-.14.19-.27.37-.38.54a10.59,10.59,0,0,1-3.36,2.39c-2.61,1.39-4.18,1.14-7.11,1.58.82,1.89-3.91,6.11-9.39,2a105,105,0,0,1-29.94,4.27c-1.6,0-3.53-.19-4.26-1.62a4,4,0,0,1-3.67-1.18,11.53,11.53,0,0,1-2.18-3.38,7,7,0,0,1-5.08-6.27,8.62,8.62,0,0,1-3.31-6.12,5.08,5.08,0,0,1-3-6.83,30.45,30.45,0,0,1,3.28-9.5c-1.85-.39-2.56-2.87-1.81-4.6s2.41-2.85,4-3.87c-1.37.38-2.58-1.35-2.27-2.73a5.44,5.44,0,0,1,2.78-3.1,25.37,25.37,0,0,1,5.69-2.58c.63-2.43,3.71-5.21,6-6.3,9.13-4.4,15.53-5.54,27.26,2.92" style="fill:#263238"></path><path d="M446.56,80.84c.12-1.92.44-3.83-1.46-4.11l-19.46-5.87c-6.27-1-10.81,6.62-11.5,12.93-.76,7-1.41,15.59-.82,20.87a16.06,16.06,0,0,0,10.56,13.47l-.25,6.44c.81,5,2.07,10.53,4.08,12.51,6.88-1.28,18.14-16.41,18.14-16.41Z" style="fill:#ae7461"></path><path d="M424.33,99.81a9.75,9.75,0,0,0-2.35-.53c-.37-.06-.72-.15-.77-.4a1.94,1.94,0,0,1,.3-1.09L422.74,95c1.7-4,3-7.22,2.8-7.29s-1.68,3.09-3.38,7c-.42,1-.81,1.9-1.18,2.79a2.13,2.13,0,0,0-.26,1.45.89.89,0,0,0,.58.57,2.38,2.38,0,0,0,.63.12A8.84,8.84,0,0,0,424.33,99.81Z" style="fill:#263238"></path><path d="M423.88,118.13a34.88,34.88,0,0,0,12.95-4.27s-2.44,6.65-13,7.46Z" style="fill:#6f4439"></path><path d="M430.54,83.6c.12.4,1.59.28,3.28.56s3.06.81,3.3.47c.11-.17-.11-.55-.65-1a5.54,5.54,0,0,0-2.42-1,5.46,5.46,0,0,0-2.6.19C430.81,83.11,430.49,83.41,430.54,83.6Z" style="fill:#263238"></path><path d="M416.54,83.36c.24.34,1.26,0,2.47.08s2.21.32,2.47,0c.11-.16,0-.5-.47-.84a3.58,3.58,0,0,0-4,0C416.59,82.86,416.44,83.19,416.54,83.36Z" style="fill:#263238"></path><path d="M409.4,88.85a7.26,7.26,0,0,1,1.75-4.54,26.94,26.94,0,0,0,2-1.89c1.19-1.55,1-3.72,1.52-5.61a8,8,0,0,1,4.94-5.36c2-.7,4.22-.61,6.08-1.59,1.37-.73,2.42-2,3.83-2.64,2.75-1.25,5.94.16,8.54,1.71.51,2.07-.79,3.85-2,5.56a7.39,7.39,0,0,1-5.43,3c-1.65.1-3.57-.28-4.73.9s-.75,3.41-1.75,4.83c-1.43,2-4.69,1.25-6.83,2.5-1.65,1-2.35,2.95-3.18,4.67s-2.28,3.52-4.19,3.43A21.56,21.56,0,0,1,409.4,88.85Z" style="fill:#263238"></path><path d="M433.91,72.69A37.45,37.45,0,0,1,448,75.24a6.82,6.82,0,0,1,3.48,2.41,6.6,6.6,0,0,1,.73,3.65c-.05,4-1.64,8.79-3.15,12.44l-4.93,3c-3.8-.9-2.05-7.46-1.87-10.75a7.75,7.75,0,0,1-4.53-6.85A8.6,8.6,0,0,1,433.91,72.69Z" style="fill:#263238"></path><path d="M444.22,95.27c.16-2.26,2.93-2.7,4.87-1.53,1.07.64,1.87,1.9,1.73,4.3-.37,6.4-6.72,4.71-6.72,4.52S444.05,97.92,444.22,95.27Z" style="fill:#ae7461"></path><path d="M446.2,100.25s.1.09.29.18a1.06,1.06,0,0,0,.83.07,2.77,2.77,0,0,0,1.42-2.4,3.67,3.67,0,0,0-.22-1.61,1.3,1.3,0,0,0-.79-.91.6.6,0,0,0-.68.27c-.09.17-.06.3-.09.31s-.13-.11-.07-.37a.76.76,0,0,1,.28-.39.81.81,0,0,1,.62-.13,1.61,1.61,0,0,1,1.11,1.06,3.82,3.82,0,0,1,.28,1.81,2.9,2.9,0,0,1-1.78,2.67,1.2,1.2,0,0,1-1-.23C446.2,100.41,446.17,100.26,446.2,100.25Z" style="fill:#6f4439"></path><path d="M446.91,102.94s0,0,0,.09a2,2,0,0,0,.09.24,1.54,1.54,0,0,0,.74.67,4,4,0,0,0,1.58.33,5.3,5.3,0,0,0,1-.07,3.78,3.78,0,0,0,1.12-.34l-.08,0a3.18,3.18,0,0,0,5.07,2l-.11,0a1.3,1.3,0,0,0,.84.56,1.74,1.74,0,0,0,1-.09,1.68,1.68,0,0,0,.84-.67,2.26,2.26,0,0,0,.32-1,3.25,3.25,0,0,0-.69-2.14A9.07,9.07,0,0,0,457,100.8V101a2.3,2.3,0,0,0,1-1.52,3.41,3.41,0,0,0-.18-1.89A5,5,0,0,0,456.72,96a15.25,15.25,0,0,0-1.51-1.28v.14a2.44,2.44,0,0,0,.63-1.86,3.53,3.53,0,0,0-.72-1.9A8.66,8.66,0,0,0,452,88.87l.05.11a4.25,4.25,0,0,0-4.61-5.24l.1.11a3.69,3.69,0,0,0-.86-3.12A3.62,3.62,0,0,0,444,79.4l.08.08a3.63,3.63,0,0,0-1.45-2.79,3.57,3.57,0,0,0-2.68-.74L440,76a3.53,3.53,0,0,0-.52-1.65,4.92,4.92,0,0,0-1-1.17,3.74,3.74,0,0,0-2.19-1h-.46c-.15,0-.29,0-.41,0a6.18,6.18,0,0,0-.61.17l-.36.16-.11.05.12,0,.36-.13a4.39,4.39,0,0,1,.61-.16c.12,0,.26,0,.4,0h.22l.24,0a3.67,3.67,0,0,1,2.12,1,4.35,4.35,0,0,1,.94,1.16,3.38,3.38,0,0,1,.49,1.58v.08H440a3.39,3.39,0,0,1,2.57.73,3.46,3.46,0,0,1,1.38,2.67v.08H444a3.47,3.47,0,0,1,2.57,1.28,3.51,3.51,0,0,1,.81,3l0,.12h.12a4.06,4.06,0,0,1,4.4,5l0,.07.07,0A8.31,8.31,0,0,1,455,91.17a3.25,3.25,0,0,1,.68,1.8,2.15,2.15,0,0,1-.57,1.7l-.08.08.09.07a7.46,7.46,0,0,1,2.57,2.8,3.16,3.16,0,0,1,.18,1.77,2.1,2.1,0,0,1-.93,1.4l-.11.07.1.08a9.4,9.4,0,0,1,1.66,1.61,3.09,3.09,0,0,1,.66,2,1.71,1.71,0,0,1-1,1.59,1.42,1.42,0,0,1-1.7-.41l0-.07-.06,0a3.06,3.06,0,0,1-4.87-1.92l0-.07-.06,0a3.81,3.81,0,0,1-1.09.34,5.05,5.05,0,0,1-1,.07,3.67,3.67,0,0,1-1.56-.3,1.54,1.54,0,0,1-.74-.62A2.14,2.14,0,0,1,446.91,102.94Z" style="fill:#455a64"></path><path d="M471.28,96.1a2.5,2.5,0,0,0,.24-.38,3.4,3.4,0,0,0,.34-1.27,3.19,3.19,0,0,0-.53-2A3.42,3.42,0,0,0,469,91l.05.08a4.34,4.34,0,0,0-.58-3.16,4.16,4.16,0,0,0-1.25-1.33,10.06,10.06,0,0,0-1.75-.83,3.49,3.49,0,0,1-.83-.49,2.22,2.22,0,0,1-.59-.79c-.28-.62-.37-1.34-.73-2a3.88,3.88,0,0,0-3.9-1.93l.11.1a5.11,5.11,0,0,0-5.67-5.81l.11.11a4.5,4.5,0,0,0-7-4.21h.1a6.11,6.11,0,0,0-2.23-1.37,9,9,0,0,0-2.3-.52,10.73,10.73,0,0,0-3.79.25,7.56,7.56,0,0,0-2.25.94,3.83,3.83,0,0,0-.52.37l-.17.14s.24-.18.71-.47a8,8,0,0,1,2.25-.89,10.92,10.92,0,0,1,3.76-.21,9.23,9.23,0,0,1,2.26.53A6.13,6.13,0,0,1,447,70.83l0,0,.06,0a4.33,4.33,0,0,1,6.72,4.06l0,.12.12,0a4.94,4.94,0,0,1,5.46,5.6v.13l.12,0a3.7,3.7,0,0,1,3.71,1.83c.34.62.43,1.34.73,2a2.33,2.33,0,0,0,.64.85,3.92,3.92,0,0,0,.88.52,10.47,10.47,0,0,1,1.72.8A4.13,4.13,0,0,1,468.37,88a4.3,4.3,0,0,1,.58,3l0,.07H469a3.28,3.28,0,0,1,2.25,1.4,3.21,3.21,0,0,1,.54,2,3.5,3.5,0,0,1-.3,1.25C471.36,96,471.27,96.1,471.28,96.1Z" style="fill:#455a64"></path><path d="M410.1,97.83a.62.62,0,0,0,0-.52,1.22,1.22,0,0,0-.37-.53,2.18,2.18,0,0,0-.79-.4,3.69,3.69,0,0,1-1-.42,2,2,0,0,1-.72-1,3.89,3.89,0,0,1-.16-1.47c0-.53.1-1.09.11-1.68a17.47,17.47,0,0,0-.82-3.79,5.27,5.27,0,0,1-.08-2.1,2.52,2.52,0,0,1,1.16-1.8,9.52,9.52,0,0,1,2.24-.76,4.12,4.12,0,0,0,1.15-.53,2.55,2.55,0,0,0,.8-1,12.36,12.36,0,0,0,.68-2.52,4,4,0,0,1,.44-1.21,2,2,0,0,1,.94-.83,6.87,6.87,0,0,1,1.77-.24,2.54,2.54,0,0,0,.9-.23,1.85,1.85,0,0,0,.71-.59,6.59,6.59,0,0,0,.67-1.64,4,4,0,0,1,.8-1.44,3.84,3.84,0,0,1,2.79-1.33,3.93,3.93,0,0,1,2.71,1l.09.08,0-.11a6.13,6.13,0,0,1,3.8-3.28,5.69,5.69,0,0,1,2.14-.18,5.11,5.11,0,0,1,1.76.49,4.53,4.53,0,0,1,1.87,1.72,3.87,3.87,0,0,1,.31.6l.08.16,0,0a.15.15,0,0,0,0-.06l-.06-.16a3.67,3.67,0,0,0-.3-.62,4.47,4.47,0,0,0-1.87-1.78,5.22,5.22,0,0,0-1.79-.52,5.9,5.9,0,0,0-2.18.17A6.26,6.26,0,0,0,424,72.65l.13,0a4.09,4.09,0,0,0-2.83-1,4.1,4.1,0,0,0-3.76,2.89,6.18,6.18,0,0,1-.65,1.59,1.89,1.89,0,0,1-1.47.74,6.87,6.87,0,0,0-1.82.25,2.15,2.15,0,0,0-1,.91,4.5,4.5,0,0,0-.46,1.27,12.38,12.38,0,0,1-.66,2.48,2.39,2.39,0,0,1-.75.94,3.49,3.49,0,0,1-1.09.5,9.78,9.78,0,0,0-2.28.79,2.5,2.5,0,0,0-.84.84,3.34,3.34,0,0,0-.39,1.08,5.61,5.61,0,0,0,.09,2.17,17.43,17.43,0,0,1,.84,3.75c0,.58-.08,1.14-.09,1.68a3.87,3.87,0,0,0,.18,1.5,2,2,0,0,0,.77,1.07,3.63,3.63,0,0,0,1,.41,2.3,2.3,0,0,1,.77.37,1.28,1.28,0,0,1,.38.5A.82.82,0,0,1,410.1,97.83Z" style="fill:#455a64"></path><path d="M397.68,87.92s0,0,.07-.12l.17-.36c.16-.32.38-.79.66-1.38s.62-1.35,1.08-2.18a5.76,5.76,0,0,1,2.15-2.29c.51-.28,1.11-.47,1.71-.73a4.9,4.9,0,0,0,.88-.51,2.35,2.35,0,0,0,.65-.84c.3-.66.31-1.42.55-2.1a1.9,1.9,0,0,1,.62-.88,3.46,3.46,0,0,1,1-.47,6.59,6.59,0,0,0,1.13-.44,2,2,0,0,0,.87-.9,9.18,9.18,0,0,0,.55-2.48,3.09,3.09,0,0,1,.42-1.17,1.63,1.63,0,0,1,1-.67c.84-.18,1.75.12,2.68,0a2.27,2.27,0,0,0,1.23-.65,5.93,5.93,0,0,0,.8-1.1,11,11,0,0,1,.7-1.11,2.57,2.57,0,0,1,.94-.8,3.78,3.78,0,0,1,2.42,0,5.72,5.72,0,0,0,2.43.21,6.45,6.45,0,0,0,2.11-1,11.82,11.82,0,0,1,1.88-1,6.69,6.69,0,0,1,3.8-.12A7.12,7.12,0,0,1,433,66.26a7.68,7.68,0,0,1,1.55,1.84,8.63,8.63,0,0,1,.67,1.37c.06.16.11.28.15.37a1.11,1.11,0,0,0,0,.13s0,0,0-.13-.07-.22-.13-.38a7.84,7.84,0,0,0-.63-1.4,7.56,7.56,0,0,0-1.55-1.88,7.11,7.11,0,0,0-2.84-1.5,6.73,6.73,0,0,0-3.89.1,12,12,0,0,0-1.92,1,6.31,6.31,0,0,1-2.06.93,5.45,5.45,0,0,1-2.35-.21,8.23,8.23,0,0,0-1.24-.22,2.78,2.78,0,0,0-1.3.2,2.66,2.66,0,0,0-1,.87,11.86,11.86,0,0,0-.72,1.12,5.31,5.31,0,0,1-.77,1.06,2.09,2.09,0,0,1-1.12.6c-.87.14-1.78-.15-2.69,0a1.77,1.77,0,0,0-1.13.75,3.23,3.23,0,0,0-.46,1.24,9.78,9.78,0,0,1-.52,2.44,1.86,1.86,0,0,1-.8.82,6.61,6.61,0,0,1-1.1.43,3.66,3.66,0,0,0-1.08.5,2,2,0,0,0-.67,1c-.25.73-.25,1.47-.54,2.09a2.62,2.62,0,0,1-1.44,1.28c-.59.27-1.19.46-1.72.75a5.76,5.76,0,0,0-2.17,2.36c-.46.84-.78,1.59-1.05,2.2l-.63,1.4-.16.36A1.11,1.11,0,0,1,397.68,87.92Z" style="fill:#455a64"></path><path d="M404.49,81.23l-.11,0a.74.74,0,0,0-.35.07,1.4,1.4,0,0,0-.63,1.14,3.28,3.28,0,0,0,.13,1,3.91,3.91,0,0,1,.17,1.11,2.43,2.43,0,0,1-.45,1.18c-.25.39-.57.77-.82,1.23a1.84,1.84,0,0,0-.16,1.61c.2.54.6,1,.79,1.55a2.41,2.41,0,0,1-.17,1.76c-.25.59-.61,1.15-.85,1.8a2.84,2.84,0,0,0-.21,1,2.6,2.6,0,0,0,.24,1.06,12.3,12.3,0,0,0,1.22,1.82,3,3,0,0,1,.68,2,9.87,9.87,0,0,1-.78,2.16,3.35,3.35,0,0,0-.24,1.17,2.65,2.65,0,0,0,.3,1.15,9.71,9.71,0,0,0,1.38,1.81,5.25,5.25,0,0,1,1.12,1.82,17.18,17.18,0,0,0,.66,2,2.45,2.45,0,0,0,.65.81,3,3,0,0,0,.91.43,7,7,0,0,1,.88.32,2.92,2.92,0,0,1,.74.5,6.41,6.41,0,0,1,1.05,1.37c.29.48.57,1,.87,1.37a4.43,4.43,0,0,0,2.23,1.64,4.8,4.8,0,0,0,2.09.2,4.09,4.09,0,0,0,1.28-.38,2.48,2.48,0,0,0,.4-.23,4.89,4.89,0,0,1-1.69.53,4.62,4.62,0,0,1-2-.23,4.32,4.32,0,0,1-2.16-1.61c-.29-.42-.56-.89-.85-1.37a6.65,6.65,0,0,0-1.07-1.41,3.07,3.07,0,0,0-.78-.53,7.48,7.48,0,0,0-.9-.33,2.91,2.91,0,0,1-.85-.41,2.31,2.31,0,0,1-.6-.75,15.68,15.68,0,0,1-.64-2,5.55,5.55,0,0,0-1.15-1.88,9.64,9.64,0,0,1-1.35-1.77,2.37,2.37,0,0,1-.28-1.07,3,3,0,0,1,.22-1.1,9.55,9.55,0,0,0,.79-2.21,2.41,2.41,0,0,0-.16-1.16,4.75,4.75,0,0,0-.55-1,12.6,12.6,0,0,1-1.21-1.8,2.6,2.6,0,0,1-.23-1,2.81,2.81,0,0,1,.2-1c.23-.62.58-1.19.83-1.79a2.47,2.47,0,0,0,.17-1.88c-.21-.59-.61-1-.8-1.56a1.67,1.67,0,0,1,.14-1.49c.24-.44.55-.82.8-1.22a2.62,2.62,0,0,0,.46-1.24,3.94,3.94,0,0,0-.19-1.14,3.66,3.66,0,0,1-.15-.93,1.39,1.39,0,0,1,.58-1.1A.83.83,0,0,1,404.49,81.23Z" style="fill:#455a64"></path><path d="M428.92,102a.87.87,0,0,0-1.1-.48l-4,1.47-.45.17a10.18,10.18,0,0,0,.89,2.34,2.53,2.53,0,0,0,1.73,1.23,2.86,2.86,0,0,0,1.69-.42,3.3,3.3,0,0,0,1.78-2A4.93,4.93,0,0,0,428.92,102Z" style="fill:#6f4439"></path><path d="M450.69,101.9a3.24,3.24,0,0,1,.95.55A4.31,4.31,0,0,1,453.2,105a4.64,4.64,0,0,1-.05,2.09,5.35,5.35,0,0,1-3.4,3.57,4.85,4.85,0,0,1-2.85.06,5.14,5.14,0,0,1-2.44-1.48,4.65,4.65,0,0,1-1.16-2.4,5,5,0,0,1,1.26-4.21,4.66,4.66,0,0,1,2.71-1.26,2.36,2.36,0,0,1,.83,0,1.58,1.58,0,0,1,.27.08,3.65,3.65,0,0,0-1.08,0,4.88,4.88,0,0,0-2.61,1.29,4.82,4.82,0,0,0-1.16,4,4.43,4.43,0,0,0,1.12,2.27A5,5,0,0,0,447,110.5a4.62,4.62,0,0,0,2.71-.06,5.09,5.09,0,0,0,3.28-3.39,4.46,4.46,0,0,0,.08-2,4.35,4.35,0,0,0-1.45-2.52A7.84,7.84,0,0,0,450.69,101.9Z" style="fill:#e0e0e0"></path><path d="M430.54,93.65a1.38,1.38,0,0,0,1.27,1.46,1.33,1.33,0,0,0,1.49-1.19A1.4,1.4,0,0,0,432,92.46,1.33,1.33,0,0,0,430.54,93.65Z" style="fill:#263238"></path><path d="M417.63,93.65a1.38,1.38,0,0,0,1.28,1.46,1.33,1.33,0,0,0,1.48-1.19,1.39,1.39,0,0,0-1.27-1.46A1.33,1.33,0,0,0,417.63,93.65Z" style="fill:#263238"></path><path d="M416.69,88.2c.13.21,1.2-.52,2.56-.36s2.26,1,2.44.87,0-.44-.43-.86a3.12,3.12,0,0,0-4-.41C416.81,87.77,416.62,88.1,416.69,88.2Z" style="fill:#263238"></path><path d="M429.72,89.32c.19.21,1.35-.7,3-.68s2.84.9,3,.69-.1-.48-.62-.9a4,4,0,0,0-2.41-.81,3.89,3.89,0,0,0-2.39.81C429.8,88.84,429.63,89.22,429.72,89.32Z" style="fill:#263238"></path><path d="M425.07,106.19a1,1,0,0,0,.44.32,2.46,2.46,0,0,0,1.49.13,4,4,0,0,0,2-1,2.46,2.46,0,0,0,.67-1.19,3.19,3.19,0,0,0,0-1.44,5.85,5.85,0,0,0-.51-1.31,1,1,0,0,0-.58-.55,1.13,1.13,0,0,0-.72.12l-2,.8a8.12,8.12,0,0,0-1.79.85,10.35,10.35,0,0,0,1.9-.56l2-.72c.41-.17.6-.15.79.25a6.83,6.83,0,0,1,.46,1.22,2.28,2.28,0,0,1-.5,2.25,3.77,3.77,0,0,1-1.74,1,2.72,2.72,0,0,1-1.36,0C425.26,106.26,425.1,106.16,425.07,106.19Z" style="fill:#263238"></path><path d="M398.35,61.52a8.07,8.07,0,0,1,1.75-1,6,6,0,0,1,2.3-.41,5.71,5.71,0,0,1,2.93.84l.14.09.08-.14a5.27,5.27,0,0,1,3.2-2.36,5.36,5.36,0,0,1,4.5.71l.17.13.12-.17A8.64,8.64,0,0,1,419,55.88a8.25,8.25,0,0,1,5,.76,8.6,8.6,0,0,1,3.47,3.07l.06.09h.1a13.11,13.11,0,0,1,5.16,1.28,13.55,13.55,0,0,1,3.44,2.35,19.24,19.24,0,0,1,2.35,2.84s0-.08-.1-.23-.19-.37-.36-.63a12.36,12.36,0,0,0-1.73-2.15,13.29,13.29,0,0,0-3.46-2.47,13.09,13.09,0,0,0-5.29-1.38l.16.09a8.84,8.84,0,0,0-3.61-3.24,8.55,8.55,0,0,0-5.24-.8A9,9,0,0,0,413.21,59l.29,0a5.71,5.71,0,0,0-4.85-.74,5.58,5.58,0,0,0-3.38,2.56l.22-.06a5.81,5.81,0,0,0-3.09-.82,6,6,0,0,0-2.37.49,5.72,5.72,0,0,0-1.31.8A1.8,1.8,0,0,0,398.35,61.52Z" style="fill:#263238"></path><path d="M441.7,59.29a3.85,3.85,0,0,0,1.6.38,5.76,5.76,0,0,0,4.21-1.51,5.37,5.37,0,0,0,1.56-2.76,5.9,5.9,0,0,0-.36-3.65,5.42,5.42,0,0,0-2.93-2.81,5.85,5.85,0,0,0-4.41,0l.25.06a4.1,4.1,0,0,0-2.4-1.37,4.33,4.33,0,0,0-2.34.2,3.91,3.91,0,0,0-1.77,1.43,4.26,4.26,0,0,0-.36,4.16l.28-.26a3.52,3.52,0,0,0-3.29-.07,3.66,3.66,0,0,0-1.95,2.29,4.65,4.65,0,0,0,1.28,4.6,5.68,5.68,0,0,0,2.82,1.46,5.18,5.18,0,0,0,.84.12,1.36,1.36,0,0,0,.3,0s-.4,0-1.11-.23a5.93,5.93,0,0,1-2.68-1.51,4.42,4.42,0,0,1-1.12-4.33,3.27,3.27,0,0,1,1.78-2,3.15,3.15,0,0,1,2.92.08l.59.35-.3-.61a3.89,3.89,0,0,1,.35-3.75A3.41,3.41,0,0,1,437,48.19a3.93,3.93,0,0,1,2.1-.18,3.71,3.71,0,0,1,2.15,1.23l.1.12.15-.06a5.38,5.38,0,0,1,4.08,0,5,5,0,0,1,2.74,2.59,5.61,5.61,0,0,1,.37,3.42A5,5,0,0,1,447.31,58a5.69,5.69,0,0,1-4,1.56A8.36,8.36,0,0,1,441.7,59.29Z" style="fill:#263238"></path><path d="M472.12,75.92a1,1,0,0,0,.12-.25,5.59,5.59,0,0,0,.25-.74,6.89,6.89,0,0,0,.07-2.94,6.74,6.74,0,0,0-2.24-3.87,7.12,7.12,0,0,0-5.39-1.64l.21.11a8.52,8.52,0,0,0-4.31-4.06,8.13,8.13,0,0,0-4.49-.52,8.52,8.52,0,0,0-3.79,1.64h.21a9.37,9.37,0,0,0-4.55-1.09,9.67,9.67,0,0,0-3.57.73,8.58,8.58,0,0,0-2,1.18A3.4,3.4,0,0,0,442,65a12.78,12.78,0,0,1,2.74-1.53,9.46,9.46,0,0,1,3.48-.62,9.06,9.06,0,0,1,4.36,1.1l.12.06.1-.08a8.16,8.16,0,0,1,3.62-1.53,7.73,7.73,0,0,1,4.25.5,8.13,8.13,0,0,1,4.11,3.84l.06.14.15,0a6.79,6.79,0,0,1,5.11,1.5A6.49,6.49,0,0,1,472.3,72a7.09,7.09,0,0,1,.05,2.86C472.22,75.56,472.08,75.9,472.12,75.92Z" style="fill:#263238"></path><path d="M358.22,194.5l3.61-5.45,5.78-2.9.22-.16a7.76,7.76,0,0,1,6.55-1.22c2.36.63,5.5,1.41,8.23,1.88l6.22-1.71v12.15l-31.39-2Z" style="fill:#ae7461"></path><path d="M358.44,194.17a8,8,0,0,1,1.33-1.22c.85-.71,2-1.66,3.37-2.7l1.24-1,0,0h0c1.29-.24,2.41-.43,3.21-.56a5.42,5.42,0,0,1,1.28-.13,4.64,4.64,0,0,1-1.24.37c-.78.19-1.89.43-3.17.69l.08,0-1.24,1c-1.33,1-2.55,2-3.44,2.62A7.77,7.77,0,0,1,358.44,194.17Z" style="fill:#6f4439"></path><path d="M360.89,195.23a35,35,0,0,1,4.51-2.73l1.11-.6,0,0h0a23.58,23.58,0,0,1,4-.06,25.24,25.24,0,0,1-4,.44l.08,0-1.1.61A37,37,0,0,1,360.89,195.23Z" style="fill:#6f4439"></path><path d="M321.69,160.14a2.38,2.38,0,0,1,3.09.66L350.06,195l40,.54c1.59.1,3.53,3.33,2.1,4.89L347,199.85l-26.08-36.23A2.39,2.39,0,0,1,321.69,160.14Z" style="fill:#455a64"></path><path d="M321.69,160.14l-.2.11a2.18,2.18,0,0,0-.51.44,2.45,2.45,0,0,0-.37,2.51,15.37,15.37,0,0,0,1.07,1.6l1.33,1.87,3.31,4.64c5,6.95,12.06,16.84,20.53,28.65l0,.08H347l44.36.63h.91l.07-.07a2.28,2.28,0,0,0,.55-1.61,4,4,0,0,0-.43-1.6,4.46,4.46,0,0,0-1-1.32,2.27,2.27,0,0,0-1.51-.71l-6.18-.08-11.94-.16-21.78-.27.14.07-19.88-26.8-5.6-7.48a2.42,2.42,0,0,0-2.25-.82,1.8,1.8,0,0,0-.79.31,3.19,3.19,0,0,1,.8-.25,2.35,2.35,0,0,1,2.15.83c1.29,1.75,3.15,4.3,5.52,7.54,4.77,6.5,11.58,15.77,19.76,26.89l.05.07h.09l21.78.32,11.93.17,6.18.08a1.92,1.92,0,0,1,1.24.6,4.18,4.18,0,0,1,.88,1.2,2.47,2.47,0,0,1-.06,2.74l.16-.07h-.82L347,199.67l.15.07L326.5,171.18l-3.35-4.6-1.35-1.86a14,14,0,0,1-1.08-1.57,2.36,2.36,0,0,1,.31-2.42A2.92,2.92,0,0,1,321.69,160.14Z" style="fill:#263238"></path><path d="M442.87,120.48a13.36,13.36,0,0,1,6.72,3.14,22.68,22.68,0,0,1,5.38,8.82c1.34,4,.74,19.81.74,24.39s-1.17,21.78-1.74,24.64.37,7.12,1.69,9.88c2.38,5-1.33,7.51-1.33,7.51l-49.08-.37.19-1.83c.34-3.19-.85-6.44.37-9.4a30.62,30.62,0,0,0,2.26-13.76c-.63-8.18-3.07-13.76-1.57-18.5,2.29-7.24,9.85-23.7,19-30.73,0,0,7.2-1.54,8.83-2.11C438,120.86,440,120.16,442.87,120.48Z" style="fill:#FF725E"></path><path d="M385.15,183.53l41.94-8.75,1.08-36.41s1.47-14.83,8.9-16.21L455,144.44c-1,11.23-.09,32.48-5.25,40.67s-10.18,14.76-22.89,14.18-40.71-.85-40.71-.85Z" style="fill:#FF725E"></path><path d="M427,174.92c-.1.08.9,1.39,1.75,3.22s1.22,3.44,1.34,3.41a10.67,10.67,0,0,0-3.09-6.63Z" style="fill:#263238"></path><g style="opacity:0.30000000000000004"><path d="M428.46,136.81c-4.19,12.87-3.28,32.72-11.27,40l9.9-2.06a50.4,50.4,0,0,1-.08-7c.8-10.18.9-20.53,1.45-31"></path></g><path d="M429.39,132.22a23.12,23.12,0,0,0-.73,2.92,35.11,35.11,0,0,0-.51,3.61c-.14,1.43-.16,3.08-.23,4.93-.24,7.43-.58,18.1-1,31.09l.14-.16-41.95,8.72-.18,0,0,.18c.3,4.77.63,9.79,1,14.9v.2h.2l5.1.06c7.29.09,14.4.2,21.27.35q5.16.1,10.11.27c3.29.08,6.56.39,9.72-.1a21.22,21.22,0,0,0,4.56-1.18,19.38,19.38,0,0,0,4-2.2,27.42,27.42,0,0,0,6-6.28c.81-1.15,1.59-2.3,2.31-3.44l.55-.86c.17-.29.32-.59.48-.89l.47-.89.36-.92a35,35,0,0,0,1.87-7.28,111,111,0,0,0,1.23-12.84c.19-3.79.28-7.06.37-9.72s.18-4.75.25-6.15c0-.69.08-1.22.1-1.6s0-.54,0-.54,0,.18-.06.54-.08.9-.14,1.6c-.1,1.4-.23,3.47-.34,6.14s-.22,5.93-.44,9.72a113.32,113.32,0,0,1-1.28,12.8,35.22,35.22,0,0,1-1.88,7.21l-.36.91-.46.86c-.16.29-.31.58-.48.87l-.54.85c-.73,1.14-1.5,2.28-2.32,3.42a26.94,26.94,0,0,1-6,6.19,19.05,19.05,0,0,1-3.95,2.15,20.94,20.94,0,0,1-4.47,1.14c-3.11.48-6.34.17-9.65.08s-6.68-.2-10.12-.28c-6.87-.15-14-.27-21.28-.36l-5.1-.05.21.19c-.33-5.11-.66-10.13-1-14.9l-.16.22,41.93-8.8.13,0v-.14c.36-13,.65-23.66.85-31.09.06-1.86.06-3.51.18-4.93s.29-2.63.47-3.6.34-1.7.46-2.19c0-.24.1-.42.13-.56A.67.67,0,0,0,429.39,132.22Z" style="fill:#263238"></path><polygon points="362.08 272.89 368.3 318.77 352.01 321.44 340.43 280.73 362.08 272.89" style="fill:#ae7461"></polygon><path d="M411.46,202.41s-59.53-3.92-71.89-1.94c-7.47,1.19-13.91,12.86-9.84,19.88,1.93,3.32,5,13.66,5,13.66l32-7.3Z" style="fill:#263238"></path><polygon points="366.69 234.01 379.58 253.68 364.41 263.5 347.95 238.28 366.69 234.01" style="fill:#ae7461"></polygon><path d="M453.16,198.81s6,27.47-3.86,38.63-24.47,11.16-39.49,9-50.69-2.89-50.69-2.89,1.59,9.75,2.75,20.85,1.41,18.12,1.41,18.12L341,284.39S328.51,246.53,326.6,239s-1.27-17.57,5.35-21.31c5.6-3.17,49.83-15.43,71-17.25l2.3-2Z" style="fill:#263238"></path><path d="M348.2,234.44c0,.08.86.2,2.19.68a13.87,13.87,0,0,1,2.23,1,15.46,15.46,0,0,1,2.43,1.76,15.74,15.74,0,0,1,2,2.24,13.94,13.94,0,0,1,1.26,2.12c.61,1.27.82,2.12.9,2.1a1.87,1.87,0,0,0-.09-.61,9.85,9.85,0,0,0-.53-1.62,12.86,12.86,0,0,0-1.22-2.21,14.43,14.43,0,0,0-2-2.33,14.63,14.63,0,0,0-2.53-1.8,13,13,0,0,0-2.33-1,10,10,0,0,0-1.66-.36A2.43,2.43,0,0,0,348.2,234.44Z" style="fill:#455a64"></path><path d="M350.85,211.58a6.45,6.45,0,0,0-1.18-2.31,6.06,6.06,0,0,0-1.72-1.94,11.23,11.23,0,0,0,1.37,2.18A10.88,10.88,0,0,0,350.85,211.58Z" style="fill:#455a64"></path><path d="M325.66,228.49a.64.64,0,0,0,.06-.21c0-.17.09-.38.16-.64.13-.56.33-1.38.67-2.41a18.22,18.22,0,0,1,1.58-3.61,9,9,0,0,1,3.61-3.62,97.74,97.74,0,0,1,12.86-4.58c4.94-1.47,10.39-3,16.13-4.56,11.5-3.05,22-5.24,29.74-6.51,3.84-.65,7-1.1,9.13-1.4l2.48-.33.65-.1.22-.05h-.23l-.65.06-2.49.26c-2.17.25-5.3.65-9.16,1.26a301,301,0,0,0-29.79,6.4c-5.76,1.52-11.21,3.1-16.14,4.6a93.84,93.84,0,0,0-12.89,4.68,9.17,9.17,0,0,0-3.67,3.77,17.34,17.34,0,0,0-1.54,3.68c-.31,1-.49,1.88-.6,2.44,0,.27-.08.48-.11.65A.73.73,0,0,0,325.66,228.49Z" style="fill:#455a64"></path><path d="M350.75,320.25l-.54-2a31,31,0,0,0,18-7.75l5.52,11.93-36.8,16.37C335.51,335.29,350.75,320.25,350.75,320.25Z" style="fill:#455a64"></path><path d="M373.7,322.44l-1.35-2.91L337.5,336.34s-1.32,1.42-.6,2.47Z" style="fill:#e0e0e0"></path><path d="M351.24,320c.09.17,1-.15,2.17,0s2,.69,2.1.55-.61-1-2-1.22S351.13,319.87,351.24,320Z" style="fill:#263238"></path><path d="M365.56,318.74a1.09,1.09,0,0,0,1.42.49,1,1,0,0,0,.5-1.38,1.07,1.07,0,0,0-1.42-.49A1,1,0,0,0,365.56,318.74Z" style="fill:#e0e0e0"></path><path d="M351.46,319.77a2.49,2.49,0,0,0,.84-.15,4.44,4.44,0,0,0,2.06-1.1,3.15,3.15,0,0,0,.48-.64,1.91,1.91,0,0,0,.31-.84.9.9,0,0,0-.57-.91,1.41,1.41,0,0,0-1.12.05,4.1,4.1,0,0,0-2.28,3.59l.55-.08a4,4,0,0,0-.37-.82,4.53,4.53,0,0,0-4-2.26,1.34,1.34,0,0,0-.62.12.79.79,0,0,0-.41.55,1.4,1.4,0,0,0,.26,1.06,3.25,3.25,0,0,0,1.41,1.13,5.71,5.71,0,0,0,2.53.38,3.12,3.12,0,0,0,.92-.08,2.63,2.63,0,0,0-.91-.13,6.37,6.37,0,0,1-2.37-.51,3.07,3.07,0,0,1-1.19-1,1,1,0,0,1-.17-.72c0-.21.22-.28.56-.27a4.06,4.06,0,0,1,3.5,2,4.54,4.54,0,0,1,.32.72.28.28,0,0,0,.34.18.27.27,0,0,0,.2-.26,3.68,3.68,0,0,1,1.93-3.15c.5-.27,1.08,0,1,.4a2.43,2.43,0,0,1-.62,1.25,4.82,4.82,0,0,1-1.85,1.16A3.63,3.63,0,0,0,351.46,319.77Z" style="fill:#263238"></path><path d="M348.42,322.57a12.8,12.8,0,0,1,2.43.17,12.57,12.57,0,0,1,2.23,1,3.84,3.84,0,0,0-4.66-1.16Z" style="fill:#263238"></path><path d="M346.36,324.91c0,.12,1,.09,2.16.44s2,.9,2.05.8a3.26,3.26,0,0,0-1.93-1.21A3.21,3.21,0,0,0,346.36,324.91Z" style="fill:#263238"></path><path d="M361.52,261.29l-.87-1.87a31,31,0,0,0,16.42-10.66l7.45,10.83L351,281.91C349,278.68,361.52,261.29,361.52,261.29Z" style="fill:#455a64"></path><path d="M384.52,259.59l-1.82-2.65-31.53,22.44s-1.05,1.63-.18,2.53Z" style="fill:#e0e0e0"></path><path d="M362,261c.12.15,1-.32,2.14-.35s2.06.36,2.16.2-.77-.92-2.17-.87S361.83,260.86,362,261Z" style="fill:#263238"></path><path d="M375.87,257.31a1.08,1.08,0,0,0,1.48.24,1,1,0,0,0,.26-1.45,1.08,1.08,0,0,0-1.48-.24A1,1,0,0,0,375.87,257.31Z" style="fill:#e0e0e0"></path><path d="M362.15,260.7a2.33,2.33,0,0,0,.79-.29,4.52,4.52,0,0,0,1.85-1.43,2.81,2.81,0,0,0,.37-.71,1.92,1.92,0,0,0,.16-.89.91.91,0,0,0-.72-.8,1.44,1.44,0,0,0-1.09.24,4.1,4.1,0,0,0-1.64,3.92l.52-.16a4.46,4.46,0,0,0-.49-.76,4.55,4.55,0,0,0-4.32-1.55,1.44,1.44,0,0,0-.58.22.81.81,0,0,0-.32.61,1.36,1.36,0,0,0,.44,1,3.19,3.19,0,0,0,1.58.88,5.65,5.65,0,0,0,2.55-.05,3.41,3.41,0,0,0,.9-.23,2.93,2.93,0,0,0-.93,0,6.18,6.18,0,0,1-2.41-.11,2.84,2.84,0,0,1-1.35-.81,1,1,0,0,1-.3-.68c0-.21.18-.3.51-.36a4.06,4.06,0,0,1,3.79,1.4,5,5,0,0,1,.44.66.27.27,0,0,0,.37.12.26.26,0,0,0,.15-.28,3.7,3.7,0,0,1,1.37-3.44c.45-.34,1.06-.22,1.09.22a2.47,2.47,0,0,1-.4,1.34,4.69,4.69,0,0,1-1.64,1.45A3.12,3.12,0,0,0,362.15,260.7Z" style="fill:#263238"></path><path d="M359.62,264a14.19,14.19,0,0,1,2.42-.24,14,14,0,0,1,2.37.6,3.84,3.84,0,0,0-4.79-.36Z" style="fill:#263238"></path><path d="M358,266.62c0,.12,1-.08,2.2.07s2.09.56,2.15.45a4.21,4.21,0,0,0-4.35-.52Z" style="fill:#263238"></path></g><g id="freepik--character-1--inject-4"><path d="M191.88,333.21l22.52,33.38,37.18-15.46s3.37,21.21,2.89,21.53-34.83,15.95-41.62,15.83-26-33.16-32.56-51.31Z" style="fill:#ffbf9d"></path><polygon points="215.55 366.11 227.79 393.91 248.09 388.49 250.31 348.39 215.55 366.11" style="fill:#e0e0e0"></polygon><path d="M117.38,457.33l-21.56,5.42S83.54,442.68,79.46,443.3L88,485.45l33.93-7.08Z" style="fill:#455a64"></path><path d="M100.31,475.14a1.78,1.78,0,0,1-1.73,1.62A1.7,1.7,0,0,1,97,475.07a1.87,1.87,0,0,1,1.83-1.71,1.77,1.77,0,0,1,1.5,1.95" style="fill:#e0e0e0"></path><path d="M88,485.45l2.7-.56L81.6,444.14a3.29,3.29,0,0,0-2.41-1Z" style="fill:#263238"></path><path d="M95.61,462.4c-.21.05-.08,1.11-.53,2.27s-1.2,1.9-1.08,2.07,1.25-.39,1.77-1.81S95.79,462.32,95.61,462.4Z" style="fill:#263238"></path><path d="M92.81,458.34c-.21,0-.37,1-1.1,1.86s-1.61,1.3-1.56,1.5,1.26.09,2.14-1S93,458.3,92.81,458.34Z" style="fill:#263238"></path><path d="M86.94,457c0,.2,1.09.27,2.11-.51s1.27-1.84,1.08-1.89-.67.68-1.52,1.3S86.91,456.74,86.94,457Z" style="fill:#263238"></path><path d="M100.69,461.7c-.17.13.32,1,.49,2.21s0,2.18.2,2.25.75-1,.53-2.36S100.83,461.57,100.69,461.7Z" style="fill:#263238"></path><path d="M105.21,460a4,4,0,0,0,.46,2.12,10.09,10.09,0,0,0,1.16,2.08,11.09,11.09,0,0,0,.91,1.08,2.75,2.75,0,0,0,.64.54.93.93,0,0,0,1.12-.14,1.17,1.17,0,0,0,.28-1,2.54,2.54,0,0,0-.28-.78,6.91,6.91,0,0,0-.73-1.22,7.75,7.75,0,0,0-1.71-1.69,3.6,3.6,0,0,0-2-.88c0,.11.71.45,1.68,1.29a8.42,8.42,0,0,1,2.11,2.81c.21.42.3.81.12,1s-.09.07-.25,0a2,2,0,0,1-.46-.4,9.85,9.85,0,0,1-.88-1,11.77,11.77,0,0,1-1.23-1.89A15.06,15.06,0,0,0,105.21,460Z" style="fill:#263238"></path><path d="M124.6,432.85l-15.12,16.29S88.25,439,85.16,441.74l30.14,30.69L139.89,448Z" style="fill:#455a64"></path><path d="M120,457.09a1.77,1.77,0,0,1-.56,2.3,1.71,1.71,0,0,1-2.28-.54,1.86,1.86,0,0,1,.61-2.43,1.77,1.77,0,0,1,2.31.82" style="fill:#e0e0e0"></path><path d="M115.3,472.43l2-1.94-29.85-29.2a3.25,3.25,0,0,0-2.56.46Z" style="fill:#263238"></path><path d="M109.1,449c-.14.15.54,1,.8,2.19s0,2.24.22,2.32.84-1,.5-2.48S109.21,448.8,109.1,449Z" style="fill:#263238"></path><path d="M104.55,447.09c-.18.11.21,1,.09,2.15s-.64,2-.49,2.11,1.1-.61,1.23-2S104.69,447,104.55,447.09Z" style="fill:#263238"></path><path d="M98.87,449.12c.1.17,1.06-.37,1.49-1.58s.06-2.24-.13-2.17-.19.93-.56,1.92S98.73,449,98.87,449.12Z" style="fill:#263238"></path><path d="M113,445.61c-.07.2.82.68,1.61,1.59S115.79,449,116,449s.1-1.23-.85-2.28S113,445.42,113,445.61Z" style="fill:#263238"></path><path d="M115.82,441.68c-.06.06.44.74,1.55,1.52a10,10,0,0,0,2.1,1.12,10.32,10.32,0,0,0,1.36.41,2.78,2.78,0,0,0,.82.1.92.92,0,0,0,.87-.73,1.16,1.16,0,0,0-.32-1,3.1,3.1,0,0,0-.66-.5,8.34,8.34,0,0,0-1.28-.62,7.78,7.78,0,0,0-2.35-.49,3.6,3.6,0,0,0-2.15.35c0,.12.83,0,2.1.17a8.58,8.58,0,0,1,2.15.6,8,8,0,0,1,1.15.61c.41.24.69.51.63.74s0,.11-.2.14A2.08,2.08,0,0,1,121,444a11.36,11.36,0,0,1-1.28-.34,11.67,11.67,0,0,1-2-.92C116.52,442.13,115.9,441.59,115.82,441.68Z" style="fill:#263238"></path><path d="M242.4,416s-40.48-38.79-51-44.25c-11.68-6.07-21.26,5.08-21.26,5.08l-52,54.4,20.89,19.61,42.1-45.46,29.11,37.93,29.08.76Z" style="fill:#263238"></path><path d="M189.75,321.21a15.23,15.23,0,0,1,2.13,12l-11.59,4-7.17-13.64,3-3.39,6.56-.46Z" style="fill:#ffbf9d"></path><path d="M238.39,305.36a2.63,2.63,0,0,1,.94-1.51,6.45,6.45,0,0,1,4-1,17,17,0,0,0,1.64-5.29,3.4,3.4,0,0,1-1.88-.54,1.58,1.58,0,0,1-.31-.09c-1.34-.62-1.48-2.62-.63-3.82a7.59,7.59,0,0,1,3.66-2.36,12.51,12.51,0,0,0-2.83,1c-1,.3-2.33,0-2.44-1a2.16,2.16,0,0,1,.15-.9l.57-1.78a2,2,0,0,1,.78-1.25,5,5,0,0,1,1-.24c1.13-.31,1.71-1.68,2.84-2a5.06,5.06,0,0,1,2.52.37c.84.2,2,0,2.21-.79a8,8,0,0,1-2.87-2.42,2.75,2.75,0,0,1,.27-3.47,4.07,4.07,0,0,1,2.84-.59c1.1.05,2.47.3,2.76,1.37a2.88,2.88,0,0,1,3.53,2.25L260,281c-.79-.85-1.92-1.37-2.61-2.31s-.55-2.65.59-2.89c.41-.09.87.05,1.26-.11s.53-.37.83-.38a1,1,0,0,1,.62.24l6,3.91-1.62-3.77c-.5-1.16-.89-2.76.15-3.48s2.47.31,2.68,1.51a2,2,0,0,1,2.38,1.8,2,2,0,0,1,2.32,3,5.65,5.65,0,0,1,2.86.85,1.72,1.72,0,0,1,2.78-1.18,3,3,0,0,1,.44-1.71,1,1,0,0,1,1.55-.18,2,2,0,0,1,3.26-2l1-1.19A2.64,2.64,0,0,1,287,274.5c.42.93-.28,2.26-1.29,2.17.71,0,.55,1.13.13,1.7l-1.74,2.42a2.22,2.22,0,0,1,2.76-.24,1.72,1.72,0,0,1,2.49,0,1.39,1.39,0,0,1,2.5.43c.18-.47.82-.5,1.31-.44a3.28,3.28,0,0,1,2,.68c.5.5.5,1.54-.17,1.79.61-.34,1.39.33,1.4,1a2.5,2.5,0,0,1-1,1.76,6,6,0,0,0-1.43,1.51,3,3,0,0,1,2-.43,7.62,7.62,0,0,1,3.64.73c.21-.49.89-.52,1.42-.41a8.57,8.57,0,0,1,4.33,2.36c.55.56,1.05,1.4.67,2.09a2,2,0,0,1-.8.71l-3.85,2.39a10.44,10.44,0,0,1,5.27,3.73c.77.45,1.75.49,2.44,1.05s.65,2-.24,2a1.64,1.64,0,0,1,.47,1.9,1.47,1.47,0,0,1-.6.66,2.41,2.41,0,0,1-.42.48,3,3,0,0,1-1,.54,2,2,0,0,1-1.72.8,8.26,8.26,0,0,1,1.83,2.17,3.43,3.43,0,0,1,0,3.54l-.14.15a1.63,1.63,0,0,1-.74,1.06,1.39,1.39,0,0,1,.14.94,3.77,3.77,0,0,1,.85,6.6c-.89.62-2.53.51-2.62-.57a2.91,2.91,0,0,1-2.22,1.61,2.84,2.84,0,0,1-1.48,3.91,3,3,0,0,1-.95,4.94,2.32,2.32,0,1,1-4.38,1.52,4.84,4.84,0,0,1-1.73,2.17,1.7,1.7,0,0,1-2.4-.62,3.18,3.18,0,0,1-4.67,1.51,2.06,2.06,0,0,1-4.09.36l-5.31-.05a18.73,18.73,0,0,1-3.51-.25,9.47,9.47,0,0,1-4.05-1.88,3.09,3.09,0,0,0-1.22-.74,3.33,3.33,0,0,0-1.63.25,8.61,8.61,0,0,1-8.16-1.93,4,4,0,0,0-1.07-.86,4,4,0,0,0-1.57-.22,15.78,15.78,0,0,1-3.86-.55,4.08,4.08,0,0,1-2.72-1.79c-.51-1,.09-2.53,1.2-2.52a2.38,2.38,0,0,0-.59-2,1.44,1.44,0,0,0-2-.08,1,1,0,0,0,.48,1.69c-1.2.83-3.07-.33-3.1-1.79a2.87,2.87,0,0,1,2.88-2.68,6.58,6.58,0,0,1-.08-3.21,2.37,2.37,0,0,1-3.22.36,4.09,4.09,0,0,1-2.63,1.9,2.47,2.47,0,0,1-2.7-1.47,1.77,1.77,0,0,1,1.67-2.27,2.1,2.1,0,0,1,1.87-3,3.26,3.26,0,0,1,2-3.47,1.71,1.71,0,0,1-2.44-.94c-.68,1.07-2.33.81-3.42.17A2.3,2.3,0,0,1,238.39,305.36Z" style="fill:#263238"></path><path d="M238.39,305.36a1.61,1.61,0,0,0-.06.44,1.9,1.9,0,0,0,.41,1.22,4.11,4.11,0,0,0,1.76,1.21,3.4,3.4,0,0,0,1.38.23,1.69,1.69,0,0,0,1.4-.74h-.12a1.8,1.8,0,0,0,2.55,1l-.07-.14a3.35,3.35,0,0,0-2,3.55l.09-.1a2,2,0,0,0-1.82,1,2.07,2.07,0,0,0-.14,2.2l.1-.16a1.76,1.76,0,0,0-1.77,1.34,1.93,1.93,0,0,0,.89,2.2,2.79,2.79,0,0,0,2.56.24,4.57,4.57,0,0,0,2.08-1.77l-.19,0a2.5,2.5,0,0,0,3.4-.38l-.23-.11a6.66,6.66,0,0,0,.08,3.28l.13-.18a3.3,3.3,0,0,0-2,.73,2.72,2.72,0,0,0-1,1.92,2.27,2.27,0,0,0,1.05,2,2,2,0,0,0,2.27.12l.34-.24-.4,0a.83.83,0,0,1-.59-1,.92.92,0,0,1,1-.73,1.39,1.39,0,0,1,1.21.74,2.4,2.4,0,0,1,.27,1.52l.17-.14A1.4,1.4,0,0,0,250,325a2.09,2.09,0,0,0-.47,1.05,2,2,0,0,0,.14,1.16,2.77,2.77,0,0,0,.71.91,5.35,5.35,0,0,0,2.05,1,15.23,15.23,0,0,0,2.23.47c1.5.31,3.24-.3,4.22,1.09a8.8,8.8,0,0,0,6.77,2.35,12.17,12.17,0,0,0,2.44-.53,1.51,1.51,0,0,1,1.09.12,7.84,7.84,0,0,1,1,.73,9.72,9.72,0,0,0,2.27,1.27,13.78,13.78,0,0,0,5.18.75l5.33.05-.2-.17a2.26,2.26,0,0,0,4.49-.4l-.32.17a3.38,3.38,0,0,0,5-1.61h-.39a1.54,1.54,0,0,0,1.13.94,2.18,2.18,0,0,0,1.5-.17,5,5,0,0,0,1.88-2.29l-.39,0a2.53,2.53,0,1,0,4.78-1.66l-.14.28a3.24,3.24,0,0,0,1-5.32l-.06.38a3.07,3.07,0,0,0,1.6-4.22l-.16.32a3.14,3.14,0,0,0,2.39-1.74l-.42-.08a1.17,1.17,0,0,0,.35.74,1.53,1.53,0,0,0,.69.36,2.42,2.42,0,0,0,1.48-.13,3.72,3.72,0,0,0,1.9-2.2,3.85,3.85,0,0,0-.15-3,4.11,4.11,0,0,0-2.2-2.06l.14.26a1.67,1.67,0,0,0-.15-1.09l-.09.3a1.89,1.89,0,0,0,.84-1.21l-.05.09a3.33,3.33,0,0,0,.43-3.35,7.26,7.26,0,0,0-2.14-2.82l-.17.4a2.24,2.24,0,0,0,1.92-.89l-.11.08a2.83,2.83,0,0,0,1.58-1.11l-.07.07a1.69,1.69,0,0,0,.83-1.39,1.86,1.86,0,0,0-.68-1.54l-.14.4a.88.88,0,0,0,.72-.36,1.31,1.31,0,0,0,.23-.72,1.67,1.67,0,0,0-.57-1.35,16.49,16.49,0,0,0-2.47-1.07l.07.06a10.78,10.78,0,0,0-5.38-3.81l0,.41,1.77-1.09,1.33-.83a10.55,10.55,0,0,0,1.35-.9,1.37,1.37,0,0,0,.43-.81,1.73,1.73,0,0,0-.14-.88,4,4,0,0,0-1-1.31A8.64,8.64,0,0,0,301,287a2.42,2.42,0,0,0-.85,0,1,1,0,0,0-.77.57l.32-.11a6.59,6.59,0,0,0-2.92-.72c-.5,0-1-.05-1.48,0a2.48,2.48,0,0,0-1.5.48l.35.28c.43-.85,1.48-1.3,2.1-2.26a1.72,1.72,0,0,0,.2-1.69,1.5,1.5,0,0,0-.63-.64,1,1,0,0,0-1,0l.19.41a1,1,0,0,0,.61-.65,1.57,1.57,0,0,0-.41-1.56,2.37,2.37,0,0,0-.68-.41,5.48,5.48,0,0,0-1.46-.29,2.58,2.58,0,0,0-.78,0,1,1,0,0,0-.7.56l.44,0a1.62,1.62,0,0,0-2.93-.49l.37-.05a1.94,1.94,0,0,0-2.83,0l.3,0a2.43,2.43,0,0,0-3,.26l.33.29,1.48-2.05a3,3,0,0,0,.61-1.18,1.5,1.5,0,0,0,0-.73.66.66,0,0,0-.24-.37.71.71,0,0,0-.43-.14v.44a1.5,1.5,0,0,0,1.42-.87,1.88,1.88,0,0,0,.07-1.65,2.88,2.88,0,0,0-2.74-1.41h-.1l-.06.08c-.34.4-.66.8-1,1.2l.31,0a2.23,2.23,0,0,0-3.61,2.18l.38-.18a1,1,0,0,0-1-.34,1.42,1.42,0,0,0-.87.54,3.19,3.19,0,0,0-.47,1.81l.36-.14a1.93,1.93,0,0,0-3.14,1.34l.32-.19a5.83,5.83,0,0,0-3-.88l.16.34a2.25,2.25,0,0,0,0-2.67,2.22,2.22,0,0,0-2.53-.67l.28.19a2.14,2.14,0,0,0-2.63-2l.26.16a2.44,2.44,0,0,0-.81-1.36,2.05,2.05,0,0,0-1.49-.54,1.59,1.59,0,0,0-1.27.94,2.69,2.69,0,0,0-.12,1.53,13,13,0,0,0,1,2.71c.38.86.75,1.72,1.11,2.57l.29-.24-3.71-2.41-1.82-1.19a5,5,0,0,0-1-.56.92.92,0,0,0-.64.1,3.84,3.84,0,0,1-.45.26,2.7,2.7,0,0,1-1,.08,1.42,1.42,0,0,0-1.05.51,2.34,2.34,0,0,0-.21,2.17,4,4,0,0,0,1.38,1.6,12.89,12.89,0,0,1,1.53,1.27l.11-.3-2.84.29.19.15a3,3,0,0,0-3.75-2.39l.22.11a2,2,0,0,0-1.45-1.26,6.8,6.8,0,0,0-1.83-.23,4.85,4.85,0,0,0-1.81.2,2.21,2.21,0,0,0-1.36,1.21,3.28,3.28,0,0,0,.59,3.34,9.35,9.35,0,0,0,2.61,2l-.07-.17a1.15,1.15,0,0,1-1,.72,2.92,2.92,0,0,1-1.34-.11,9,9,0,0,0-1.38-.34,2.05,2.05,0,0,0-1.41.27c-.82.5-1.3,1.31-2.05,1.66a9.91,9.91,0,0,1-1.23.32,1.68,1.68,0,0,0-.85,1l-.74,2.34a1.49,1.49,0,0,0,.09,1.25,1.63,1.63,0,0,0,1,.66,2.61,2.61,0,0,0,1.18,0,5.39,5.39,0,0,0,1.06-.4,5.83,5.83,0,0,1,2-.69l-.05-.21a13.54,13.54,0,0,0-2.33,1.11,4.41,4.41,0,0,0-1.63,1.75,3.15,3.15,0,0,0-.16,2.19,2,2,0,0,0,1.41,1.41h0a3.47,3.47,0,0,0,1.93.54l-.08-.09a16.72,16.72,0,0,1-1.61,5.28l0,0a10.16,10.16,0,0,0-2.66.33,3.77,3.77,0,0,0-1.62.94,2.64,2.64,0,0,0-.57.94,1.9,1.9,0,0,0-.08.35,2.59,2.59,0,0,1,.7-1.25,3.72,3.72,0,0,1,1.59-.9,10.14,10.14,0,0,1,2.64-.29h0v0a16.59,16.59,0,0,0,1.67-5.31v-.09H245a3.3,3.3,0,0,1-1.83-.53h0a1.78,1.78,0,0,1-1.28-1.29,3,3,0,0,1,.16-2.06,4.19,4.19,0,0,1,1.57-1.65,13.44,13.44,0,0,1,2.29-1.08l.66-.26-.7,0a5.74,5.74,0,0,0-2.05.7,5.63,5.63,0,0,1-1,.38,2.57,2.57,0,0,1-1.07,0,1.44,1.44,0,0,1-.88-.57,1.21,1.21,0,0,1,0-1l.74-2.32a1.43,1.43,0,0,1,.7-.88,9.6,9.6,0,0,0,1.25-.32c.85-.41,1.33-1.23,2.08-1.67s1.67-.16,2.56.11a3.18,3.18,0,0,0,1.48.12,1.44,1.44,0,0,0,1.22-.92l0-.12-.1-.06a9.14,9.14,0,0,1-2.53-2,3,3,0,0,1-.54-3,1.87,1.87,0,0,1,1.17-1,4.78,4.78,0,0,1,1.7-.18,6.29,6.29,0,0,1,1.74.22,1.64,1.64,0,0,1,1.22,1l0,.17.17,0a2.7,2.7,0,0,1,3.3,2.12l0,.16h.17l2.84-.29.36,0-.25-.27a12,12,0,0,0-1.57-1.3,3.78,3.78,0,0,1-1.26-1.45,2,2,0,0,1,.16-1.81,1,1,0,0,1,.78-.36,3,3,0,0,0,1.11-.11c.37-.19.61-.43.85-.34a4.53,4.53,0,0,1,.87.51l1.81,1.19,3.7,2.42.55.35-.26-.59-1.1-2.58a12.34,12.34,0,0,1-1-2.62,2.24,2.24,0,0,1,.1-1.29,1.17,1.17,0,0,1,.94-.71,1.93,1.93,0,0,1,1.85,1.57l.05.22.21-.06a1.75,1.75,0,0,1,2.11,1.6v.31l.29-.12a1.77,1.77,0,0,1,2.07,2.7l-.24.33h.41a5.47,5.47,0,0,1,2.75.82l.34.21,0-.39a1.52,1.52,0,0,1,2.42-1l.34.34,0-.48a2.9,2.9,0,0,1,.39-1.58c.27-.38,1-.53,1.22-.18l.6.8-.22-1a1.8,1.8,0,0,1,2.91-1.76l.17.14.14-.17,1-1.19-.16.07a2.45,2.45,0,0,1,2.32,1.17c.39.74-.2,2-1.05,1.89l0,.44c.14,0,.19.05.24.19a1.11,1.11,0,0,1,0,.51,2.47,2.47,0,0,1-.54,1L284,280.66l.34.29a2,2,0,0,1,2.47-.23l.16.13.14-.16a1.51,1.51,0,0,1,2.15,0l.23.27.14-.32a1.18,1.18,0,0,1,2.08.35l.1,1.13.33-1.07c.09-.29.59-.35,1-.3a4.76,4.76,0,0,1,1.33.26,1.21,1.21,0,0,1,.83.83.76.76,0,0,1-.34.95l.19.41c.31-.19.78.07,1,.45a1.28,1.28,0,0,1-.18,1.25c-.51.82-1.57,1.25-2.13,2.29l-.53,1,.88-.71c.66-.53,1.72-.36,2.66-.34a6.2,6.2,0,0,1,2.72.66l.23.14.09-.24c.13-.32.68-.37,1.13-.28a7.65,7.65,0,0,1,1.44.43,8.34,8.34,0,0,1,2.55,1.61,3.5,3.5,0,0,1,.89,1.15,1,1,0,0,1-.19,1.18,10.76,10.76,0,0,1-1.27.84l-1.34.83-1.76,1.09-.43.27.48.14a10.29,10.29,0,0,1,5.16,3.66l0,0,0,0c.85.48,1.8.52,2.42,1a1.18,1.18,0,0,1,.39,1c0,.37-.2.66-.49.65l-.72,0,.58.45a1.45,1.45,0,0,1,.51,1.17,1.23,1.23,0,0,1-.62,1l0,0,0,0a2.37,2.37,0,0,1-1.33.93l-.07,0,0,.06a1.79,1.79,0,0,1-1.52.7l-.68-.06.51.46a7,7,0,0,1,2,2.63,2.91,2.91,0,0,1-.35,2.91l0,0,0,.05a1.44,1.44,0,0,1-.63.93l-.18.11.09.19a1.17,1.17,0,0,1,.12.79l0,.19.18.06a3.66,3.66,0,0,1,2,1.83,3.41,3.41,0,0,1,.13,2.62A3.32,3.32,0,0,1,307,320.4a2.11,2.11,0,0,1-1.21.11.84.84,0,0,1-.71-.7l-.05-.87-.37.79a2.72,2.72,0,0,1-2.05,1.5l-.32,0,.16.29a2.63,2.63,0,0,1-1.36,3.59l-.39.12.32.26a2.82,2.82,0,0,1-.88,4.57l-.21.06.07.22a2.1,2.1,0,1,1-4,1.37l-.16-.47-.23.44a4.57,4.57,0,0,1-1.7,2.11,1.47,1.47,0,0,1-2-.53l-.2-.6-.2.6A2.81,2.81,0,0,1,289.6,335a2.78,2.78,0,0,1-2.43-.34l-.34-.25v.42a1.85,1.85,0,0,1-3.68.33l0-.17H283l-5.33,0a13.23,13.23,0,0,1-5-.71,9.65,9.65,0,0,1-2.18-1.21,9.63,9.63,0,0,0-1-.76,1.9,1.9,0,0,0-1.34-.16,12.69,12.69,0,0,1-2.4.54,9,9,0,0,1-2.38-.14,8.34,8.34,0,0,1-4.11-2.1,4.27,4.27,0,0,0-.95-.77,2.69,2.69,0,0,0-1.19-.28,17,17,0,0,1-2.28-.14,14.39,14.39,0,0,1-2.19-.44,5.34,5.34,0,0,1-1.92-.92,1.91,1.91,0,0,1-.75-1.77,1.33,1.33,0,0,1,1.2-1.26h.15v-.15a2.76,2.76,0,0,0-.31-1.73,1.77,1.77,0,0,0-1.48-.89,1.24,1.24,0,0,0-1.32,1,1.14,1.14,0,0,0,.86,1.34l-.07-.27a1.73,1.73,0,0,1-1.93-.12,2,2,0,0,1-.93-1.71,2.77,2.77,0,0,1,2.73-2.38H249l0-.18a6.46,6.46,0,0,1-.08-3.14l.13-.57-.37.46a2.24,2.24,0,0,1-3,.34l-.11-.09-.08.12a4.27,4.27,0,0,1-2,1.68,2.54,2.54,0,0,1-2.34-.2,1.71,1.71,0,0,1-.82-1.95,1.56,1.56,0,0,1,1.55-1.19l.21,0-.11-.18a2,2,0,0,1,1.77-2.89h.11v-.12a3.17,3.17,0,0,1,1.93-3.37l-.07-.14a1.65,1.65,0,0,1-2.34-.9l0-.14-.08.13a1.57,1.57,0,0,1-1.3.69,3.35,3.35,0,0,1-1.33-.21,4.11,4.11,0,0,1-1.75-1.16,1.88,1.88,0,0,1-.43-1.18C238.36,305.51,238.4,305.36,238.39,305.36Z" style="fill:#455a64"></path><path d="M262.14,345.14c.08-2.8.17-6,.15-6s-9.57-1.37-9.8-10.92c-.11-4.61.43-14.13,1-22.73a17.8,17.8,0,0,1,17.55-16.58H272c9.94.47,15.1,9.17,14.36,19.1l-1,36.34-5.66,13.83c-5.65,6.18-17.77,1-17.45-7.35Z" style="fill:#ffbf9d"></path><path d="M262.23,339.1a23.13,23.13,0,0,0,12.4-3.82s-2.86,7.31-12.4,6.57Z" style="fill:#ff9a6c"></path><path d="M257.21,314a1.35,1.35,0,0,0,1.33,1.36,1.31,1.31,0,0,0,1.39-1.25,1.36,1.36,0,0,0-1.33-1.36A1.3,1.3,0,0,0,257.21,314Z" style="fill:#263238"></path><path d="M255.55,309.38c.17.17,1.2-.6,2.66-.62s2.56.71,2.71.53-.1-.4-.57-.74a3.8,3.8,0,0,0-2.17-.64,3.65,3.65,0,0,0-2.12.71C255.62,309,255.47,309.3,255.55,309.38Z" style="fill:#263238"></path><path d="M270.16,314.66a1.36,1.36,0,0,0,1.33,1.36,1.31,1.31,0,0,0,1.39-1.25,1.37,1.37,0,0,0-1.33-1.36A1.3,1.3,0,0,0,270.16,314.66Z" style="fill:#263238"></path><path d="M269.93,309.8c.18.18,1.2-.6,2.67-.61s2.55.71,2.71.53-.1-.4-.57-.74a3.84,3.84,0,0,0-2.18-.64,3.61,3.61,0,0,0-2.11.71C270,309.4,269.85,309.73,269.93,309.8Z" style="fill:#263238"></path><path d="M264.8,321.14a9.87,9.87,0,0,0-2.39-.4c-.37,0-.73-.1-.8-.36a2,2,0,0,1,.24-1.11l1.08-2.87c1.49-4.08,2.56-7.43,2.4-7.49s-1.51,3.2-3,7.28c-.36,1-.7,2-1,2.88a2.22,2.22,0,0,0-.18,1.48,1,1,0,0,0,.63.54,2.58,2.58,0,0,0,.63.08A9.17,9.17,0,0,0,264.8,321.14Z" style="fill:#263238"></path><path d="M269.53,304.85c.15.4,1.61.19,3.34.38s3.12.65,3.34.29c.1-.17-.14-.55-.71-.93a5.85,5.85,0,0,0-5.09-.51C269.78,304.34,269.47,304.66,269.53,304.85Z" style="fill:#263238"></path><path d="M256.08,304.44c.26.33,1.27,0,2.49,0s2.24.25,2.48-.09c.11-.17-.05-.51-.5-.83a3.45,3.45,0,0,0-2-.57,3.5,3.5,0,0,0-2,.65C256.12,303.93,256,304.27,256.08,304.44Z" style="fill:#263238"></path><path d="M263.38,324.92a6.3,6.3,0,0,0,.72,1.61,2.1,2.1,0,0,0,1.44.93,1.88,1.88,0,0,0,1.62-.79,3,3,0,0,0,.53-1.77c0-.57-.23-1.26-.79-1.35a1.4,1.4,0,0,0-.69.12l-3,1.05" style="fill:#ff9a6c"></path><path d="M264.44,327.41a4.32,4.32,0,0,0,1.59-.12,2.2,2.2,0,0,0,1.24-1,2.34,2.34,0,0,0,.14-1.93,2.22,2.22,0,0,0-.24-.46c-.11-.13-.09-.12-.22-.11s-.32.11-.48.17l-.5.17-1.72.58a5.27,5.27,0,0,1-1.63.4,5.22,5.22,0,0,1,1.5-.75c.48-.21,1.05-.44,1.69-.69l.48-.19c.18-.06.32-.13.56-.19a.65.65,0,0,1,.43,0,.8.8,0,0,1,.32.27,2.66,2.66,0,0,1,.3.58,2.79,2.79,0,0,1-.2,2.36,2.55,2.55,0,0,1-1.56,1.14,2.39,2.39,0,0,1-1.29,0C264.56,327.55,264.43,327.44,264.44,327.41Z" style="fill:#263238"></path><path d="M251,297.51a9.47,9.47,0,0,1,.21-1.43,4.28,4.28,0,0,1,1.27-1.79c1.83-1.79,3.75-3.64,6-4.23,1.41-.37,2.86-.23,4.27-.58a23,23,0,0,0,2.55-.93,20.93,20.93,0,0,1,10.82-.58,17,17,0,0,1,5.81,1.89,20.47,20.47,0,0,1,5.21,4.74A31.74,31.74,0,0,1,293,304a15.56,15.56,0,0,1,.84,8.83c-.69,2.94-2.77,5.58-5.32,6l-.89-1.21-1.41-1.79c.23.71,0,.66-.6,1a1.22,1.22,0,0,1-1.69-.63c-.51.58-1.51-.14-1.3-.93-.59.27-1.28-.56-1-1.26-.68.2-1-.9-1.27-1.65a12.29,12.29,0,0,0-.59-1.14,7.4,7.4,0,0,1-.75-4.07,7.29,7.29,0,0,1-.93-4c0-.89-.07-1.77-.1-2.65l-.44-.65a1.44,1.44,0,0,1-1,1.28,3,3,0,0,1-1.59-.16l-1.54-.43-1,.2a4,4,0,0,1-.49,2.53,2.49,2.49,0,0,1-1,1.35.75.75,0,0,1-1-.88.82.82,0,0,1-1.25-.3,2.69,2.69,0,0,1-.22-1.65,6.84,6.84,0,0,1,1.57-3.69L267,300.37a1.28,1.28,0,0,1-.7.36.73.73,0,0,1-.84.73,1.92,1.92,0,0,1-1-.76c-.6-.76-1.21-2-.55-2.73a.6.6,0,0,1-.2-.89l-3.28,2.1c.32-.16.63.35.52.75a1.68,1.68,0,0,1-.71.86,2.45,2.45,0,0,1,.23,1.49c.6-.45,1.36.54,1.11,1.33a1.75,1.75,0,0,1-1.73,1.14,1.22,1.22,0,0,1-1.31-1c-.69.09-1.27-.9-1-1.65-.52.29-.88-.63-.85-1.3a9.64,9.64,0,0,1,.78-3.4.19.19,0,0,1-.26.06.25.25,0,0,1-.06-.14l-1.95,3.84a10.07,10.07,0,0,0-1.25,3.45c-.05.51-.16,1.2-.59,1.21a.57.57,0,0,1-.33-.11,6.4,6.4,0,0,1-2.52-3.47,4.68,4.68,0,0,1-.3-1.53A19.77,19.77,0,0,1,251,297.51Z" style="fill:#263238"></path><path d="M264.62,296.17a1.38,1.38,0,0,1-.33-.79,1,1,0,0,1,.34-.86,1.14,1.14,0,0,1,1.15-.2l.23.11-.08-.25a1.11,1.11,0,0,1,1.88-1.1l.21-.16a.46.46,0,0,1-.07-.16.63.63,0,0,1,.14-.54.74.74,0,0,1,.5-.26,1.32,1.32,0,0,1,.59.07,1.47,1.47,0,0,0,.65.21c.28,0,.42-.23.58-.31a1.9,1.9,0,0,1,.47-.24,2.59,2.59,0,0,1,1-.14,2.63,2.63,0,0,1,1.34.45c.28.2.4.35.42.33a1.3,1.3,0,0,0-.36-.41,2.5,2.5,0,0,0-1.39-.56,2.81,2.81,0,0,0-1.05.12,2,2,0,0,0-.53.26c-.18.1-.33.25-.47.25a1.52,1.52,0,0,1-.54-.19,1.42,1.42,0,0,0-.71-.1,1.05,1.05,0,0,0-.68.35.9.9,0,0,0-.19.78.66.66,0,0,0,.11.24l.21-.16a1.39,1.39,0,0,0-1.81-.21,1.41,1.41,0,0,0-.49,1.56l.16-.14a1.32,1.32,0,0,0-1.37.26,1.19,1.19,0,0,0-.35,1,1.16,1.16,0,0,0,.28.63C264.53,296.14,264.61,296.18,264.62,296.17Z" style="fill:#455a64"></path><path d="M257.91,297.31a1.74,1.74,0,0,1-.44-.78,1.33,1.33,0,0,1,.14-1,1.37,1.37,0,0,1,1.1-.66h.19l-.11-.16a1.63,1.63,0,0,1-.33-1.47.91.91,0,0,1,.58-.55.7.7,0,0,1,.77.17l.68.86-.46-1a1.38,1.38,0,0,1,0-1.16,1.29,1.29,0,0,1,1-.7,1.37,1.37,0,0,1,.87.16l.29.18-.1-.33c-.14-.47.37-.95.83-1a2.22,2.22,0,0,1,1.36.47l.25.15-.06-.28a1,1,0,0,1,.4-.91,1.76,1.76,0,0,1,.93-.32,4.62,4.62,0,0,1,1.69.18,8.21,8.21,0,0,1,1.37.63s-.09-.11-.31-.26a4.58,4.58,0,0,0-1-.5,4.51,4.51,0,0,0-1.74-.25,2,2,0,0,0-1.06.34,1.22,1.22,0,0,0-.5,1.14l.19-.12a2.43,2.43,0,0,0-1.52-.53,1.24,1.24,0,0,0-.81.4.94.94,0,0,0-.25.91l.2-.15a1.6,1.6,0,0,0-1.05-.2,1.53,1.53,0,0,0-1.18.85,1.66,1.66,0,0,0,0,1.38l.22-.14a.94.94,0,0,0-1.05-.24,1.14,1.14,0,0,0-.72.7,1.84,1.84,0,0,0,.39,1.68l.07-.17a1.58,1.58,0,0,0-1.23.79,1.46,1.46,0,0,0,.24,1.7A.54.54,0,0,0,257.91,297.31Z" style="fill:#455a64"></path><path d="M243.65,297.32a1,1,0,0,1,.4-.7,1.27,1.27,0,0,1,.9-.24,3.7,3.7,0,0,1,1.23.41l.15.07v-.16a1.14,1.14,0,0,1,1-1,3.23,3.23,0,0,1,1.84.46l.8.38-.66-.59a.94.94,0,0,1,.19-1.34,2.11,2.11,0,0,1,1.67-.24h.08l.52.09-.41-.33a1,1,0,0,1,.25-1.57,1.51,1.51,0,0,1,1.67.3l.51.48-.31-.62a2.28,2.28,0,0,1,.2-2.31,2.12,2.12,0,0,1,1.65-.86,2.47,2.47,0,0,1,1.23.26c.26.14.38.26.39.24s0,0-.08-.09a1.25,1.25,0,0,0-.28-.21,2.21,2.21,0,0,0-1.27-.35,2.26,2.26,0,0,0-1.8.89,2.48,2.48,0,0,0-.26,2.54l.19-.14a1.78,1.78,0,0,0-2-.37,1.31,1.31,0,0,0-.66.92,1.14,1.14,0,0,0,.36,1.1l.11-.23-.08,0a2.38,2.38,0,0,0-1.89.31,1.35,1.35,0,0,0-.47.83,1,1,0,0,0,.28.9l.14-.21a3.47,3.47,0,0,0-2-.45,1.33,1.33,0,0,0-1.17,1.26l.13-.1a4,4,0,0,0-1.3-.38,1.36,1.36,0,0,0-1,.31,1,1,0,0,0-.35.55C243.62,297.24,243.64,297.32,243.65,297.32Z" style="fill:#455a64"></path><path d="M252.22,284.48a.86.86,0,0,0,.34.16,5.2,5.2,0,0,0,1,.14,3,3,0,0,1,1.46.35,1,1,0,0,1,.47.68.7.7,0,0,1-.34.76l.17.14c.08-.33.52-.51.92-.71a4.44,4.44,0,0,1,1.29-.42,1.58,1.58,0,0,1,1.24.3,1.05,1.05,0,0,1,.46,1l-.07.33.27-.2a2.87,2.87,0,0,1,1.79-.56,3.15,3.15,0,0,1,1.46.34,3.84,3.84,0,0,1,1.07.82s0-.12-.2-.31a2.9,2.9,0,0,0-.8-.65,3.34,3.34,0,0,0-1.53-.41,3.1,3.1,0,0,0-1.94.57l.19.13a1.32,1.32,0,0,0-.54-1.29,1.91,1.91,0,0,0-1.44-.36,4.55,4.55,0,0,0-1.36.46,5.07,5.07,0,0,0-.61.32,1,1,0,0,0-.44.56l-.06.25.23-.1a.93.93,0,0,0,.47-1,1.17,1.17,0,0,0-.58-.83,3.15,3.15,0,0,0-1.57-.33,6.37,6.37,0,0,1-1-.06A3.29,3.29,0,0,0,252.22,284.48Z" style="fill:#455a64"></path><path d="M265.79,280.52a3,3,0,0,1,.69.16,1.66,1.66,0,0,1,.62.48,1.43,1.43,0,0,1,.35.92v.15l.14,0a.89.89,0,0,1,.92.63,2.76,2.76,0,0,1-.07,1.47l-.13.51.36-.4.06-.06a1.13,1.13,0,0,1,.94-.3,1.27,1.27,0,0,1,.83.45,2,2,0,0,1,.4,1.61,3.68,3.68,0,0,1-.39,1.12,1.94,1.94,0,0,0-.2.4s.12-.1.29-.35a3.18,3.18,0,0,0,.49-1.13,2.16,2.16,0,0,0-.4-1.81,1.48,1.48,0,0,0-2.15-.18l-.08.08.24.12a2.88,2.88,0,0,0,.05-1.62,1.1,1.1,0,0,0-1.21-.75l.14.1a1.74,1.74,0,0,0-1.16-1.52,1.3,1.3,0,0,0-.54-.08C265.85,280.49,265.79,280.51,265.79,280.52Z" style="fill:#455a64"></path><path d="M276.68,289.56s.13,0,.35-.05a2.06,2.06,0,0,0,.85-.49,2.39,2.39,0,0,0,.72-1.28c0-.27.06-.55.24-.71s.5-.26.72-.55a1.34,1.34,0,0,0-.19-1.82v.2a4.4,4.4,0,0,0,1.27-1.48,1.59,1.59,0,0,0,.24-.71s-.13.25-.37.64a4.76,4.76,0,0,1-1.28,1.35l-.14.09.13.1a1.09,1.09,0,0,1,.13,1.46c-.15.22-.45.3-.7.54a1.36,1.36,0,0,0-.29.85,2.29,2.29,0,0,1-.61,1.18A3.36,3.36,0,0,1,276.68,289.56Z" style="fill:#455a64"></path><path d="M279.89,292.19s.07,0,.22.05a4.31,4.31,0,0,0,.63,0,3.56,3.56,0,0,0,2.05-.95h-.17a2.33,2.33,0,0,0,1.49,1,2.26,2.26,0,0,0,1,0,1.47,1.47,0,0,0,.9-.59,2.23,2.23,0,0,0,.14-.37.53.53,0,0,1,.19-.23,1.57,1.57,0,0,1,.63-.22,2.33,2.33,0,0,0,.71-.22.77.77,0,0,0,.43-.62l-.18.1a2.34,2.34,0,0,0,1.62.18,2.63,2.63,0,0,0,1.12-.58,2,2,0,0,0,.49-.64c.08-.18.1-.27.09-.28a2.94,2.94,0,0,1-.68.81,2.47,2.47,0,0,1-1.07.49,2.15,2.15,0,0,1-1.45-.19l-.18-.09v.19a.53.53,0,0,1-.32.41,1.94,1.94,0,0,1-.63.18,1.83,1.83,0,0,0-.74.26.81.81,0,0,0-.28.35,2.58,2.58,0,0,1-.12.34,1.27,1.27,0,0,1-.74.47,2.18,2.18,0,0,1-.88,0,2.06,2.06,0,0,1-1.35-.83l-.08-.11-.09.09a3.62,3.62,0,0,1-1.92,1C280.2,292.2,279.89,292.16,279.89,292.19Z" style="fill:#455a64"></path><path d="M300.13,302.14a.41.41,0,0,0,0-.09,1.1,1.1,0,0,0,.06-.27,2.57,2.57,0,0,0,0-1.06,6.19,6.19,0,0,0-.59-1.55,5.45,5.45,0,0,0-.51-.89,1.55,1.55,0,0,0-.44-.4.7.7,0,0,0-.65-.05l.16.12a1.77,1.77,0,0,0-2.74-1.78l.2.12a1.2,1.2,0,0,0-.41-1,1.2,1.2,0,0,0-1.67.12l.23.11a.79.79,0,0,0-.22-.65,1,1,0,0,0-.58-.3,2.31,2.31,0,0,0-1.16.19l.16.07a1.92,1.92,0,0,0-1.08-.91,2.78,2.78,0,0,0-1.3-.11,6.66,6.66,0,0,0-2.09.83l.13.13a.49.49,0,0,0,0-.47.79.79,0,0,0-.31-.27,1.3,1.3,0,0,0-.7-.17,3.63,3.63,0,0,0-1.08.23,2.66,2.66,0,0,0-.63.3,1,1,0,0,0-.2.14s.3-.16.86-.34a3.76,3.76,0,0,1,1.06-.18,1.24,1.24,0,0,1,.6.17c.2.1.35.31.24.5l-.17.28.3-.15a7,7,0,0,1,2-.77,2.53,2.53,0,0,1,1.18.12,1.6,1.6,0,0,1,.93.78l.06.1.1,0a2.11,2.11,0,0,1,1-.18c.32,0,.64.34.59.64l-.08.47.31-.36a1,1,0,0,1,.43-.27.93.93,0,0,1,.87.18,1,1,0,0,1,.32.81l0,.29.24-.17a1.59,1.59,0,0,1,1.76,0,1.61,1.61,0,0,1,.61,1.51l0,.22.2-.1c.3-.14.62.12.82.37a6.47,6.47,0,0,1,.52.85,6.3,6.3,0,0,1,.62,1.5A3.56,3.56,0,0,1,300.13,302.14Z" style="fill:#455a64"></path><path d="M298,309.79a1.28,1.28,0,0,0,.15-.16,5.14,5.14,0,0,0,.35-.51,1.78,1.78,0,0,0,.3-.95,1.41,1.41,0,0,0-.15-.62,1,1,0,0,0-.54-.5l0,.15a1.25,1.25,0,0,0-1.16-2l.1.2a1,1,0,0,0,.07-1.18,1.51,1.51,0,0,0-1.09-.63c-.22,0-.43,0-.59-.05a.48.48,0,0,1-.34-.35,2,2,0,0,0-.3-.6,1.08,1.08,0,0,0-.59-.4,6.49,6.49,0,0,0-1.41-.16,1.54,1.54,0,0,1-1.12-.43,4.28,4.28,0,0,1-.32-.54,1.56,1.56,0,0,0-.5-.46,1.41,1.41,0,0,0-1.25,0l.14.18a1,1,0,0,0,0-1.23,1.45,1.45,0,0,0-1-.58A4.68,4.68,0,0,0,287,299a6.07,6.07,0,0,0-1.08.32c-.24.1-.36.17-.35.19a11.19,11.19,0,0,1,1.45-.38,5,5,0,0,1,1.69,0,1.24,1.24,0,0,1,.81.51.84.84,0,0,1,0,1l-.32.39.46-.22a1.17,1.17,0,0,1,1,.05,1.12,1.12,0,0,1,.4.38c.11.16.19.37.34.56a1.38,1.38,0,0,0,.6.41,3.35,3.35,0,0,0,.69.13,7.37,7.37,0,0,1,1.36.14.94.94,0,0,1,.46.31,1.94,1.94,0,0,1,.26.54.79.79,0,0,0,.52.5,5.5,5.5,0,0,0,.63.06,1.22,1.22,0,0,1,.9.5.76.76,0,0,1,0,.89l-.23.25.34-.05a1.05,1.05,0,0,1,1.09.56,1.08,1.08,0,0,1-.12,1.1l-.08.1.12.05a1,1,0,0,1,.61.94,1.84,1.84,0,0,1-.24.9C298.14,309.54,298,309.77,298,309.79Z" style="fill:#455a64"></path><path d="M298.8,324.21a.75.75,0,0,0,.27-.07,1.75,1.75,0,0,0,.65-.42,1.94,1.94,0,0,0,.54-1.09,2,2,0,0,0-.42-1.53v.15a3.8,3.8,0,0,0,.81-1.26,1.57,1.57,0,0,0,0-.86,1.11,1.11,0,0,0-.57-.71v.24a1.56,1.56,0,0,0,.78-1.33,1.71,1.71,0,0,0-.2-.89,1.45,1.45,0,0,0-.64-.61c-.24-.13-.35-.26-.33-.52a2.1,2.1,0,0,0-.11-.79,2.78,2.78,0,0,0-.9-1.15l-.94-.8a4.46,4.46,0,0,0-1.56-.9,2.24,2.24,0,0,0-.48-.08h-.17s.23,0,.62.17a4.8,4.8,0,0,1,1.47,1l.91.82a2.44,2.44,0,0,1,.81,1.06,1.83,1.83,0,0,1,.09.71.77.77,0,0,0,.11.45,1.08,1.08,0,0,0,.35.3,1.37,1.37,0,0,1,.07,2.36l-.24.12.25.12a1.06,1.06,0,0,1,.43,1.26,3.58,3.58,0,0,1-.74,1.18l-.06.08.06.07a1.84,1.84,0,0,1,.41,1.36,1.76,1.76,0,0,1-.46,1A2.78,2.78,0,0,1,298.8,324.21Z" style="fill:#455a64"></path><path d="M276.53,300.77a1.93,1.93,0,0,0,.82-.25,2.14,2.14,0,0,0,.76-.55,1.42,1.42,0,0,0,.36-1.14,1.29,1.29,0,0,0-.08-.28l-.07.18a1.26,1.26,0,0,0,.72-.82A1.17,1.17,0,0,0,279,297c-.26-.45-.6-.52-.59-.49s.25.16.43.57a1.06,1.06,0,0,1,0,.73,1.11,1.11,0,0,1-.6.64l-.13,0,.06.13a1.41,1.41,0,0,1,.06.22,1.28,1.28,0,0,1-.29.93,2.22,2.22,0,0,1-.66.55A4.11,4.11,0,0,0,276.53,300.77Z" style="fill:#455a64"></path><path d="M270.61,297.38a1.53,1.53,0,0,1-.11-1,1.11,1.11,0,0,1,.7-.77,1.2,1.2,0,0,1,1.25.3l.15.17.07-.22a2.15,2.15,0,0,1,.37-.76,1,1,0,0,1,.7-.41c.43,0,.87.41.72.75l.25.07a2.07,2.07,0,0,1,.84-1.26,2,2,0,0,1,1.18-.33,3.09,3.09,0,0,1,1.09.29s-.07-.09-.24-.2a2.19,2.19,0,0,0-.84-.26,2.1,2.1,0,0,0-1.31.32,2.21,2.21,0,0,0-1,1.39l.24.08a.74.74,0,0,0-.19-.8,1.1,1.1,0,0,0-.78-.32,1.24,1.24,0,0,0-.9.52,2.42,2.42,0,0,0-.41.86l.22-.06a1.41,1.41,0,0,0-1.52-.33,1.3,1.3,0,0,0-.68,1.73C270.52,297.32,270.6,297.39,270.61,297.38Z" style="fill:#455a64"></path><path d="M285.6,315c.16-.07,6.54-2,6.41,4.51s-6.66,5.05-6.67,4.87S285.6,315,285.6,315Z" style="fill:#ffbf9d"></path><path d="M287.38,322s.12.08.31.18a1.14,1.14,0,0,0,.85,0,2.83,2.83,0,0,0,1.35-2.5,3.73,3.73,0,0,0-.28-1.63,1.33,1.33,0,0,0-.84-.9.59.59,0,0,0-.68.3c-.09.18,0,.32-.09.33s-.14-.12-.08-.39a.73.73,0,0,1,.27-.4.88.88,0,0,1,.63-.15,1.58,1.58,0,0,1,1.17,1,3.92,3.92,0,0,1,.36,1.83,3,3,0,0,1-1.72,2.79,1.26,1.26,0,0,1-1-.19C287.39,322.14,287.36,322,287.38,322Z" style="fill:#ff9a6c"></path><path d="M98.26,457.17,187,436l70.55-3.47,38.93,20.11s-5.31,14.67-13.91,16.44-88.35.62-88.35.62l-89,13.58Z" style="fill:#263238"></path><path d="M98.26,457.35a2.34,2.34,0,0,1,.34-.11l1-.27,3.91-1,14.41-3.56,47.6-11.54,21.39-5.14h0l33.93-1.58,9.79-.41,2.61-.09H234a.72.72,0,0,1,.22,0l-.22,0-.67.05-2.61.17-9.78.55L187,436.23h.05l-21.38,5.17L118,452.78l-14.45,3.4-3.94.89-1,.22A1.56,1.56,0,0,1,98.26,457.35Z" style="fill:#455a64"></path><path d="M285.41,341.83s17.26,10.65,18.66,23.37c1,9.43,1,52.92.32,69.54-.61,15-5.37,28.88-13.22,32.32S269,469.55,269,469.55s-22.06-16.05-24.37-35.89h-8.36s4.75-5.49,5.51-9.42,8.58-75.85,8.58-75.85l11.83-3.25s.93,8.57,9.74,5.5A32.49,32.49,0,0,0,285.41,341.83Z" style="fill:#e0e0e0"></path><path d="M241.39,425.28s17.88,9.83,24.33,11.3c6.21,1.42,7.7,0,10.41-3.57s5.18-11.67,5.18-11.67l6.59,3.39,9.5-39.11L275.18,401l-8.11,20.46-12.55,2.4Z" style="opacity:0.30000000000000004"></path><path d="M248.55,355.1c.15,0-.71,11.08-1.92,24.72s-2.29,24.69-2.44,24.67.72-11.07,1.92-24.71S248.41,355.09,248.55,355.1Z" style="fill:#455a64"></path><path d="M189,358.57c0,3.49,1.42,6.32,3.18,6.32.42,0,3.69.29,4,0,1.18-.94-.86-3.66-.86-6.32s2.13-5.21,1-6.18c-.39-.34-3.74-.15-4.19-.15C190.42,352.24,189,355.07,189,358.57Z" style="fill:#263238"></path><path d="M192.94,358.57c0,3.49,1.42,6.32,3.18,6.32s3.19-2.83,3.19-6.32-1.43-6.33-3.19-6.33S192.94,355.07,192.94,358.57Z" style="fill:#e0e0e0"></path><path d="M195.36,358.57c0,1.13.46,2.05,1,2.05s1-.92,1-2.05-.46-2.06-1-2.06S195.36,357.43,195.36,358.57Z" style="fill:#263238"></path><path d="M160.44,431.6c0,3.5,1.43,6.33,3.19,6.33.42,0,3.68.29,4.05,0,1.17-.93-.87-3.65-.87-6.32s2.13-5.2,1-6.18c-.39-.33-3.74-.14-4.19-.14C161.87,425.28,160.44,428.11,160.44,431.6Z" style="fill:#263238"></path><path d="M164.38,431.6c0,3.5,1.43,6.33,3.19,6.33s3.18-2.83,3.18-6.33-1.43-6.32-3.18-6.32S164.38,428.11,164.38,431.6Z" style="fill:#e0e0e0"></path><path d="M166.81,431.6c0,1.14.46,2.06,1,2.06s1-.92,1-2.06-.46-2.05-1-2.05S166.81,430.47,166.81,431.6Z" style="fill:#263238"></path><path d="M116.27,453c.57-.12,44.64-112.95,44.89-114.22s7.34-19.72,22.77-17.19,11.88,25.79,9.86,30.6S157.68,443,157.68,443Z" style="fill:#FF725E"></path><path d="M191.83,331.63s0,.09.12.28l.32.85a15.16,15.16,0,0,1,.78,3.39,34.73,34.73,0,0,1-1.25,12.69,109.6,109.6,0,0,1-6.63,17.76c-1.48,3.25-3.11,6.61-4.62,10.17s-3,7.29-4.51,11.13c-5.8,15.38-11,29.31-14.86,39.43-1.91,5-3.45,9.09-4.54,11.94-.53,1.38-1,2.47-1.26,3.24l-.34.84a1.16,1.16,0,0,1-.13.27,1.33,1.33,0,0,1,.08-.29c.08-.22.17-.5.29-.86l1.17-3.27c1.05-2.87,2.54-7,4.39-12,3.73-10.12,8.86-24.1,14.72-39.49,1.48-3.84,3-7.57,4.52-11.14s3.17-6.94,4.66-10.17a113,113,0,0,0,6.7-17.66,35.53,35.53,0,0,0,1.41-12.57,16.56,16.56,0,0,0-.68-3.38c-.11-.36-.2-.64-.26-.86A1.48,1.48,0,0,1,191.83,331.63Z" style="fill:#263238"></path><path d="M145.75,407.11a6.57,6.57,0,0,1,.91-1l2.6-2.53,8.59-8.31,8.49-8.42,2.58-2.54a6.13,6.13,0,0,1,1-.89,6.18,6.18,0,0,1-.84,1c-.57.64-1.41,1.55-2.46,2.66-2.11,2.23-5.06,5.26-8.4,8.53s-6.43,6.16-8.7,8.21c-1.13,1-2.06,1.85-2.71,2.41A6.08,6.08,0,0,1,145.75,407.11Z" style="fill:#263238"></path><path d="M144.59,414.58c-.09-.11,4.47-4,10.19-8.67s10.43-8.37,10.52-8.26-4.47,4-10.19,8.67S144.68,414.69,144.59,414.58Z" style="fill:#263238"></path><path d="M171.45,326.2s-2.16-1.77-2.26-3.54,2.26-2.16,2.26-2.16.1-1.77.88-2.16a3.77,3.77,0,0,1,2.16,0,3.07,3.07,0,0,1,1.87-1.18,1.32,1.32,0,0,1,1.37,1,3.76,3.76,0,0,1,3.05-1c1.57.4,1.11,8.66.31,9.74a2.67,2.67,0,0,1-2.18.87s-.39,2.16-3.14,1.86c0,0-2.16-.19-2.45-1.37l-.3-1.18S172.43,327.16,171.45,326.2Z" style="fill:#ffbf9d"></path><path d="M177.87,318.37a47.26,47.26,0,0,0,0,4.81c.24,2.64,1.08,4.65.93,4.71a11.88,11.88,0,0,1-.9-9.52Z" style="fill:#ff9a6c"></path><path d="M174.64,318.33c.13,0,.13,2.58.41,5.75a22.43,22.43,0,0,0,.45,4,16.23,16.23,0,0,0,.64,1.53c0,.05-.61-.38-1-1.41a15.66,15.66,0,0,1-.62-4.08C174.25,320.93,174.48,318.31,174.64,318.33Z" style="fill:#ff9a6c"></path><path d="M171.66,320.15a18.65,18.65,0,0,1,.85,3.66,19.51,19.51,0,0,1,.61,3.7,10.65,10.65,0,0,1-1.12-3.6A11.22,11.22,0,0,1,171.66,320.15Z" style="fill:#ff9a6c"></path><path d="M192.47,327.19s-2.7-7.37-4.57-8.15a37.37,37.37,0,0,0-7-1.3.81.81,0,0,0-.85,1.07,4.61,4.61,0,0,0,1.29,1.7c2.13,1.94,5.7,1.92,5.7,1.92C188.8,322.94,190.63,324.86,192.47,327.19Z" style="fill:#ffbf9d"></path><path d="M185.88,318.49a13.42,13.42,0,0,1-2.25-.18c-.7-.07-1.52-.15-2.44-.22a4.77,4.77,0,0,0-.62,0,.35.35,0,0,0-.23.32,2.86,2.86,0,0,0,.47,1.29,5.21,5.21,0,0,0,2.22,1.74,11,11,0,0,0,2.3.63c1.37.22,2.23.18,2.23.27a5.33,5.33,0,0,1-2.27.09,9.31,9.31,0,0,1-2.44-.55,5.35,5.35,0,0,1-2.47-1.89,3.23,3.23,0,0,1-.55-1.61.84.84,0,0,1,.61-.77,1.1,1.1,0,0,1,.44,0l.36,0c.92.09,1.74.21,2.44.33A7.59,7.59,0,0,1,185.88,318.49Z" style="fill:#ff9a6c"></path><path d="M219.43,400.73s-4-3.85-6.54-4.29c-1.19-.2-6.77-.18-6.77-.18l-4.31,2.58,2.8,1.9a13,13,0,0,0,3-1l2.59,0Z" style="fill:#ffbf9d"></path><path d="M208.74,401.12l-9.06-6.86a1.77,1.77,0,0,0-1.11-.35l-12.35.4a.94.94,0,0,0-.91.92,1.64,1.64,0,0,0,.44,1.33L205,411.47l15-1.58Z" style="fill:#e0e0e0"></path><path d="M213.45,398.78l-8,2.76-11.54,1.62a2.53,2.53,0,0,0,2.3,2.6c1.39.14,3.82.31,3.82.31a3.93,3.93,0,0,0,2.39,2.6,6,6,0,0,0,1.73,2.05,1.84,1.84,0,0,0,.36.15c1.11.32,3.31,3.33,4.79,3.73.74.2,10.65,2.26,10.65,2.26l5.11,1.87-.51-11.9-5.36-6.42Z" style="fill:#ffbf9d"></path><path d="M211.08,405.33s-.63.14-1.65.34a30.66,30.66,0,0,1-8.11.52c-1-.07-1.68-.16-1.69-.13a1.86,1.86,0,0,0,.45.11c.28.06.7.12,1.23.18a25.18,25.18,0,0,0,4.09.07,24.93,24.93,0,0,0,4.06-.6,12.16,12.16,0,0,0,1.2-.33C210.94,405.4,211.09,405.35,211.08,405.33Z" style="fill:#ff9a6c"></path><path d="M209.53,408.62a2,2,0,0,0,.09.79,1.53,1.53,0,0,0,.43.78,1.39,1.39,0,0,0,1,.35,2.81,2.81,0,0,0,1-.3c.29-.15.53-.3.74-.42.42-.25.7-.34.69-.37a1.62,1.62,0,0,0-.76.23,4.79,4.79,0,0,1-1.72.64,1.24,1.24,0,0,1-.9-.28,1.57,1.57,0,0,1-.42-.67A6.17,6.17,0,0,0,209.53,408.62Z" style="fill:#ff9a6c"></path><path d="M203.61,409.41a3,3,0,0,0,.87.22,19.85,19.85,0,0,0,4.35.3,3.08,3.08,0,0,0,.89-.11c0-.06-1.37,0-3.06-.14S203.62,409.35,203.61,409.41Z" style="fill:#ff9a6c"></path><path d="M209.69,412.74a2.82,2.82,0,0,0,2.76.43c0-.06-.64.06-1.4-.07S209.72,412.68,209.69,412.74Z" style="fill:#ff9a6c"></path><path d="M206.8,412.6c0,.06.38.16.86.22a1.85,1.85,0,0,0,.9,0c0-.06-.38-.16-.87-.22A1.82,1.82,0,0,0,206.8,412.6Z" style="fill:#ff9a6c"></path><path d="M205.42,401.54a23.76,23.76,0,0,0,3.76-1.26c1-.4,1.93-.78,2.59-1.07a6.09,6.09,0,0,0,1-.54,8.51,8.51,0,0,0-1.09.39l-2.61,1-2.61,1A8.32,8.32,0,0,0,205.42,401.54Z" style="fill:#ff9a6c"></path><path d="M185.86,395.41h.23l.66-.05c.58,0,1.4-.11,2.43-.17,2-.12,4.88-.22,8-.13a4.43,4.43,0,0,1,2.18.37,8.71,8.71,0,0,1,.86.64l.82.65,2.83,2.23,1.93,1.49.53.4c.12.08.18.13.19.12a1.45,1.45,0,0,0-.17-.16l-.5-.43L204,398.83l-2.81-2.27-.81-.65a7.48,7.48,0,0,0-.88-.66,2.58,2.58,0,0,0-1.11-.35,11.46,11.46,0,0,0-1.17-.06,74.21,74.21,0,0,0-8,.2c-1,.08-1.85.17-2.43.24l-.65.09A.89.89,0,0,0,185.86,395.41Z" style="fill:#263238"></path><path d="M193.47,396.91a.61.61,0,0,1,.61-.2h0l.09,0h0a.79.79,0,0,1,.47.3.5.5,0,0,1,0,.64.62.62,0,0,1-.35.15.87.87,0,0,1-.71-.22A.59.59,0,0,1,193.47,396.91Z" style="fill:#fff"></path><path d="M221,403.84l38.67,6.5,11.88-38.64,22.22,9.57s-19,51.59-24.58,52.74-48.75-17-48.75-17Z" style="fill:#ffbf9d"></path><path d="M286.36,349.28s-10.94,0-16.57,17.05c-3,9-12.93,39-12.93,39,.67.28,29.5,15,29.5,15s12-36.15,14-45.54" style="fill:#e0e0e0"></path><path d="M300.33,374.82a.67.67,0,0,1,0,.23c0,.17-.08.39-.13.66-.12.58-.31,1.44-.6,2.55-.56,2.22-1.46,5.44-2.65,9.48-2.4,8.09-6,19.45-10.33,32.69l-.09.27-.25-.13-23-11.71-6.47-3.29-.21-.11.07-.21,8.22-24.73c1.26-3.77,2.46-7.34,3.57-10.68a65.84,65.84,0,0,1,3.51-9.12,27.23,27.23,0,0,1,4.66-6.54,18,18,0,0,1,4.86-3.57,13.94,13.94,0,0,1,3.61-1.21,6.92,6.92,0,0,1,1-.12h.34a2.13,2.13,0,0,1-.33.05,9.16,9.16,0,0,0-1,.17,14.34,14.34,0,0,0-3.53,1.28,18.29,18.29,0,0,0-4.75,3.59,27.21,27.21,0,0,0-4.54,6.51,65.86,65.86,0,0,0-3.43,9.09l-3.53,10.7-8.17,24.74-.15-.32,6.48,3.3,23,11.75-.34.14c4.39-13.23,8-24.57,10.5-32.62,1.24-4,2.18-7.23,2.78-9.44.32-1.1.53-2,.68-2.53.07-.27.13-.48.17-.65A1.8,1.8,0,0,1,300.33,374.82Z" style="fill:#263238"></path></g></svg>
